G04 DesignSpark PCB Gerber Version 10.0 Build 5299*
G04 #@! TF.Part,Single*
G04 #@! TF.FileFunction,Copper,L2,Bot*
G04 #@! TF.FilePolarity,Positive*
%FSLAX35Y35*%
%MOIN*%
G04 #@! TA.AperFunction,ComponentPad*
%ADD17R,0.06000X0.06000*%
%ADD70R,0.06500X0.06500*%
G04 #@! TD.AperFunction*
%ADD10C,0.00500*%
%ADD11C,0.01000*%
%ADD104C,0.01400*%
%ADD14C,0.01500*%
%ADD105C,0.02500*%
G04 #@! TA.AperFunction,ViaPad*
%ADD15C,0.04800*%
G04 #@! TD.AperFunction*
%ADD12C,0.05000*%
G04 #@! TA.AperFunction,ComponentPad*
%ADD97C,0.05512*%
G04 #@! TA.AperFunction,ViaPad*
%ADD13C,0.05600*%
G04 #@! TA.AperFunction,ComponentPad*
%ADD99C,0.05906*%
%ADD16C,0.06000*%
G04 #@! TA.AperFunction,WasherPad*
%ADD96C,0.15000*%
G04 #@! TA.AperFunction,ComponentPad*
%ADD98C,0.18898*%
G04 #@! TD.AperFunction*
X0Y0D02*
D02*
D10*
X53000Y121500D02*
Y39803D01*
X59803Y33000D01*
X127376D01*
G75*
G02*
X126600Y35250I2874J2250D01*
G01*
G75*
G02*
X133303Y37250I3650J0D01*
G01*
X151197D01*
G75*
G02*
X152171Y38250I3053J-2000D01*
G01*
X150250D01*
G75*
G02*
X148834Y38837I0J2000D01*
G01*
X129422Y58250D01*
X123000D01*
G75*
G02*
X115000Y60250I-3750J2000D01*
G01*
G75*
G02*
X116240Y63250I4250J0D01*
G01*
X108000D01*
G75*
G02*
X100000Y65250I-3750J2000D01*
G01*
G75*
G02*
X108000Y67250I4250J0D01*
G01*
X116240D01*
G75*
G02*
Y73250I3010J3000D01*
G01*
X108000D01*
G75*
G02*
X100000Y75250I-3750J2000D01*
G01*
G75*
G02*
X108000Y77250I4250J0D01*
G01*
X116240D01*
G75*
G02*
X115000Y80250I3010J3000D01*
G01*
G75*
G02*
X123500I4250J0D01*
G01*
G75*
G02*
X122260Y77250I-4250J0D01*
G01*
X125250D01*
G75*
G02*
X126666Y76663I0J-2000D01*
G01*
X136078Y67250D01*
X146240D01*
G75*
G02*
X145000Y70250I3010J3000D01*
G01*
G75*
G02*
X153000Y72250I4250J0D01*
G01*
X160000D01*
Y74500D01*
X168500D01*
Y67250D01*
X186240D01*
G75*
G02*
X190487Y74316I3010J3000D01*
G01*
X192834Y76663D01*
G75*
G02*
X194250Y77250I1416J-1413D01*
G01*
X216240D01*
G75*
G02*
Y83250I3010J3000D01*
G01*
X194250D01*
G75*
G02*
X192834Y83837I0J2000D01*
G01*
X190487Y86184D01*
G75*
G02*
X185500Y88250I-1237J4066D01*
G01*
X172250D01*
G75*
G02*
X170834Y88837I0J2000D01*
G01*
X168500Y91172D01*
Y86000D01*
X160000D01*
Y88250D01*
X153000D01*
G75*
G02*
X145000Y90250I-3750J2000D01*
G01*
G75*
G02*
X153000Y92250I4250J0D01*
G01*
X160000D01*
Y94500D01*
X167250D01*
Y96000D01*
X160000D01*
Y98250D01*
X153000D01*
G75*
G02*
X145000Y100250I-3750J2000D01*
G01*
G75*
G02*
X153000Y102250I4250J0D01*
G01*
X160000D01*
Y104500D01*
X167250D01*
Y106000D01*
X160000D01*
Y108250D01*
X153000D01*
G75*
G02*
X145000Y110250I-3750J2000D01*
G01*
G75*
G02*
X146240Y113250I4250J0D01*
G01*
X122260D01*
G75*
G02*
X123500Y110250I-3010J-3000D01*
G01*
G75*
G02*
X115000I-4250J0D01*
G01*
G75*
G02*
X116240Y113250I4250J0D01*
G01*
X110078D01*
X108316Y111487D01*
G75*
G02*
X108500Y110250I-4066J-1238D01*
G01*
G75*
G02*
X100000I-4250J0D01*
G01*
G75*
G02*
X105487Y114316I4250J0D01*
G01*
X107834Y116663D01*
G75*
G02*
X109250Y117250I1416J-1413D01*
G01*
X115000D01*
Y124500D01*
X123500D01*
Y117250D01*
X146240D01*
G75*
G02*
X145000Y120250I3010J3000D01*
G01*
G75*
G02*
X153500I4250J0D01*
G01*
G75*
G02*
X152260Y117250I-4250J0D01*
G01*
X158422D01*
X160000Y118828D01*
Y124500D01*
X168500D01*
Y118828D01*
X170663Y116666D01*
G75*
G02*
X171250Y115250I-1413J-1416D01*
G01*
Y94078D01*
X173078Y92250D01*
X185500D01*
G75*
G02*
X193316Y89013I3750J-2000D01*
G01*
X195078Y87250D01*
X216240D01*
G75*
G02*
X215000Y90250I3010J3000D01*
G01*
G75*
G02*
X223500I4250J0D01*
G01*
G75*
G02*
X222260Y87250I-4250J0D01*
G01*
X231197D01*
G75*
G02*
X237250Y87329I3053J-2000D01*
G01*
Y106000D01*
X235000D01*
Y114500D01*
X243500D01*
Y106000D01*
X241250D01*
Y83078D01*
X245505Y78823D01*
G75*
G02*
X249303Y77250I745J-3573D01*
G01*
X256240D01*
G75*
G02*
X259250Y84500I3010J3000D01*
G01*
G75*
G02*
X262260Y77250I0J-4250D01*
G01*
X262422D01*
X265019Y79848D01*
G75*
G02*
X265000Y80250I4230J404D01*
G01*
G75*
G02*
X273000Y82250I4250J0D01*
G01*
X275500D01*
G75*
G02*
X283500Y80250I3750J-2000D01*
G01*
G75*
G02*
X275500Y78250I-4250J0D01*
G01*
X273000D01*
G75*
G02*
X267302Y76473I-3750J2000D01*
G01*
X264666Y73837D01*
G75*
G02*
X263250Y73250I-1416J1413D01*
G01*
X249303D01*
G75*
G02*
X248329Y72250I-3053J2000D01*
G01*
X293422D01*
X297250Y76078D01*
Y76500D01*
G75*
G02*
X299250Y84500I2000J3750D01*
G01*
G75*
G02*
X303000Y82250I0J-4250D01*
G01*
X305500D01*
G75*
G02*
X313500Y80250I3750J-2000D01*
G01*
G75*
G02*
X305500Y78250I-4250J0D01*
G01*
X303000D01*
G75*
G02*
X301250Y76500I-3750J2000D01*
G01*
Y75250D01*
G75*
G02*
X300663Y73834I-2000J0D01*
G01*
X295666Y68837D01*
G75*
G02*
X294250Y68250I-1416J1413D01*
G01*
X242303D01*
G75*
G02*
X241329Y67250I-3053J2000D01*
G01*
X272250D01*
G75*
G02*
X273666Y66663I0J-2000D01*
G01*
X280078Y60250D01*
X334171D01*
G75*
G02*
X334250Y66303I2079J3000D01*
G01*
Y92422D01*
X320487Y106184D01*
G75*
G02*
X316250Y107240I-1237J4066D01*
G01*
Y91078D01*
X320663Y86666D01*
G75*
G02*
X321250Y85250I-1413J-1416D01*
G01*
Y84000D01*
G75*
G02*
X319250Y76000I-2000J-3750D01*
G01*
G75*
G02*
X317250Y84000I0J4250D01*
G01*
Y84422D01*
X312837Y88834D01*
G75*
G02*
X312250Y90250I1413J1416D01*
G01*
Y107240D01*
G75*
G02*
X305000Y110250I-3000J3010D01*
G01*
G75*
G02*
X312250Y113260I4250J0D01*
G01*
Y137240D01*
G75*
G02*
X305000Y140250I-3000J3010D01*
G01*
G75*
G02*
X312250Y143260I4250J0D01*
G01*
Y165250D01*
G75*
G02*
X312396Y166000I2000J0D01*
G01*
X305000D01*
Y174500D01*
X313500D01*
Y167328D01*
X315000Y168828D01*
Y174500D01*
X323500D01*
Y166000D01*
X317828D01*
X316250Y164422D01*
Y143260D01*
G75*
G02*
X323500Y140250I3000J-3010D01*
G01*
G75*
G02*
X316250Y137240I-4250J0D01*
G01*
Y113260D01*
G75*
G02*
X323316Y109013I3000J-3010D01*
G01*
X337663Y94666D01*
G75*
G02*
X338250Y93250I-1413J-1416D01*
G01*
Y66303D01*
G75*
G02*
X338329Y60250I-2000J-3053D01*
G01*
X340422D01*
X341250Y61078D01*
Y94250D01*
G75*
G02*
X341837Y95666I2000J0D01*
G01*
X345000Y98828D01*
Y104500D01*
X353500D01*
Y96000D01*
X347828D01*
X346328Y94500D01*
X353500D01*
Y86000D01*
X345250D01*
Y74500D01*
X353500D01*
Y66000D01*
X345250D01*
Y64500D01*
X353500D01*
Y56000D01*
X347828D01*
X345666Y53837D01*
G75*
G02*
X344250Y53250I-1416J1413D01*
G01*
X322260D01*
G75*
G02*
Y47250I-3010J-3000D01*
G01*
X350422D01*
X365677Y62505D01*
G75*
G02*
X365600Y63250I3574J745D01*
G01*
G75*
G02*
X372900I3650J0D01*
G01*
G75*
G02*
X368505Y59677I-3650J0D01*
G01*
X352828Y44000D01*
X356250D01*
G75*
G02*
X358904Y42900I0J-3750D01*
G01*
X367803Y34000D01*
X408697D01*
X425500Y50803D01*
Y87808D01*
X402343D01*
G75*
G02*
X403256Y85262I-3093J-2546D01*
G01*
G75*
G02*
X395244I-4006J0D01*
G01*
G75*
G02*
X396157Y87808I4006J0D01*
G01*
X392749D01*
G75*
G02*
X385244Y89758I-3499J1950D01*
G01*
G75*
G02*
X392749Y91708I4006J0D01*
G01*
X396161D01*
G75*
G02*
X400290Y98126I3089J2550D01*
G01*
X402250Y100086D01*
Y100599D01*
G75*
G02*
X395244Y103254I-3000J2655D01*
G01*
G75*
G02*
X402250Y105909I4006J0D01*
G01*
Y109595D01*
G75*
G02*
X395244Y112250I-3000J2655D01*
G01*
G75*
G02*
X402250Y114905I4006J0D01*
G01*
Y147422D01*
X392837Y156834D01*
G75*
G02*
X392250Y158250I1413J1416D01*
G01*
Y166000D01*
X385000D01*
Y174500D01*
X392172D01*
X380487Y186184D01*
G75*
G02*
X375000Y190250I-1237J4066D01*
G01*
G75*
G02*
X383500I4250J0D01*
G01*
G75*
G02*
X383316Y189013I-4250J0D01*
G01*
X395663Y176666D01*
G75*
G02*
X396250Y175250I-1413J-1416D01*
G01*
Y174500D01*
X403500D01*
Y166000D01*
X396250D01*
Y159078D01*
X405663Y149666D01*
G75*
G02*
X406250Y148250I-1413J-1416D01*
G01*
Y99258D01*
G75*
G02*
X405663Y97842I-2000J0D01*
G01*
X403119Y95298D01*
G75*
G02*
X402339Y91708I-3869J-1040D01*
G01*
X425500D01*
Y206500D01*
X423500D01*
Y206000D01*
X415000D01*
Y207763D01*
G75*
G02*
X413482Y208482I250J2487D01*
G01*
X405913Y216052D01*
G75*
G02*
X405250Y216000I-663J4199D01*
G01*
G75*
G02*
Y224500I0J4250D01*
G01*
G75*
G02*
X409500Y220250I0J-4250D01*
G01*
G75*
G02*
X409448Y219587I-4251J0D01*
G01*
X415000Y214035D01*
Y214500D01*
X423500D01*
Y214000D01*
X425500D01*
Y226697D01*
X422697Y229500D01*
X221250D01*
G75*
G02*
X218596Y230600I0J3750D01*
G01*
X209697Y239500D01*
X203000D01*
Y232250D01*
G75*
G02*
Y228250I-3750J-2000D01*
G01*
Y190803D01*
X204803Y189000D01*
X207250D01*
G75*
G02*
X213500Y185250I2000J-3750D01*
G01*
G75*
G02*
X207250Y181500I-4250J0D01*
G01*
X203250D01*
G75*
G02*
X200596Y182600I0J3750D01*
G01*
X196600Y186596D01*
G75*
G02*
X195500Y189250I2650J2654D01*
G01*
Y228250D01*
G75*
G02*
Y232250I3750J2000D01*
G01*
Y239500D01*
X113803D01*
X53000Y178697D01*
Y129000D01*
X55000D01*
Y129500D01*
X63500D01*
Y121000D01*
X55000D01*
Y121500D01*
X53000D01*
X225000Y174500D02*
X233500D01*
Y166000D01*
X225000D01*
Y174500D01*
Y185250D02*
G75*
G02*
X233500I4250J0D01*
G01*
G75*
G02*
X225000I-4250J0D01*
G01*
X296234Y174500D02*
X303500D01*
Y166000D01*
X296250D01*
Y143260D01*
G75*
G02*
X303500Y140250I3000J-3010D01*
G01*
G75*
G02*
X296250Y137240I-4250J0D01*
G01*
Y113260D01*
G75*
G02*
X303500Y110250I3000J-3010D01*
G01*
G75*
G02*
X296250Y107240I-4250J0D01*
G01*
Y85250D01*
G75*
G02*
X295663Y83834I-2000J0D01*
G01*
X293316Y81487D01*
G75*
G02*
X289250Y76000I-4066J-1237D01*
G01*
G75*
G02*
Y84500I0J4250D01*
G01*
G75*
G02*
X290487Y84316I0J-4250D01*
G01*
X292250Y86078D01*
Y107240D01*
G75*
G02*
X285000Y110250I-3000J3010D01*
G01*
G75*
G02*
X292250Y113260I4250J0D01*
G01*
Y137240D01*
G75*
G02*
X285000Y140250I-3000J3010D01*
G01*
G75*
G02*
X292250Y143260I4250J0D01*
G01*
Y166000D01*
X285000D01*
Y174250D01*
X283500D01*
Y166000D01*
X275000D01*
Y174250D01*
X274250D01*
G75*
G02*
X273500Y174396I0J2000D01*
G01*
Y166000D01*
X266250D01*
Y146078D01*
X268013Y144316D01*
G75*
G02*
X273500Y140250I1237J-4066D01*
G01*
G75*
G02*
X265000I-4250J0D01*
G01*
G75*
G02*
X265184Y141487I4250J0D01*
G01*
X262837Y143834D01*
G75*
G02*
X262250Y145250I1413J1416D01*
G01*
Y166000D01*
X256328D01*
X260663Y161666D01*
G75*
G02*
X261250Y160250I-1413J-1416D01*
G01*
Y144000D01*
G75*
G02*
X259250Y136000I-2000J-3750D01*
G01*
G75*
G02*
X257250Y144000I0J4250D01*
G01*
Y159422D01*
X252837Y163834D01*
G75*
G02*
X252250Y165250I1413J1416D01*
G01*
Y166000D01*
X245000D01*
Y174500D01*
X252250D01*
Y192422D01*
X250422Y194250D01*
X247303D01*
G75*
G02*
X240600Y196250I-3053J2000D01*
G01*
G75*
G02*
X247303Y198250I3650J0D01*
G01*
X251250D01*
G75*
G02*
X252666Y197663I0J-2000D01*
G01*
X255663Y194666D01*
G75*
G02*
X256250Y193250I-1413J-1416D01*
G01*
Y188260D01*
G75*
G02*
X262250I3000J-3011D01*
G01*
Y198422D01*
X260422Y200250D01*
X237303D01*
G75*
G02*
X230600Y202250I-3053J2000D01*
G01*
G75*
G02*
X237303Y204250I3650J0D01*
G01*
X261250D01*
G75*
G02*
X262666Y203663I0J-2000D01*
G01*
X265663Y200666D01*
G75*
G02*
X266250Y199250I-1413J-1416D01*
G01*
Y189329D01*
G75*
G02*
X272900Y187250I3000J-2079D01*
G01*
G75*
G02*
X271250Y184197I-3650J0D01*
G01*
Y182078D01*
X275078Y178250D01*
X292250D01*
G75*
G02*
X293666Y177663I0J-2000D01*
G01*
X295663Y175666D01*
G75*
G02*
X296234Y174500I-1413J-1416D01*
G01*
X275000Y110250D02*
G75*
G02*
X283500I4250J0D01*
G01*
G75*
G02*
X275000I-4250J0D01*
G01*
Y140250D02*
G75*
G02*
X283500I4250J0D01*
G01*
G75*
G02*
X275000I-4250J0D01*
G01*
X265000Y110250D02*
G75*
G02*
X273500I4250J0D01*
G01*
G75*
G02*
X265000I-4250J0D01*
G01*
X255000Y98500D02*
X263500D01*
Y90000D01*
X255000D01*
Y98500D01*
Y110250D02*
G75*
G02*
X263500I4250J0D01*
G01*
G75*
G02*
X255000I-4250J0D01*
G01*
X245000Y140250D02*
G75*
G02*
X253500I4250J0D01*
G01*
G75*
G02*
X248013Y136184I-4250J0D01*
G01*
X241666Y129837D01*
G75*
G02*
X240250Y129250I-1416J1413D01*
G01*
X215303D01*
G75*
G02*
X208600Y131250I-3053J2000D01*
G01*
G75*
G02*
X215303Y133250I3650J0D01*
G01*
X239422D01*
X245184Y139013D01*
G75*
G02*
X245000Y140250I4066J1238D01*
G01*
Y98500D02*
X253500D01*
Y90000D01*
X245000D01*
Y98500D01*
Y110250D02*
G75*
G02*
X253500I4250J0D01*
G01*
G75*
G02*
X245000I-4250J0D01*
G01*
X215000Y100250D02*
G75*
G02*
X223500I4250J0D01*
G01*
G75*
G02*
X215000I-4250J0D01*
G01*
Y110250D02*
G75*
G02*
X223500I4250J0D01*
G01*
G75*
G02*
X215000I-4250J0D01*
G01*
Y120250D02*
G75*
G02*
X223500I4250J0D01*
G01*
G75*
G02*
X215000I-4250J0D01*
G01*
X235000Y140250D02*
G75*
G02*
X243500I4250J0D01*
G01*
G75*
G02*
X235000I-4250J0D01*
G01*
Y174500D02*
X243500D01*
Y166000D01*
X235000D01*
Y174500D01*
X245000Y224500D02*
X253500D01*
Y216000D01*
X245000D01*
Y224500D01*
X255000D02*
X263500D01*
Y216000D01*
X255000D01*
Y224500D01*
X290500Y192250D02*
G75*
G02*
X298500Y190250I3750J-2000D01*
G01*
G75*
G02*
X290500Y188250I-4250J0D01*
G01*
X288000D01*
G75*
G02*
X280000Y190250I-3750J2000D01*
G01*
G75*
G02*
X288000Y192250I4250J0D01*
G01*
X290500D01*
X280000Y220250D02*
G75*
G02*
X288500I4250J0D01*
G01*
G75*
G02*
X280000I-4250J0D01*
G01*
X290000D02*
G75*
G02*
X298500I4250J0D01*
G01*
G75*
G02*
X290000I-4250J0D01*
G01*
X329250Y194500D02*
G75*
G02*
Y186000I0J-4250D01*
G01*
G75*
G02*
X325500Y188250I0J4250D01*
G01*
X323000D01*
G75*
G02*
X315500I-3750J2000D01*
G01*
X313000D01*
G75*
G02*
X305000Y190250I-3750J2000D01*
G01*
G75*
G02*
X313000Y192250I4250J0D01*
G01*
X315500D01*
G75*
G02*
X323000I3750J-2000D01*
G01*
X325500D01*
G75*
G02*
X329250Y194500I3750J-2000D01*
G01*
X325000Y110250D02*
G75*
G02*
X333500I4250J0D01*
G01*
G75*
G02*
X325000I-4250J0D01*
G01*
Y140250D02*
G75*
G02*
X333500I4250J0D01*
G01*
G75*
G02*
X325000I-4250J0D01*
G01*
X355000Y174500D02*
X363500D01*
Y166000D01*
X357828D01*
X348744Y156915D01*
G75*
G02*
X349900Y154250I-2494J-2665D01*
G01*
G75*
G02*
X342750Y153215I-3650J0D01*
G01*
G75*
G02*
X335750I-3500J1035D01*
G01*
G75*
G02*
X328677Y154995I-3500J1035D01*
G01*
X327837Y155834D01*
G75*
G02*
X327250Y157250I1413J1416D01*
G01*
Y166000D01*
X325000D01*
Y174500D01*
X333500D01*
Y166000D01*
X331250D01*
Y158078D01*
X331505Y157823D01*
G75*
G02*
X335750Y155285I745J-3573D01*
G01*
G75*
G02*
X337250Y157303I3500J-1036D01*
G01*
Y166000D01*
X335000D01*
Y174500D01*
X343500D01*
Y166000D01*
X341250D01*
Y157303D01*
G75*
G02*
X342750Y155285I-2000J-3054D01*
G01*
G75*
G02*
X344251Y157304I3500J-1035D01*
G01*
G75*
G02*
X344837Y158666I1999J-54D01*
G01*
X352172Y166000D01*
X345000D01*
Y174500D01*
X353500D01*
Y167328D01*
X355000Y168828D01*
Y174500D01*
X305000Y220250D02*
G75*
G02*
X313500I4250J0D01*
G01*
G75*
G02*
X305000I-4250J0D01*
G01*
X315000D02*
G75*
G02*
X323500I4250J0D01*
G01*
G75*
G02*
X315000I-4250J0D01*
G01*
X325000D02*
G75*
G02*
X333500I4250J0D01*
G01*
G75*
G02*
X325000I-4250J0D01*
G01*
X364250Y194500D02*
G75*
G02*
Y186000I0J-4250D01*
G01*
G75*
G02*
X360500Y188250I0J4250D01*
G01*
X358000D01*
G75*
G02*
X350500I-3750J2000D01*
G01*
X348000D01*
G75*
G02*
X340000Y190250I-3750J2000D01*
G01*
G75*
G02*
X348000Y192250I4250J0D01*
G01*
X350500D01*
G75*
G02*
X358000I3750J-2000D01*
G01*
X360500D01*
G75*
G02*
X364250Y194500I3750J-2000D01*
G01*
X365000Y174500D02*
X373500D01*
Y166000D01*
X365000D01*
Y174500D01*
X340000Y220250D02*
G75*
G02*
X348500I4250J0D01*
G01*
G75*
G02*
X340000I-4250J0D01*
G01*
X350000D02*
G75*
G02*
X358500I4250J0D01*
G01*
G75*
G02*
X350000I-4250J0D01*
G01*
X360000D02*
G75*
G02*
X368500I4250J0D01*
G01*
G75*
G02*
X360000I-4250J0D01*
G01*
X375000Y174500D02*
X383500D01*
Y166000D01*
X375000D01*
Y174500D01*
X375244Y76266D02*
G75*
G02*
X383256I4006J0D01*
G01*
G75*
G02*
X375244I-4006J0D01*
G01*
X378551Y46030D02*
G75*
G02*
X399949I10699J0D01*
G01*
G75*
G02*
X378551I-10699J0D01*
G01*
X375244Y85262D02*
G75*
G02*
X383256I4006J0D01*
G01*
G75*
G02*
X375244I-4006J0D01*
G01*
Y94258D02*
G75*
G02*
X383256I4006J0D01*
G01*
G75*
G02*
X375244I-4006J0D01*
G01*
Y103254D02*
G75*
G02*
X383256I4006J0D01*
G01*
G75*
G02*
X375244I-4006J0D01*
G01*
Y112250D02*
G75*
G02*
X383256I4006J0D01*
G01*
G75*
G02*
X375244I-4006J0D01*
G01*
X378551Y144494D02*
G75*
G02*
X399949I10699J0D01*
G01*
G75*
G02*
X378551I-10699J0D01*
G01*
X385244Y80762D02*
G75*
G02*
X393256I4006J0D01*
G01*
G75*
G02*
X385244I-4006J0D01*
G01*
Y98754D02*
G75*
G02*
X393256I4006J0D01*
G01*
G75*
G02*
X385244I-4006J0D01*
G01*
Y107750D02*
G75*
G02*
X393256I4006J0D01*
G01*
G75*
G02*
X385244I-4006J0D01*
G01*
Y116746D02*
G75*
G02*
X393256I4006J0D01*
G01*
G75*
G02*
X385244I-4006J0D01*
G01*
X375000Y220250D02*
G75*
G02*
X383500I4250J0D01*
G01*
G75*
G02*
X375000I-4250J0D01*
G01*
X385000Y190250D02*
G75*
G02*
X393500I4250J0D01*
G01*
G75*
G02*
X385000I-4250J0D01*
G01*
Y220250D02*
G75*
G02*
X393500I4250J0D01*
G01*
G75*
G02*
X385000I-4250J0D01*
G01*
X411750Y174500D02*
X413500D01*
Y166000D01*
X405000D01*
Y174500D01*
X406750D01*
Y185215D01*
X405913Y186052D01*
G75*
G02*
X401000Y190250I-663J4198D01*
G01*
G75*
G02*
X409500I4250J0D01*
G01*
G75*
G02*
X409448Y189587I-4251J0D01*
G01*
X411018Y188018D01*
G75*
G02*
X411750Y186250I-1768J-1768D01*
G01*
Y174500D01*
X215000Y144500D02*
X223500D01*
Y136000D01*
X215000D01*
Y144500D01*
X205000Y195250D02*
G75*
G02*
X213500I4250J0D01*
G01*
G75*
G02*
X205000I-4250J0D01*
G01*
Y205250D02*
G75*
G02*
X213500I4250J0D01*
G01*
G75*
G02*
X205000I-4250J0D01*
G01*
Y230250D02*
G75*
G02*
X213500I4250J0D01*
G01*
G75*
G02*
X205000I-4250J0D01*
G01*
Y144500D02*
X213500D01*
Y136000D01*
X205000D01*
Y144500D01*
Y155250D02*
G75*
G02*
X213500I4250J0D01*
G01*
G75*
G02*
X205000I-4250J0D01*
G01*
Y175250D02*
G75*
G02*
X213500I4250J0D01*
G01*
G75*
G02*
X205000I-4250J0D01*
G01*
X185663Y216666D02*
G75*
G02*
X186250Y215250I-1413J-1416D01*
G01*
Y190250D01*
G75*
G02*
X185663Y188834I-2000J0D01*
G01*
X183316Y186487D01*
G75*
G02*
X183500Y185250I-4066J-1238D01*
G01*
G75*
G02*
X175000I-4250J0D01*
G01*
G75*
G02*
X180487Y189316I4250J0D01*
G01*
X182250Y191078D01*
Y192240D01*
G75*
G02*
X175000Y195250I-3000J3010D01*
G01*
G75*
G02*
X182250Y198260I4250J0D01*
G01*
Y201000D01*
X177828D01*
X150666Y173837D01*
G75*
G02*
X149250Y173250I-1416J1413D01*
G01*
X64078D01*
X75663Y161666D01*
G75*
G02*
X76250Y160250I-1413J-1416D01*
G01*
Y124000D01*
G75*
G02*
X78500Y120250I-2000J-3750D01*
G01*
G75*
G02*
X70000I-4250J0D01*
G01*
G75*
G02*
X72250Y124000I4250J0D01*
G01*
Y142670D01*
G75*
G02*
X55231Y145532I-8269J2861D01*
G01*
G75*
G02*
X72250Y148393I8750J0D01*
G01*
Y159422D01*
X63500Y168172D01*
Y161000D01*
X55000D01*
Y169500D01*
X62172D01*
X60672Y171000D01*
X55000D01*
Y179500D01*
X63500D01*
Y177250D01*
X148422D01*
X175000Y203828D01*
Y209500D01*
X182250D01*
Y214422D01*
X170487Y226184D01*
G75*
G02*
X165000Y230250I-1237J4066D01*
G01*
G75*
G02*
X173500I4250J0D01*
G01*
G75*
G02*
X173316Y229013I-4250J0D01*
G01*
X185663Y216666D01*
X175000Y175250D02*
G75*
G02*
X183500I4250J0D01*
G01*
G75*
G02*
X175000I-4250J0D01*
G01*
X100000Y85250D02*
G75*
G02*
X108500I4250J0D01*
G01*
G75*
G02*
X100000I-4250J0D01*
G01*
Y100250D02*
G75*
G02*
X108500I4250J0D01*
G01*
G75*
G02*
X100000I-4250J0D01*
G01*
Y120250D02*
G75*
G02*
X108500I4250J0D01*
G01*
G75*
G02*
X100000I-4250J0D01*
G01*
X194250Y144500D02*
X196500D01*
Y136000D01*
X188000D01*
Y144500D01*
X190250D01*
Y151422D01*
X178422Y163250D01*
X119946D01*
G75*
G02*
X112047Y165250I-3696J2000D01*
G01*
G75*
G02*
X119946Y167250I4203J0D01*
G01*
X179250D01*
G75*
G02*
X180666Y166663I0J-2000D01*
G01*
X193663Y153666D01*
G75*
G02*
X194250Y152250I-1413J-1416D01*
G01*
Y144500D01*
X150000D02*
X158500D01*
Y136000D01*
X150000D01*
Y144500D01*
X160000D02*
X168500D01*
Y136000D01*
X160000D01*
Y144500D01*
X175000Y155250D02*
G75*
G02*
X183500I4250J0D01*
G01*
G75*
G02*
X175000I-4250J0D01*
G01*
X178000Y144500D02*
X186500D01*
Y136000D01*
X178000D01*
Y144500D01*
X185000Y100250D02*
G75*
G02*
X193500I4250J0D01*
G01*
G75*
G02*
X185000I-4250J0D01*
G01*
Y110250D02*
G75*
G02*
X193500I4250J0D01*
G01*
G75*
G02*
X185000I-4250J0D01*
G01*
Y124500D02*
X193500D01*
Y116000D01*
X185000D01*
Y124500D01*
X175000Y230250D02*
G75*
G02*
X183500I4250J0D01*
G01*
G75*
G02*
X175000I-4250J0D01*
G01*
X112047Y204620D02*
G75*
G02*
X120453I4203J0D01*
G01*
G75*
G02*
X118250Y200924I-4203J0D01*
G01*
Y198868D01*
G75*
G02*
X116250Y190969I-2000J-3696D01*
G01*
G75*
G02*
X114250Y198868I0J4203D01*
G01*
Y200924D01*
G75*
G02*
X112047Y204620I2000J3696D01*
G01*
X55000Y49500D02*
X63500D01*
Y41000D01*
X55000D01*
Y49500D01*
X80663Y96666D02*
G75*
G02*
X81250Y95250I-1413J-1416D01*
G01*
Y70250D01*
G75*
G02*
X80663Y68834I-2000J0D01*
G01*
X78316Y66487D01*
G75*
G02*
X78500Y65250I-4066J-1238D01*
G01*
G75*
G02*
X70000I-4250J0D01*
G01*
G75*
G02*
X75487Y69316I4250J0D01*
G01*
X77250Y71078D01*
Y72240D01*
G75*
G02*
X73848Y71019I-3000J3010D01*
G01*
X67250Y64422D01*
Y61250D01*
G75*
G02*
X66663Y59834I-2000J0D01*
G01*
X63500Y56672D01*
Y51000D01*
X55000D01*
Y59500D01*
X60672D01*
X62172Y61000D01*
X55000D01*
Y69500D01*
X63500D01*
Y66218D01*
G75*
G02*
X63837Y66666I1750J-968D01*
G01*
X70473Y73302D01*
G75*
G02*
X77250Y78260I3777J1948D01*
G01*
Y82240D01*
G75*
G02*
X70000Y85250I-3000J3010D01*
G01*
G75*
G02*
X77250Y88260I4250J0D01*
G01*
Y94422D01*
X75487Y96184D01*
G75*
G02*
X70000Y100250I-1237J4066D01*
G01*
G75*
G02*
X78500I4250J0D01*
G01*
G75*
G02*
X78316Y99013I-4250J0D01*
G01*
X80663Y96666D01*
X68900Y114904D02*
G75*
G02*
X70000Y112250I-2650J-2654D01*
G01*
Y78250D01*
G75*
G02*
X68900Y75596I-3750J0D01*
G01*
X65904Y72600D01*
G75*
G02*
X63500Y71508I-2654J2650D01*
G01*
Y71000D01*
X55000D01*
Y79500D01*
X62197D01*
X62500Y79803D01*
Y81000D01*
X55000D01*
Y89500D01*
X62500D01*
Y91000D01*
X55000D01*
Y99500D01*
X62500D01*
Y110697D01*
X62197Y111000D01*
X55000D01*
Y119500D01*
X63500D01*
Y118992D01*
G75*
G02*
X65904Y117900I-250J-3742D01*
G01*
X68900Y114904D01*
X70000Y110250D02*
G75*
G02*
X78500I4250J0D01*
G01*
G75*
G02*
X70000I-4250J0D01*
G01*
X115000Y50250D02*
G75*
G02*
X123500I4250J0D01*
G01*
G75*
G02*
X115000I-4250J0D01*
G01*
X185000Y80250D02*
G75*
G02*
X193500I4250J0D01*
G01*
G75*
G02*
X185000I-4250J0D01*
G01*
X160000Y84500D02*
X168500D01*
Y76000D01*
X160000D01*
Y78250D01*
X153000D01*
G75*
G02*
X145000Y80250I-3750J2000D01*
G01*
G75*
G02*
X153000Y82250I4250J0D01*
G01*
X160000D01*
Y84500D01*
X115000Y90250D02*
G75*
G02*
X123500I4250J0D01*
G01*
G75*
G02*
X115000I-4250J0D01*
G01*
Y100250D02*
G75*
G02*
X123500I4250J0D01*
G01*
G75*
G02*
X115000I-4250J0D01*
G01*
X395244Y76266D02*
G75*
G02*
X403256I4006J0D01*
G01*
G75*
G02*
X395244I-4006J0D01*
G01*
X415000Y204500D02*
X423500D01*
Y196000D01*
X423000D01*
Y174500D01*
X423500D01*
Y166000D01*
X415000D01*
Y174500D01*
X415500D01*
Y196000D01*
X415000D01*
Y204500D01*
X53250Y46030D02*
G36*
X53250Y46030D02*
Y39553D01*
X59553Y33250D01*
X127197D01*
G75*
G02*
X126600Y35250I3055J2001D01*
G01*
G75*
G02*
X133303Y37250I3650J0D01*
G01*
X151197D01*
G75*
G02*
X152171Y38250I3053J-1999D01*
G01*
X150250D01*
G75*
G02*
X148834Y38837I0J2000D01*
G01*
X141642Y46030D01*
X119750D01*
G75*
G02*
X118750I-500J4220D01*
G01*
X63500D01*
Y41000D01*
X55000D01*
Y46030D01*
X53250D01*
G37*
X354858D02*
G36*
X354858Y46030D02*
X352828Y44000D01*
X356250D01*
G75*
G02*
X358904Y42900I1J-3748D01*
G01*
X367803Y34000D01*
X408697D01*
X420726Y46030D01*
X399949D01*
G75*
G02*
X378551I-10699J0D01*
G01*
X354858D01*
G37*
X53250Y50250D02*
G36*
X53250Y50250D02*
Y46030D01*
X55000D01*
Y49500D01*
X63500D01*
Y46030D01*
X118750D01*
G75*
G02*
X115000Y50250I500J4220D01*
G01*
X53250D01*
G37*
X123500D02*
G36*
X123500Y50250D02*
G75*
G02*
X119750Y46030I-4250J0D01*
G01*
X141642D01*
X137422Y50250D01*
X123500D01*
G37*
X323500D02*
G36*
X323500Y50250D02*
G75*
G02*
X322260Y47250I-4250J0D01*
G01*
X350422D01*
X353422Y50250D01*
X323500D01*
G37*
X359078D02*
G36*
X359078Y50250D02*
X354858Y46030D01*
X378551D01*
G75*
G02*
X379419Y50250I10699J0D01*
G01*
X359078D01*
G37*
X399081D02*
G36*
X399081Y50250D02*
G75*
G02*
X399949Y46030I-9831J-4221D01*
G01*
X420726D01*
X424947Y50250D01*
X399081D01*
G37*
X53250Y76266D02*
G36*
X53250Y76266D02*
Y50250D01*
X115000D01*
G75*
G02*
X123500I4250J0D01*
G01*
X137422D01*
X129422Y58250D01*
X123000D01*
G75*
G02*
X115000Y60250I-3750J2000D01*
G01*
G75*
G02*
X116240Y63250I4250J0D01*
G01*
X108000D01*
G75*
G02*
X100000Y65250I-3750J2000D01*
G01*
G75*
G02*
X108000Y67250I4250J0D01*
G01*
X116240D01*
G75*
G02*
X115000Y70250I3010J3000D01*
G01*
G75*
G02*
X116240Y73250I4250J0D01*
G01*
X108000D01*
G75*
G02*
X100000Y75250I-3750J2000D01*
G01*
G75*
G02*
X100123Y76266I4251J0D01*
G01*
X81250D01*
Y70250D01*
G75*
G02*
X80663Y68834I-2000J0D01*
G01*
X78316Y66487D01*
G75*
G02*
X78500Y65250I-4075J-1239D01*
G01*
G75*
G02*
X70000I-4250J0D01*
G01*
G75*
G02*
X75487Y69316I4250J0D01*
G01*
X77250Y71078D01*
Y72240D01*
G75*
G02*
X73848Y71019I-2999J3009D01*
G01*
X67250Y64422D01*
Y61250D01*
G75*
G02*
X66663Y59834I-2000J0D01*
G01*
X63500Y56672D01*
Y51000D01*
X55000D01*
Y59500D01*
X60672D01*
X62172Y61000D01*
X55000D01*
Y69500D01*
X63500D01*
Y66218D01*
G75*
G02*
X63837Y66666I1732J-955D01*
G01*
X70473Y73302D01*
G75*
G02*
X70000Y75250I3777J1948D01*
G01*
G75*
G02*
X70123Y76266I4250J1D01*
G01*
X69432D01*
G75*
G02*
X68900Y75596I-3180J1983D01*
G01*
X65904Y72600D01*
G75*
G02*
X63500Y71508I-2654J2651D01*
G01*
Y71000D01*
X55000D01*
Y76266D01*
X53250D01*
G37*
X127063D02*
G36*
X127063Y76266D02*
X136078Y67250D01*
X146240D01*
G75*
G02*
X145000Y70250I3010J3000D01*
G01*
G75*
G02*
X153000Y72250I4250J0D01*
G01*
X160000D01*
Y74500D01*
X168500D01*
Y67250D01*
X186240D01*
G75*
G02*
X185000Y70250I3010J3000D01*
G01*
G75*
G02*
X190487Y74316I4250J0D01*
G01*
X192437Y76266D01*
X190729D01*
G75*
G02*
X187771I-1479J3984D01*
G01*
X168500D01*
Y76000D01*
X160000D01*
Y76266D01*
X150730D01*
G75*
G02*
X147770I-1480J3984D01*
G01*
X127063D01*
G37*
X242303Y68250D02*
G36*
X242303Y68250D02*
G75*
G02*
X241329Y67250I-3053J1999D01*
G01*
X272250D01*
G75*
G02*
X273666Y66663I0J-2000D01*
G01*
X280078Y60250D01*
X334171D01*
G75*
G02*
X332600Y63250I2079J3000D01*
G01*
G75*
G02*
X334250Y66303I3650J0D01*
G01*
Y76266D01*
X320730D01*
G75*
G02*
X319250Y76000I-1480J3985D01*
G01*
G75*
G02*
X317770Y76266I0J4250D01*
G01*
X310730D01*
G75*
G02*
X307770I-1480J3984D01*
G01*
X301250D01*
Y75250D01*
G75*
G02*
X300663Y73834I-2000J0D01*
G01*
X295666Y68837D01*
G75*
G02*
X294250Y68250I-1416J1413D01*
G01*
X242303D01*
G37*
X249303Y73250D02*
G36*
X249303Y73250D02*
G75*
G02*
X248329Y72250I-3053J1999D01*
G01*
X293422D01*
X297250Y76078D01*
Y76266D01*
X290729D01*
G75*
G02*
X289250Y76000I-1480J3985D01*
G01*
G75*
G02*
X287771Y76266I0J4250D01*
G01*
X280730D01*
G75*
G02*
X277770I-1480J3984D01*
G01*
X270730D01*
G75*
G02*
X267770I-1480J3983D01*
G01*
X267094D01*
X264666Y73837D01*
G75*
G02*
X263250Y73250I-1416J1413D01*
G01*
X249303D01*
G37*
X322260Y53250D02*
G36*
X322260Y53250D02*
G75*
G02*
X323500Y50250I-3010J-3000D01*
G01*
X353422D01*
X365677Y62505D01*
G75*
G02*
X365600Y63250I3585J746D01*
G01*
G75*
G02*
X372900I3650J0D01*
G01*
G75*
G02*
X368505Y59677I-3650J0D01*
G01*
X359078Y50250D01*
X379419D01*
G75*
G02*
X399081I9831J-4220D01*
G01*
X424947D01*
X425250Y50553D01*
Y76266D01*
X403256D01*
G75*
G02*
X395244I-4006J0D01*
G01*
X383256D01*
G75*
G02*
X375244I-4006J0D01*
G01*
X345250D01*
Y74500D01*
X353500D01*
Y66000D01*
X345250D01*
Y64500D01*
X353500D01*
Y56000D01*
X347828D01*
X345666Y53837D01*
G75*
G02*
X344250Y53250I-1416J1413D01*
G01*
X322260D01*
G37*
X338250Y76266D02*
G36*
X338250Y76266D02*
Y66303D01*
G75*
G02*
X339900Y63250I-2000J-3053D01*
G01*
G75*
G02*
X338329Y60250I-3650J0D01*
G01*
X340422D01*
X341250Y61078D01*
Y76266D01*
X338250D01*
G37*
X53250Y80762D02*
G36*
X53250Y80762D02*
Y76266D01*
X55000D01*
Y79500D01*
X62197D01*
X62500Y79803D01*
Y80762D01*
X53250D01*
G37*
X70000D02*
G36*
X70000Y80762D02*
Y78250D01*
G75*
G02*
Y78249I-5013J0D01*
G01*
G75*
G02*
X69432Y76266I-3748J0D01*
G01*
X70123D01*
G75*
G02*
X77250Y78260I4127J-1016D01*
G01*
Y80762D01*
X70000D01*
G37*
X81250D02*
G36*
X81250Y80762D02*
Y76266D01*
X100123D01*
G75*
G02*
X108000Y77250I4127J-1016D01*
G01*
X116240D01*
G75*
G02*
X115000Y80250I3010J3000D01*
G01*
G75*
G02*
X115031Y80762I4250J-2D01*
G01*
X81250D01*
G37*
X123469D02*
G36*
X123469Y80762D02*
G75*
G02*
X123500Y80250I-4219J-513D01*
G01*
G75*
G02*
X122260Y77250I-4250J0D01*
G01*
X125250D01*
G75*
G02*
X126666Y76663I0J-2000D01*
G01*
X127063Y76266D01*
X147770D01*
G75*
G02*
X145000Y80250I1480J3984D01*
G01*
G75*
G02*
X145031Y80762I4252J-2D01*
G01*
X123469D01*
G37*
X153000Y78250D02*
G36*
X153000Y78250D02*
G75*
G02*
X150730Y76266I-3750J2000D01*
G01*
X160000D01*
Y78250D01*
X153000D01*
G37*
X168500Y80762D02*
G36*
X168500Y80762D02*
Y76266D01*
X187771D01*
G75*
G02*
X185000Y80250I1479J3984D01*
G01*
G75*
G02*
X185031Y80762I4250J-2D01*
G01*
X168500D01*
G37*
X190729Y76266D02*
G36*
X190729Y76266D02*
X192437D01*
X192834Y76663D01*
G75*
G02*
X194250Y77250I1416J-1413D01*
G01*
X216240D01*
G75*
G02*
X215000Y80250I3010J3000D01*
G01*
G75*
G02*
X215031Y80762I4250J-2D01*
G01*
X193469D01*
G75*
G02*
X193500Y80250I-4219J-513D01*
G01*
G75*
G02*
X190729Y76266I-4250J0D01*
G01*
G37*
X243567Y80762D02*
G36*
X243567Y80762D02*
X245505Y78823D01*
G75*
G02*
X249303Y77250I744J-3574D01*
G01*
X256240D01*
G75*
G02*
X255000Y80250I3010J3000D01*
G01*
G75*
G02*
X255031Y80762I4252J2D01*
G01*
X243567D01*
G37*
X262260Y77250D02*
G36*
X262260Y77250D02*
X262422D01*
X265019Y79848D01*
G75*
G02*
X265000Y80246I4096J398D01*
G01*
G75*
G02*
Y80250I4068J2D01*
G01*
G75*
G02*
X265031Y80762I4252J-2D01*
G01*
X263469D01*
G75*
G02*
X263500Y80250I-4221J-510D01*
G01*
G75*
G02*
X262260Y77250I-4250J0D01*
G01*
G37*
X267302Y76473D02*
G36*
X267302Y76473D02*
X267094Y76266D01*
X267770D01*
G75*
G02*
X267302Y76473I1480J3985D01*
G01*
G37*
X273000Y78250D02*
G36*
X273000Y78250D02*
G75*
G02*
X270730Y76266I-3750J2000D01*
G01*
X277770D01*
G75*
G02*
X275500Y78250I1480J3984D01*
G01*
X273000D01*
G37*
X283500Y80250D02*
G36*
X283500Y80250D02*
G75*
G02*
X280730Y76266I-4250J0D01*
G01*
X287771D01*
G75*
G02*
X285000Y80250I1479J3984D01*
G01*
G75*
G02*
X285031Y80762I4250J-2D01*
G01*
X283469D01*
G75*
G02*
X283500Y80250I-4220J-513D01*
G01*
G37*
X293500Y80250D02*
G36*
X293500Y80250D02*
G75*
G02*
X290729Y76266I-4250J0D01*
G01*
X297250D01*
Y76500D01*
G75*
G02*
X295000Y80250I2000J3750D01*
G01*
G75*
G02*
X295031Y80762I4250J2D01*
G01*
X293469D01*
G75*
G02*
X293500Y80250I-4219J-510D01*
G01*
G37*
X301250Y76500D02*
G36*
X301250Y76500D02*
Y76266D01*
X307770D01*
G75*
G02*
X305500Y78250I1480J3984D01*
G01*
X303000D01*
G75*
G02*
X301250Y76500I-3752J2002D01*
G01*
G37*
X313500Y80250D02*
G36*
X313500Y80250D02*
G75*
G02*
X310730Y76266I-4250J0D01*
G01*
X317770D01*
G75*
G02*
X315000Y80250I1480J3984D01*
G01*
G75*
G02*
X315031Y80762I4250J2D01*
G01*
X313469D01*
G75*
G02*
X313500Y80250I-4220J-513D01*
G01*
G37*
X323500D02*
G36*
X323500Y80250D02*
G75*
G02*
X320730Y76266I-4250J0D01*
G01*
X334250D01*
Y80762D01*
X323469D01*
G75*
G02*
X323500Y80250I-4219J-510D01*
G01*
G37*
X338250Y80762D02*
G36*
X338250Y80762D02*
Y76266D01*
X341250D01*
Y80762D01*
X338250D01*
G37*
X345250D02*
G36*
X345250Y80762D02*
Y76266D01*
X375244D01*
G75*
G02*
X383256I4006J0D01*
G01*
X395244D01*
G75*
G02*
X403256I4006J0D01*
G01*
X425250D01*
Y80762D01*
X393256D01*
G75*
G02*
X385244I-4006J0D01*
G01*
X345250D01*
G37*
X53250Y85262D02*
G36*
X53250Y85262D02*
Y80762D01*
X62500D01*
Y81000D01*
X55000D01*
Y85262D01*
X53250D01*
G37*
X70000Y85250D02*
G36*
X70000Y85250D02*
Y80762D01*
X77250D01*
Y82240D01*
G75*
G02*
X70000Y85250I-3000J3011D01*
G01*
G75*
G02*
Y85262I4256J6D01*
G01*
Y85250D01*
G37*
X81250Y85262D02*
G36*
X81250Y85262D02*
Y80762D01*
X115031D01*
G75*
G02*
X123469I4219J-512D01*
G01*
X145031D01*
G75*
G02*
X153000Y82250I4219J-512D01*
G01*
X160000D01*
Y84500D01*
X168500D01*
Y80762D01*
X185031D01*
G75*
G02*
X193469I4219J-512D01*
G01*
X215031D01*
G75*
G02*
X216240Y83250I4219J-511D01*
G01*
X194250D01*
G75*
G02*
X192834Y83837I0J2000D01*
G01*
X191410Y85262D01*
X108500D01*
G75*
G02*
Y85250I-4256J-6D01*
G01*
G75*
G02*
X100000I-4250J0D01*
G01*
G75*
G02*
Y85262I4256J6D01*
G01*
X81250D01*
G37*
X241250D02*
G36*
X241250Y85262D02*
Y83078D01*
X243567Y80762D01*
X255031D01*
G75*
G02*
X259250Y84500I4219J-512D01*
G01*
G75*
G02*
X263469Y80762I0J-4250D01*
G01*
X265031D01*
G75*
G02*
X273000Y82250I4219J-512D01*
G01*
X275500D01*
G75*
G02*
X283469Y80762I3750J-2000D01*
G01*
X285031D01*
G75*
G02*
X289250Y84500I4219J-512D01*
G01*
G75*
G02*
X290487Y84316I-2J-4259D01*
G01*
X291433Y85262D01*
X241250D01*
G37*
X293316Y81487D02*
G36*
X293316Y81487D02*
G75*
G02*
X293469Y80762I-4067J-1237D01*
G01*
X295031D01*
G75*
G02*
X299250Y84500I4219J-512D01*
G01*
G75*
G02*
X303000Y82250I0J-4249D01*
G01*
X305500D01*
G75*
G02*
X313469Y80762I3750J-2000D01*
G01*
X315031D01*
G75*
G02*
X317250Y84000I4219J-512D01*
G01*
Y84422D01*
X316410Y85262D01*
X296250D01*
Y85250D01*
G75*
G02*
X295663Y83834I-2000J0D01*
G01*
X293316Y81487D01*
G37*
X321250Y85250D02*
G36*
X321250Y85250D02*
Y84000D01*
G75*
G02*
X323469Y80762I-2000J-3750D01*
G01*
X334250D01*
Y85262D01*
X321250D01*
G75*
G02*
Y85250I-2002J-6D01*
G01*
G37*
X338250Y85262D02*
G36*
X338250Y85262D02*
Y80762D01*
X341250D01*
Y85262D01*
X338250D01*
G37*
X345250D02*
G36*
X345250Y85262D02*
Y80762D01*
X385244D01*
G75*
G02*
X393256I4006J0D01*
G01*
X425250D01*
Y85262D01*
X403256D01*
G75*
G02*
X395244I-4006J0D01*
G01*
X383256D01*
G75*
G02*
X375244I-4006J0D01*
G01*
X345250D01*
G37*
X53250Y94250D02*
G36*
X53250Y94250D02*
Y85262D01*
X55000D01*
Y89500D01*
X62500D01*
Y91000D01*
X55000D01*
Y94250D01*
X53250D01*
G37*
X70000D02*
G36*
X70000Y94250D02*
Y85262D01*
G75*
G02*
X77250Y88260I4250J-12D01*
G01*
Y94250D01*
X70000D01*
G37*
X81250D02*
G36*
X81250Y94250D02*
Y85262D01*
X100000D01*
G75*
G02*
X108500I4250J-12D01*
G01*
X191410D01*
X190487Y86184D01*
G75*
G02*
X185500Y88250I-1237J4066D01*
G01*
X172250D01*
G75*
G02*
X170834Y88837I0J2000D01*
G01*
X168500Y91172D01*
Y86000D01*
X160000D01*
Y88250D01*
X153000D01*
G75*
G02*
X145000Y90250I-3750J2000D01*
G01*
G75*
G02*
X147813Y94250I4250J0D01*
G01*
X120686D01*
G75*
G02*
X123500Y90250I-1436J-4000D01*
G01*
G75*
G02*
X115000I-4250J0D01*
G01*
G75*
G02*
X117814Y94250I4250J0D01*
G01*
X81250D01*
G37*
X150686D02*
G36*
X150686Y94250D02*
G75*
G02*
X153000Y92250I-1436J-4000D01*
G01*
X160000D01*
Y94250D01*
X150686D01*
G37*
X171250D02*
G36*
X171250Y94250D02*
Y94078D01*
X173078Y92250D01*
X185500D01*
G75*
G02*
X187813Y94250I3750J-2000D01*
G01*
X171250D01*
G37*
X193500Y90250D02*
G36*
X193500Y90250D02*
G75*
G02*
X193316Y89013I-4250J0D01*
G01*
X195078Y87250D01*
X216240D01*
G75*
G02*
X215000Y90250I3010J3000D01*
G01*
G75*
G02*
X217814Y94250I4250J0D01*
G01*
X190687D01*
G75*
G02*
X193500Y90250I-1437J-4000D01*
G01*
G37*
X220686Y94250D02*
G36*
X220686Y94250D02*
G75*
G02*
X223500Y90250I-1436J-4000D01*
G01*
G75*
G02*
X222260Y87250I-4250J0D01*
G01*
X231197D01*
G75*
G02*
X237250Y87329I3053J-2000D01*
G01*
Y94250D01*
X220686D01*
G37*
X241250D02*
G36*
X241250Y94250D02*
Y85262D01*
X291433D01*
X292250Y86078D01*
Y94250D01*
X263500D01*
Y90000D01*
X255000D01*
Y94250D01*
X253500D01*
Y90000D01*
X245000D01*
Y94250D01*
X241250D01*
G37*
X296250D02*
G36*
X296250Y94250D02*
Y85262D01*
X316410D01*
X312837Y88834D01*
G75*
G02*
X312250Y90250I1413J1416D01*
G01*
Y94250D01*
X296250D01*
G37*
X316250D02*
G36*
X316250Y94250D02*
Y91078D01*
X320663Y86666D01*
G75*
G02*
X321250Y85262I-1413J-1416D01*
G01*
X334250D01*
Y92422D01*
X332422Y94250D01*
X316250D01*
G37*
X338250Y93250D02*
G36*
X338250Y93250D02*
Y85262D01*
X341250D01*
Y94250D01*
X337982D01*
G75*
G02*
X338250Y93250I-1732J-1000D01*
G01*
G37*
X345250Y86000D02*
G36*
X345250Y86000D02*
Y85262D01*
X375244D01*
G75*
G02*
X383256I4006J0D01*
G01*
X395244D01*
G75*
G02*
X396157Y87808I4009J-1D01*
G01*
X392749D01*
G75*
G02*
X385244Y89758I-3499J1950D01*
G01*
G75*
G02*
X392749Y91708I4006J0D01*
G01*
X396161D01*
G75*
G02*
X395244Y94250I3089J2550D01*
G01*
X383256D01*
G75*
G02*
X375244I-4006J8D01*
G01*
X353500D01*
Y86000D01*
X345250D01*
G37*
X403256Y94250D02*
G36*
X403256Y94250D02*
G75*
G02*
X402339Y91708I-4007J9D01*
G01*
X425250D01*
Y94250D01*
X403256D01*
G37*
X402343Y87808D02*
G36*
X402343Y87808D02*
G75*
G02*
X403256Y85262I-3095J-2547D01*
G01*
X425250D01*
Y87808D01*
X402343D01*
G37*
X53250Y100250D02*
G36*
X53250Y100250D02*
Y94250D01*
X55000D01*
Y99500D01*
X62500D01*
Y100250D01*
X53250D01*
G37*
X70000D02*
G36*
X70000Y100250D02*
Y94250D01*
X77250D01*
Y94422D01*
X75487Y96184D01*
G75*
G02*
X70000Y100250I-1237J4066D01*
G01*
G37*
X78500D02*
G36*
X78500Y100250D02*
G75*
G02*
X78316Y99013I-4259J2D01*
G01*
X80663Y96666D01*
G75*
G02*
X81250Y95250I-1413J-1416D01*
G01*
Y94250D01*
X117814D01*
G75*
G02*
X120686I1436J-4000D01*
G01*
X147813D01*
G75*
G02*
X150686I1437J-4000D01*
G01*
X160000D01*
Y94500D01*
X167250D01*
Y96000D01*
X160000D01*
Y98250D01*
X153000D01*
G75*
G02*
X145000Y100250I-3750J2000D01*
G01*
X123500D01*
G75*
G02*
X115000I-4250J0D01*
G01*
X108500D01*
G75*
G02*
X100000I-4250J0D01*
G01*
X78500D01*
G37*
X171250D02*
G36*
X171250Y100250D02*
Y94250D01*
X187813D01*
G75*
G02*
X190687I1437J-4000D01*
G01*
X217814D01*
G75*
G02*
X220686I1436J-4000D01*
G01*
X237250D01*
Y100250D01*
X223500D01*
G75*
G02*
X215000I-4250J0D01*
G01*
X193500D01*
G75*
G02*
X185000I-4250J0D01*
G01*
X171250D01*
G37*
X241250D02*
G36*
X241250Y100250D02*
Y94250D01*
X245000D01*
Y98500D01*
X253500D01*
Y94250D01*
X255000D01*
Y98500D01*
X263500D01*
Y94250D01*
X292250D01*
Y100250D01*
X241250D01*
G37*
X296250D02*
G36*
X296250Y100250D02*
Y94250D01*
X312250D01*
Y100250D01*
X296250D01*
G37*
X316250D02*
G36*
X316250Y100250D02*
Y94250D01*
X332422D01*
X326422Y100250D01*
X316250D01*
G37*
X332078D02*
G36*
X332078Y100250D02*
X337663Y94666D01*
G75*
G02*
X337982Y94250I-1413J-1415D01*
G01*
X341250D01*
G75*
G02*
X341837Y95666I2000J0D01*
G01*
X345000Y98828D01*
Y100250D01*
X332078D01*
G37*
X347828Y96000D02*
G36*
X347828Y96000D02*
X346328Y94500D01*
X353500D01*
Y94250D01*
X375244D01*
G75*
G02*
Y94258I4028J4D01*
G01*
G75*
G02*
X383256I4006J0D01*
G01*
G75*
G02*
Y94250I-4028J-4D01*
G01*
X395244D01*
G75*
G02*
Y94258I4028J4D01*
G01*
G75*
G02*
X400290Y98126I4006J0D01*
G01*
X402250Y100086D01*
Y100250D01*
X401900D01*
G75*
G02*
X396600I-2650J3004D01*
G01*
X392966D01*
G75*
G02*
X393256Y98754I-3716J-1496D01*
G01*
G75*
G02*
X385244I-4006J0D01*
G01*
G75*
G02*
X385534Y100250I4006J0D01*
G01*
X381900D01*
G75*
G02*
X376600I-2650J3004D01*
G01*
X353500D01*
Y96000D01*
X347828D01*
G37*
X403256Y94258D02*
G36*
X403256Y94258D02*
G75*
G02*
Y94250I-4015J-4D01*
G01*
X425250D01*
Y100250D01*
X406250D01*
Y99258D01*
G75*
G02*
X405663Y97842I-2000J0D01*
G01*
X403119Y95298D01*
G75*
G02*
X403256Y94258I-3870J-1040D01*
G01*
G37*
X53250Y110250D02*
G36*
X53250Y110250D02*
Y100250D01*
X62500D01*
Y110250D01*
X53250D01*
G37*
X70000D02*
G36*
X70000Y110250D02*
Y100250D01*
G75*
G02*
X78500I4250J0D01*
G01*
X100000D01*
G75*
G02*
X108500I4250J0D01*
G01*
X115000D01*
G75*
G02*
X123500I4250J0D01*
G01*
X145000D01*
G75*
G02*
X153000Y102250I4250J0D01*
G01*
X160000D01*
Y104500D01*
X167250D01*
Y106000D01*
X160000D01*
Y108250D01*
X153000D01*
G75*
G02*
X145000Y110250I-3750J2000D01*
G01*
X123500D01*
G75*
G02*
X115000I-4250J0D01*
G01*
X108500D01*
G75*
G02*
X100000I-4250J0D01*
G01*
X78500D01*
G75*
G02*
X70000I-4250J0D01*
G01*
G37*
X171250D02*
G36*
X171250Y110250D02*
Y100250D01*
X185000D01*
G75*
G02*
X193500I4250J0D01*
G01*
X215000D01*
G75*
G02*
X223500I4250J0D01*
G01*
X237250D01*
Y106000D01*
X235000D01*
Y110250D01*
X223500D01*
G75*
G02*
X215000I-4250J0D01*
G01*
X193500D01*
G75*
G02*
X185000I-4250J0D01*
G01*
X171250D01*
G37*
X241250Y106000D02*
G36*
X241250Y106000D02*
Y100250D01*
X292250D01*
Y107240D01*
G75*
G02*
X285000Y110250I-3000J3010D01*
G01*
Y110250D01*
X283500D01*
G75*
G02*
X275000I-4250J0D01*
G01*
X273500D01*
G75*
G02*
X265000I-4250J0D01*
G01*
X263500D01*
G75*
G02*
X255000I-4250J0D01*
G01*
X253500D01*
G75*
G02*
X245000I-4250J0D01*
G01*
X243500D01*
Y106000D01*
X241250D01*
G37*
X296250Y107240D02*
G36*
X296250Y107240D02*
Y100250D01*
X312250D01*
Y107240D01*
G75*
G02*
X305000Y110250I-3000J3010D01*
G01*
Y110250D01*
X303500D01*
Y110250D01*
G75*
G02*
X296250Y107240I-4250J0D01*
G01*
G37*
X316250D02*
G36*
X316250Y107240D02*
Y100250D01*
X326422D01*
X320487Y106184D01*
G75*
G02*
X316250Y107240I-1238J4065D01*
G01*
G37*
X323500Y110250D02*
G36*
X323500Y110250D02*
G75*
G02*
X323316Y109013I-4250J0D01*
G01*
X332078Y100250D01*
X345000D01*
Y104500D01*
X353500D01*
Y100250D01*
X376600D01*
G75*
G02*
X375244Y103254I2650J3004D01*
G01*
G75*
G02*
X383256I4006J0D01*
G01*
G75*
G02*
X381900Y100250I-4006J0D01*
G01*
X385534D01*
G75*
G02*
X392966I3716J-1496D01*
G01*
X396600D01*
G75*
G02*
X395244Y103254I2650J3004D01*
G01*
G75*
G02*
X402250Y105909I4006J0D01*
G01*
Y109595D01*
G75*
G02*
X395779Y110250I-3000J2655D01*
G01*
X392380D01*
G75*
G02*
X393256Y107750I-3130J-2500D01*
G01*
G75*
G02*
X385244I-4006J0D01*
G01*
G75*
G02*
X386120Y110250I4006J0D01*
G01*
X382721D01*
G75*
G02*
X375779I-3471J2000D01*
G01*
X333500D01*
G75*
G02*
X325000I-4250J0D01*
G01*
X323500D01*
G37*
X401900Y100250D02*
G36*
X401900Y100250D02*
X402250D01*
Y100599D01*
G75*
G02*
X401900Y100250I-3000J2654D01*
G01*
G37*
X406250Y110250D02*
G36*
X406250Y110250D02*
Y100250D01*
X425250D01*
Y110250D01*
X406250D01*
G37*
X53250Y120250D02*
G36*
X53250Y120250D02*
Y110250D01*
X62500D01*
Y110697D01*
X62197Y111000D01*
X55000D01*
Y119500D01*
X63500D01*
Y118992D01*
G75*
G02*
X65904Y117900I-250J-3743D01*
G01*
X68900Y114904D01*
G75*
G02*
X70000Y112251I-2648J-2653D01*
G01*
G75*
G02*
Y112250I-4511J0D01*
G01*
Y110250D01*
G75*
G02*
X78500I4250J0D01*
G01*
X100000D01*
G75*
G02*
X105487Y114316I4250J0D01*
G01*
X107834Y116663D01*
G75*
G02*
X109250Y117250I1416J-1413D01*
G01*
X115000D01*
Y120250D01*
X108500D01*
G75*
G02*
X100000I-4250J0D01*
G01*
X78500D01*
G75*
G02*
X70000I-4250J0D01*
G01*
X53250D01*
G37*
X108316Y111487D02*
G36*
X108316Y111487D02*
G75*
G02*
X108500Y110250I-4075J-1239D01*
G01*
X115000D01*
G75*
G02*
X116240Y113250I4250J0D01*
G01*
X110078D01*
X108316Y111487D01*
G37*
X123500Y120250D02*
G36*
X123500Y120250D02*
Y117250D01*
X146240D01*
G75*
G02*
X145000Y120250I3010J3000D01*
G01*
X123500D01*
G37*
Y110250D02*
G36*
X123500Y110250D02*
X145000D01*
G75*
G02*
X146240Y113250I4250J0D01*
G01*
X122260D01*
G75*
G02*
X123500Y110250I-3010J-3000D01*
G01*
G37*
X153500Y120250D02*
G36*
X153500Y120250D02*
G75*
G02*
X152260Y117250I-4250J0D01*
G01*
X158422D01*
X160000Y118828D01*
Y120250D01*
X153500D01*
G37*
X168500D02*
G36*
X168500Y120250D02*
Y118828D01*
X170663Y116666D01*
G75*
G02*
X171250Y115250I-1413J-1416D01*
G01*
Y110250D01*
X185000D01*
G75*
G02*
X193500I4250J0D01*
G01*
X215000D01*
G75*
G02*
X223500I4250J0D01*
G01*
X235000D01*
Y114500D01*
X243500D01*
Y110250D01*
X245000D01*
G75*
G02*
X253500I4250J0D01*
G01*
X255000D01*
G75*
G02*
X263500I4250J0D01*
G01*
X265000D01*
G75*
G02*
X273500I4250J0D01*
G01*
X275000D01*
G75*
G02*
X283500I4250J0D01*
G01*
X285000D01*
Y110250D01*
G75*
G02*
X292250Y113260I4250J0D01*
G01*
Y120250D01*
X223500D01*
G75*
G02*
X215000I-4250J0D01*
G01*
X193500D01*
Y116000D01*
X185000D01*
Y120250D01*
X168500D01*
G37*
X296250D02*
G36*
X296250Y120250D02*
Y113260D01*
G75*
G02*
X303500Y110250I3000J-3010D01*
G01*
Y110250D01*
X305000D01*
Y110250D01*
G75*
G02*
X312250Y113260I4250J0D01*
G01*
Y120250D01*
X296250D01*
G37*
X316250D02*
G36*
X316250Y120250D02*
Y113260D01*
G75*
G02*
X323500Y110250I3000J-3010D01*
G01*
Y110250D01*
X325000D01*
G75*
G02*
X333500I4250J0D01*
G01*
X375779D01*
G75*
G02*
X375244Y112250I3471J2000D01*
G01*
G75*
G02*
X383256I4006J0D01*
G01*
G75*
G02*
X382721Y110250I-4006J0D01*
G01*
X386120D01*
G75*
G02*
X392380I3130J-2500D01*
G01*
X395779D01*
G75*
G02*
X395244Y112250I3471J2000D01*
G01*
G75*
G02*
X402250Y114905I4006J0D01*
G01*
Y120250D01*
X391192D01*
G75*
G02*
X393256Y116746I-1942J-3504D01*
G01*
G75*
G02*
X385244I-4006J0D01*
G01*
G75*
G02*
X387308Y120250I4006J0D01*
G01*
X316250D01*
G37*
X406250D02*
G36*
X406250Y120250D02*
Y110250D01*
X425250D01*
Y120250D01*
X406250D01*
G37*
X53250Y121500D02*
G36*
X53250Y121500D02*
Y120250D01*
X70000D01*
Y120250D01*
G75*
G02*
X72250Y124000I4249J0D01*
G01*
Y140250D01*
X70957D01*
G75*
G02*
X57005I-6976J5282D01*
G01*
X53250D01*
Y129000D01*
X55000D01*
Y129500D01*
X63500D01*
Y121000D01*
X55000D01*
Y121500D01*
X53250D01*
G37*
X76250Y140250D02*
G36*
X76250Y140250D02*
Y124000D01*
G75*
G02*
X78500Y120250I-1999J-3750D01*
G01*
Y120250D01*
X100000D01*
G75*
G02*
X108500I4250J0D01*
G01*
X115000D01*
Y124500D01*
X123500D01*
Y120250D01*
X145000D01*
G75*
G02*
X153500I4250J0D01*
G01*
X160000D01*
Y124500D01*
X168500D01*
Y120250D01*
X185000D01*
Y124500D01*
X193500D01*
Y120250D01*
X215000D01*
G75*
G02*
X223500I4250J0D01*
G01*
X292250D01*
Y137240D01*
G75*
G02*
X285000Y140250I-3000J3010D01*
G01*
Y140250D01*
X283500D01*
G75*
G02*
X275000I-4250J0D01*
G01*
X273500D01*
G75*
G02*
X265000I-4250J0D01*
G01*
X263500D01*
G75*
G02*
X259250Y136000I-4250J0D01*
G01*
G75*
G02*
X255000Y140250I0J4250D01*
G01*
X253500D01*
Y140250D01*
G75*
G02*
X248013Y136184I-4250J0D01*
G01*
X241666Y129837D01*
G75*
G02*
X240250Y129250I-1416J1413D01*
G01*
X215303D01*
G75*
G02*
X208600Y131250I-3053J2000D01*
G01*
G75*
G02*
X215303Y133250I3650J0D01*
G01*
X239422D01*
X245184Y139013D01*
G75*
G02*
X245000Y140250I4075J1239D01*
G01*
X243500D01*
G75*
G02*
X235000I-4250J0D01*
G01*
X223500D01*
Y136000D01*
X215000D01*
Y140250D01*
X213500D01*
Y136000D01*
X205000D01*
Y140250D01*
X196500D01*
Y136000D01*
X188000D01*
Y140250D01*
X186500D01*
Y136000D01*
X178000D01*
Y140250D01*
X168500D01*
Y136000D01*
X160000D01*
Y140250D01*
X158500D01*
Y136000D01*
X150000D01*
Y140250D01*
X76250D01*
G37*
X296250Y137240D02*
G36*
X296250Y137240D02*
Y120250D01*
X312250D01*
Y137240D01*
G75*
G02*
X305000Y140250I-3000J3010D01*
G01*
Y140250D01*
X303500D01*
Y140250D01*
G75*
G02*
X296250Y137240I-4250J0D01*
G01*
G37*
X316250D02*
G36*
X316250Y137240D02*
Y120250D01*
X387308D01*
G75*
G02*
X391192I1942J-3504D01*
G01*
X402250D01*
Y140250D01*
X399071D01*
G75*
G02*
X379429I-9821J4244D01*
G01*
X333500D01*
G75*
G02*
X325000I-4250J0D01*
G01*
X323500D01*
Y140250D01*
G75*
G02*
X316250Y137240I-4250J0D01*
G01*
G37*
X406250Y140250D02*
G36*
X406250Y140250D02*
Y120250D01*
X425250D01*
Y140250D01*
X406250D01*
G37*
X53250Y155250D02*
G36*
X53250Y155250D02*
Y140250D01*
X57005D01*
G75*
G02*
X55231Y145532I6976J5282D01*
G01*
G75*
G02*
X72250Y148393I8750J0D01*
G01*
Y155250D01*
X53250D01*
G37*
X70957Y140250D02*
G36*
X70957Y140250D02*
X72250D01*
Y142670D01*
G75*
G02*
X70957Y140250I-8269J2861D01*
G01*
G37*
X76250Y155250D02*
G36*
X76250Y155250D02*
Y140250D01*
X150000D01*
Y144500D01*
X158500D01*
Y140250D01*
X160000D01*
Y144500D01*
X168500D01*
Y140250D01*
X178000D01*
Y144500D01*
X186500D01*
Y140250D01*
X188000D01*
Y144500D01*
X190250D01*
Y151422D01*
X186422Y155250D01*
X183500D01*
G75*
G02*
X175000I-4250J0D01*
G01*
X76250D01*
G37*
X192078D02*
G36*
X192078Y155250D02*
X193663Y153666D01*
G75*
G02*
X194250Y152250I-1413J-1416D01*
G01*
Y144500D01*
X196500D01*
Y140250D01*
X205000D01*
Y144500D01*
X213500D01*
Y140250D01*
X215000D01*
Y144500D01*
X223500D01*
Y140250D01*
X235000D01*
G75*
G02*
X243500I4250J0D01*
G01*
X245000D01*
G75*
G02*
X253500I4250J0D01*
G01*
X255000D01*
G75*
G02*
X257250Y144000I4250J0D01*
G01*
Y155250D01*
X213500D01*
G75*
G02*
X205000I-4250J0D01*
G01*
X192078D01*
G37*
X261250D02*
G36*
X261250Y155250D02*
Y144000D01*
G75*
G02*
X263500Y140250I-2000J-3750D01*
G01*
X265000D01*
G75*
G02*
X265184Y141487I4259J-2D01*
G01*
X262837Y143834D01*
G75*
G02*
X262250Y145250I1413J1416D01*
G01*
Y155250D01*
X261250D01*
G37*
X266250D02*
G36*
X266250Y155250D02*
Y146078D01*
X268013Y144316D01*
G75*
G02*
X273500Y140250I1237J-4066D01*
G01*
X275000D01*
G75*
G02*
X283500I4250J0D01*
G01*
X285000D01*
Y140250D01*
G75*
G02*
X292250Y143260I4250J0D01*
G01*
Y155250D01*
X266250D01*
G37*
X296250D02*
G36*
X296250Y155250D02*
Y143260D01*
G75*
G02*
X303500Y140250I3000J-3010D01*
G01*
Y140250D01*
X305000D01*
Y140250D01*
G75*
G02*
X312250Y143260I4250J0D01*
G01*
Y155250D01*
X296250D01*
G37*
X316250D02*
G36*
X316250Y155250D02*
Y143260D01*
G75*
G02*
X323500Y140250I3000J-3010D01*
G01*
Y140250D01*
X325000D01*
G75*
G02*
X333500I4250J0D01*
G01*
X379429D01*
G75*
G02*
X378551Y144494I9821J4244D01*
G01*
G75*
G02*
X399949I10699J0D01*
G01*
G75*
G02*
X399071Y140250I-10699J0D01*
G01*
X402250D01*
Y147422D01*
X394422Y155250D01*
X349760D01*
G75*
G02*
X349900Y154250I-3511J-1000D01*
G01*
G75*
G02*
X342750Y153215I-3650J0D01*
G01*
G75*
G02*
X335750I-3500J1035D01*
G01*
G75*
G02*
X328600Y154250I-3500J1036D01*
G01*
G75*
G02*
X328677Y154995I3650J0D01*
G01*
X328422Y155250D01*
X316250D01*
G37*
X400078D02*
G36*
X400078Y155250D02*
X405663Y149666D01*
G75*
G02*
X406250Y148250I-1413J-1416D01*
G01*
Y140250D01*
X425250D01*
Y155250D01*
X400078D01*
G37*
X53250Y170250D02*
G36*
X53250Y170250D02*
Y155250D01*
X72250D01*
Y159422D01*
X63500Y168172D01*
Y161000D01*
X55000D01*
Y169500D01*
X62172D01*
X61422Y170250D01*
X53250D01*
G37*
X67078D02*
G36*
X67078Y170250D02*
X75663Y161666D01*
G75*
G02*
X76250Y160250I-1413J-1416D01*
G01*
Y155250D01*
X175000D01*
G75*
G02*
X183500I4250J0D01*
G01*
X186422D01*
X178422Y163250D01*
X119946D01*
G75*
G02*
X112047Y165250I-3696J2000D01*
G01*
Y165250D01*
Y165250D01*
G75*
G02*
X119946Y167250I4203J0D01*
G01*
X179250D01*
G75*
G02*
X180666Y166663I0J-2000D01*
G01*
X192078Y155250D01*
X205000D01*
G75*
G02*
X213500I4250J0D01*
G01*
X257250D01*
Y159422D01*
X252837Y163834D01*
G75*
G02*
X252250Y165250I1413J1416D01*
G01*
Y166000D01*
X245000D01*
Y170250D01*
X243500D01*
Y166000D01*
X235000D01*
Y170250D01*
X233500D01*
Y166000D01*
X225000D01*
Y170250D01*
X67078D01*
G37*
X256328Y166000D02*
G36*
X256328Y166000D02*
X260663Y161666D01*
G75*
G02*
X261250Y160250I-1413J-1416D01*
G01*
Y155250D01*
X262250D01*
Y166000D01*
X256328D01*
G37*
X266250D02*
G36*
X266250Y166000D02*
Y155250D01*
X292250D01*
Y166000D01*
X285000D01*
Y170250D01*
X283500D01*
Y166000D01*
X275000D01*
Y170250D01*
X273500D01*
Y166000D01*
X266250D01*
G37*
X296250D02*
G36*
X296250Y166000D02*
Y155250D01*
X312250D01*
Y165250D01*
G75*
G02*
X312396Y166000I2008J-2D01*
G01*
X305000D01*
Y170250D01*
X303500D01*
Y166000D01*
X296250D01*
G37*
X313500Y170250D02*
G36*
X313500Y170250D02*
Y167328D01*
X315000Y168828D01*
Y170250D01*
X313500D01*
G37*
X316250Y164422D02*
G36*
X316250Y164422D02*
Y155250D01*
X328422D01*
X327837Y155834D01*
G75*
G02*
X327250Y157250I1413J1416D01*
G01*
Y166000D01*
X325000D01*
Y170250D01*
X323500D01*
Y166000D01*
X317828D01*
X316250Y164422D01*
G37*
X331250Y166000D02*
G36*
X331250Y166000D02*
Y158078D01*
X331505Y157823D01*
G75*
G02*
X335750Y155285I744J-3574D01*
G01*
G75*
G02*
X337250Y157303I3500J-1036D01*
G01*
Y166000D01*
X335000D01*
Y170250D01*
X333500D01*
Y166000D01*
X331250D01*
G37*
X341250D02*
G36*
X341250Y166000D02*
Y157303D01*
G75*
G02*
X342750Y155285I-2000J-3054D01*
G01*
G75*
G02*
X344251Y157304I3499J-1035D01*
G01*
G75*
G02*
X344837Y158666I2000J-54D01*
G01*
X352172Y166000D01*
X345000D01*
Y170250D01*
X343500D01*
Y166000D01*
X341250D01*
G37*
X348744Y156915D02*
G36*
X348744Y156915D02*
G75*
G02*
X349760Y155250I-2494J-2665D01*
G01*
X394422D01*
X392837Y156834D01*
G75*
G02*
X392250Y158250I1413J1416D01*
G01*
Y166000D01*
X385000D01*
Y170250D01*
X383500D01*
Y166000D01*
X375000D01*
Y170250D01*
X373500D01*
Y166000D01*
X365000D01*
Y170250D01*
X363500D01*
Y166000D01*
X357828D01*
X348744Y156915D01*
G37*
X353500Y170250D02*
G36*
X353500Y170250D02*
Y167328D01*
X355000Y168828D01*
Y170250D01*
X353500D01*
G37*
X396250Y166000D02*
G36*
X396250Y166000D02*
Y159078D01*
X400078Y155250D01*
X425250D01*
Y170250D01*
X423500D01*
Y166000D01*
X415000D01*
Y170250D01*
X413500D01*
Y166000D01*
X405000D01*
Y170250D01*
X403500D01*
Y166000D01*
X396250D01*
G37*
X53250Y175250D02*
G36*
X53250Y175250D02*
Y170250D01*
X61422D01*
X60672Y171000D01*
X55000D01*
Y175250D01*
X53250D01*
G37*
X64078Y173250D02*
G36*
X64078Y173250D02*
X67078Y170250D01*
X225000D01*
Y174500D01*
X233500D01*
Y170250D01*
X235000D01*
Y174500D01*
X243500D01*
Y170250D01*
X245000D01*
Y174500D01*
X252250D01*
Y175250D01*
X213500D01*
G75*
G02*
X205000I-4250J0D01*
G01*
X183500D01*
G75*
G02*
X175000I-4250J0D01*
G01*
X152078D01*
X150666Y173837D01*
G75*
G02*
X149250Y173250I-1416J1413D01*
G01*
X64078D01*
G37*
X273500Y174396D02*
G36*
X273500Y174396D02*
Y170250D01*
X275000D01*
Y174250D01*
X274250D01*
G75*
G02*
X273500Y174396I2J2008D01*
G01*
G37*
X283500Y174250D02*
G36*
X283500Y174250D02*
Y170250D01*
X285000D01*
Y174250D01*
X283500D01*
G37*
X295982Y175250D02*
G36*
X295982Y175250D02*
G75*
G02*
X296234Y174500I-1731J-1000D01*
G01*
X303500D01*
Y170250D01*
X305000D01*
Y174500D01*
X313500D01*
Y170250D01*
X315000D01*
Y174500D01*
X323500D01*
Y170250D01*
X325000D01*
Y174500D01*
X333500D01*
Y170250D01*
X335000D01*
Y174500D01*
X343500D01*
Y170250D01*
X345000D01*
Y174500D01*
X353500D01*
Y170250D01*
X355000D01*
Y174500D01*
X363500D01*
Y170250D01*
X365000D01*
Y174500D01*
X373500D01*
Y170250D01*
X375000D01*
Y174500D01*
X383500D01*
Y170250D01*
X385000D01*
Y174500D01*
X392172D01*
X391422Y175250D01*
X295982D01*
G37*
X396250D02*
G36*
X396250Y175250D02*
Y174500D01*
X403500D01*
Y170250D01*
X405000D01*
Y174500D01*
X406750D01*
Y175250D01*
X396250D01*
G37*
X411750D02*
G36*
X411750Y175250D02*
Y174500D01*
X413500D01*
Y170250D01*
X415000D01*
Y174500D01*
X415500D01*
Y175250D01*
X411750D01*
G37*
X423000D02*
G36*
X423000Y175250D02*
Y174500D01*
X423500D01*
Y170250D01*
X425250D01*
Y175250D01*
X423000D01*
G37*
X53250Y178947D02*
G36*
X53250Y178947D02*
Y175250D01*
X55000D01*
Y179500D01*
X63500D01*
Y177250D01*
X148422D01*
X156422Y185250D01*
X59553D01*
X53250Y178947D01*
G37*
X162078Y185250D02*
G36*
X162078Y185250D02*
X152078Y175250D01*
X175000D01*
G75*
G02*
X183500I4250J0D01*
G01*
X205000D01*
G75*
G02*
X213500I4250J0D01*
G01*
X252250D01*
Y185250D01*
X233500D01*
G75*
G02*
X225000I-4250J0D01*
G01*
X213500D01*
Y185250D01*
G75*
G02*
X207250Y181500I-4250J0D01*
G01*
X203250D01*
G75*
G02*
X200596Y182600I-1J3748D01*
G01*
X197947Y185250D01*
X183500D01*
G75*
G02*
X175000I-4250J0D01*
G01*
X162078D01*
G37*
X271250Y184197D02*
G36*
X271250Y184197D02*
Y182078D01*
X275078Y178250D01*
X292250D01*
G75*
G02*
X293666Y177663I0J-2000D01*
G01*
X295663Y175666D01*
G75*
G02*
X295982Y175250I-1411J-1415D01*
G01*
X391422D01*
X381422Y185250D01*
X272303D01*
G75*
G02*
X271250Y184197I-3054J2001D01*
G01*
G37*
X387078Y185250D02*
G36*
X387078Y185250D02*
X395663Y176666D01*
G75*
G02*
X396250Y175250I-1413J-1416D01*
G01*
X406750D01*
Y185215D01*
X406715Y185250D01*
X387078D01*
G37*
X411750D02*
G36*
X411750Y185250D02*
Y175250D01*
X415500D01*
Y185250D01*
X411750D01*
G37*
X423000D02*
G36*
X423000Y185250D02*
Y175250D01*
X425250D01*
Y185250D01*
X423000D01*
G37*
X64553Y190250D02*
G36*
X64553Y190250D02*
X59553Y185250D01*
X156422D01*
X161422Y190250D01*
X64553D01*
G37*
X167078D02*
G36*
X167078Y190250D02*
X162078Y185250D01*
X175000D01*
G75*
G02*
X180487Y189316I4250J0D01*
G01*
X181422Y190250D01*
X167078D01*
G37*
X183316Y186487D02*
G36*
X183316Y186487D02*
G75*
G02*
X183500Y185250I-4075J-1239D01*
G01*
X197947D01*
X196600Y186596D01*
G75*
G02*
X195500Y189249I2648J2653D01*
G01*
G75*
G02*
Y189250I5013J0D01*
G01*
Y190250D01*
X186250D01*
G75*
G02*
X185663Y188834I-2000J0D01*
G01*
X183316Y186487D01*
G37*
X203553Y190250D02*
G36*
X203553Y190250D02*
X204803Y189000D01*
X207250D01*
G75*
G02*
X213500Y185250I2000J-3750D01*
G01*
Y185250D01*
X225000D01*
G75*
G02*
X233500I4250J0D01*
G01*
X252250D01*
Y190250D01*
X203553D01*
G37*
X256250D02*
G36*
X256250Y190250D02*
Y188260D01*
G75*
G02*
X262250I3000J-3010D01*
G01*
Y190250D01*
X256250D01*
G37*
X266250D02*
G36*
X266250Y190250D02*
Y189329D01*
G75*
G02*
X267171Y190250I3000J-2079D01*
G01*
X266250D01*
G37*
X272900Y187250D02*
G36*
X272900Y187250D02*
G75*
G02*
X272303Y185250I-3651J0D01*
G01*
X381422D01*
X380487Y186184D01*
G75*
G02*
X375000Y190250I-1237J4066D01*
G01*
X368500D01*
G75*
G02*
X364250Y186000I-4250J0D01*
G01*
G75*
G02*
X360500Y188250I0J4249D01*
G01*
X358000D01*
G75*
G02*
X350500I-3750J2000D01*
G01*
X348000D01*
G75*
G02*
X340000Y190250I-3750J2000D01*
G01*
X333500D01*
G75*
G02*
X329250Y186000I-4250J0D01*
G01*
G75*
G02*
X325500Y188250I0J4249D01*
G01*
X323000D01*
G75*
G02*
X315500I-3750J2000D01*
G01*
X313000D01*
G75*
G02*
X305000Y190250I-3750J2000D01*
G01*
X298500D01*
G75*
G02*
X290500Y188250I-4250J0D01*
G01*
X288000D01*
G75*
G02*
X280000Y190250I-3750J2000D01*
G01*
X271329D01*
G75*
G02*
X272900Y187250I-2079J-3000D01*
G01*
G37*
X383500Y190250D02*
G36*
X383500Y190250D02*
G75*
G02*
X383316Y189013I-4259J2D01*
G01*
X387078Y185250D01*
X406715D01*
X405913Y186052D01*
G75*
G02*
X401000Y190250I-663J4198D01*
G01*
Y190250D01*
X393500D01*
G75*
G02*
X385000I-4250J0D01*
G01*
X383500D01*
G37*
X409500Y190250D02*
G36*
X409500Y190250D02*
G75*
G02*
X409448Y189587I-4245J0D01*
G01*
X411018Y188018D01*
G75*
G02*
X411750Y186251I-1766J-1767D01*
G01*
G75*
G02*
Y186250I-2820J0D01*
G01*
Y185250D01*
X415500D01*
Y190250D01*
X409500D01*
Y190250D01*
G37*
X423000Y190250D02*
G36*
X423000Y190250D02*
Y185250D01*
X425250D01*
Y190250D01*
X423000D01*
G37*
X69553Y195250D02*
G36*
X69553Y195250D02*
X64553Y190250D01*
X161422D01*
X166422Y195250D01*
X120452D01*
G75*
G02*
X120453Y195171I-4204J-81D01*
G01*
G75*
G02*
X116250Y190969I-4203J0D01*
G01*
G75*
G02*
X112047Y195171I0J4203D01*
G01*
G75*
G02*
X112048Y195250I4205J-3D01*
G01*
X69553D01*
G37*
X172078D02*
G36*
X172078Y195250D02*
X167078Y190250D01*
X181422D01*
X182250Y191078D01*
Y192240D01*
G75*
G02*
X175000Y195250I-3000J3011D01*
G01*
X172078D01*
G37*
X186250D02*
G36*
X186250Y195250D02*
Y190250D01*
X195500D01*
Y195250D01*
X186250D01*
G37*
X203000D02*
G36*
X203000Y195250D02*
Y190803D01*
X203553Y190250D01*
X252250D01*
Y192422D01*
X250422Y194250D01*
X247303D01*
G75*
G02*
X240740Y195250I-3053J2000D01*
G01*
X213500D01*
G75*
G02*
X205000I-4250J0D01*
G01*
X203000D01*
G37*
X255078D02*
G36*
X255078Y195250D02*
X255663Y194666D01*
G75*
G02*
X256250Y193250I-1413J-1416D01*
G01*
Y190250D01*
X262250D01*
Y195250D01*
X255078D01*
G37*
X266250D02*
G36*
X266250Y195250D02*
Y190250D01*
X267171D01*
G75*
G02*
X271329I2079J-3000D01*
G01*
X280000D01*
G75*
G02*
X288000Y192250I4250J0D01*
G01*
X290500D01*
G75*
G02*
X298500Y190250I3750J-2000D01*
G01*
X305000D01*
G75*
G02*
X313000Y192250I4250J0D01*
G01*
X315500D01*
G75*
G02*
X323000I3750J-2000D01*
G01*
X325500D01*
G75*
G02*
X329250Y194500I3750J-1999D01*
G01*
G75*
G02*
X333500Y190250I0J-4250D01*
G01*
X340000D01*
G75*
G02*
X348000Y192250I4250J0D01*
G01*
X350500D01*
G75*
G02*
X358000I3750J-2000D01*
G01*
X360500D01*
G75*
G02*
X364250Y194500I3750J-1999D01*
G01*
G75*
G02*
X368500Y190250I0J-4250D01*
G01*
X375000D01*
G75*
G02*
X383500I4250J0D01*
G01*
X385000D01*
G75*
G02*
X393500I4250J0D01*
G01*
X401000D01*
G75*
G02*
X409500I4250J0D01*
G01*
X415500D01*
Y195250D01*
X266250D01*
G37*
X423000D02*
G36*
X423000Y195250D02*
Y190250D01*
X425250D01*
Y195250D01*
X423000D01*
G37*
X79553Y205250D02*
G36*
X79553Y205250D02*
X69553Y195250D01*
X112048D01*
G75*
G02*
X114250Y198868I4202J-79D01*
G01*
Y200924D01*
G75*
G02*
X112047Y204620I2000J3696D01*
G01*
G75*
G02*
X112095Y205250I4203J-1D01*
G01*
X79553D01*
G37*
X118250Y200924D02*
G36*
X118250Y200924D02*
Y198868D01*
G75*
G02*
X120452Y195250I-2000J-3696D01*
G01*
X166422D01*
X175000Y203828D01*
Y205250D01*
X120405D01*
G75*
G02*
X120453Y204620I-4155J-631D01*
G01*
G75*
G02*
X118250Y200924I-4203J0D01*
G01*
G37*
X172078Y195250D02*
G36*
X172078Y195250D02*
X175000D01*
G75*
G02*
X182250Y198260I4250J0D01*
G01*
Y201000D01*
X177828D01*
X172078Y195250D01*
G37*
X186250Y205250D02*
G36*
X186250Y205250D02*
Y195250D01*
X195500D01*
Y205250D01*
X186250D01*
G37*
X203000D02*
G36*
X203000Y205250D02*
Y195250D01*
X205000D01*
G75*
G02*
X213500I4250J0D01*
G01*
X240740D01*
G75*
G02*
X240600Y196250I3511J1000D01*
G01*
G75*
G02*
X247303Y198250I3650J0D01*
G01*
X251250D01*
G75*
G02*
X252666Y197663I0J-2000D01*
G01*
X255078Y195250D01*
X262250D01*
Y198422D01*
X260422Y200250D01*
X237303D01*
G75*
G02*
X230600Y202250I-3053J2000D01*
G01*
G75*
G02*
X232171Y205250I3650J0D01*
G01*
X213500D01*
G75*
G02*
X205000I-4250J0D01*
G01*
X203000D01*
G37*
X236329D02*
G36*
X236329Y205250D02*
G75*
G02*
X237303Y204250I-2079J-3000D01*
G01*
X261250D01*
G75*
G02*
X262666Y203663I0J-2000D01*
G01*
X265663Y200666D01*
G75*
G02*
X266250Y199250I-1413J-1416D01*
G01*
Y195250D01*
X415500D01*
Y196000D01*
X415000D01*
Y204500D01*
X423500D01*
Y196000D01*
X423000D01*
Y195250D01*
X425250D01*
Y205250D01*
X236329D01*
G37*
X94553Y220250D02*
G36*
X94553Y220250D02*
X79553Y205250D01*
X112095D01*
G75*
G02*
X120405I4155J-630D01*
G01*
X175000D01*
Y209500D01*
X182250D01*
Y214422D01*
X176422Y220250D01*
X94553D01*
G37*
X182078D02*
G36*
X182078Y220250D02*
X185663Y216666D01*
G75*
G02*
X186250Y215250I-1413J-1416D01*
G01*
Y205250D01*
X195500D01*
Y220250D01*
X182078D01*
G37*
X203000D02*
G36*
X203000Y220250D02*
Y205250D01*
X205000D01*
G75*
G02*
X213500I4250J0D01*
G01*
X232171D01*
G75*
G02*
X236329I2079J-3000D01*
G01*
X425250D01*
Y206500D01*
X423500D01*
Y206000D01*
X415000D01*
Y207763D01*
G75*
G02*
X413482Y208482I251J2489D01*
G01*
X405913Y216052D01*
G75*
G02*
X405250Y216000I-662J4193D01*
G01*
G75*
G02*
X401000Y220250I0J4250D01*
G01*
X393500D01*
G75*
G02*
X385000I-4250J0D01*
G01*
X383500D01*
G75*
G02*
X375000I-4250J0D01*
G01*
X368500D01*
G75*
G02*
X360000I-4250J0D01*
G01*
X358500D01*
G75*
G02*
X350000I-4250J0D01*
G01*
X348500D01*
G75*
G02*
X340000I-4250J0D01*
G01*
X333500D01*
G75*
G02*
X325000I-4250J0D01*
G01*
X323500D01*
G75*
G02*
X315000I-4250J0D01*
G01*
X313500D01*
G75*
G02*
X305000I-4250J0D01*
G01*
X298500D01*
G75*
G02*
X290000I-4250J0D01*
G01*
X288500D01*
G75*
G02*
X280000I-4250J0D01*
G01*
X263500D01*
Y216000D01*
X255000D01*
Y220250D01*
X253500D01*
Y216000D01*
X245000D01*
Y220250D01*
X203000D01*
G37*
X409500Y220250D02*
G36*
X409500Y220250D02*
G75*
G02*
X409448Y219587I-4245J0D01*
G01*
X415000Y214035D01*
Y214500D01*
X423500D01*
Y214000D01*
X425250D01*
Y220250D01*
X409500D01*
Y220250D01*
G37*
X104553Y230250D02*
G36*
X104553Y230250D02*
X94553Y220250D01*
X176422D01*
X170487Y226184D01*
G75*
G02*
X165000Y230250I-1237J4066D01*
G01*
X104553D01*
G37*
X173500D02*
G36*
X173500Y230250D02*
G75*
G02*
X173316Y229013I-4259J2D01*
G01*
X182078Y220250D01*
X195500D01*
Y228250D01*
G75*
G02*
X195000Y230250I3750J2000D01*
G01*
X183500D01*
G75*
G02*
X175000I-4250J0D01*
G01*
X173500D01*
G37*
X203000Y228250D02*
G36*
X203000Y228250D02*
Y220250D01*
X245000D01*
Y224500D01*
X253500D01*
Y220250D01*
X255000D01*
Y224500D01*
X263500D01*
Y220250D01*
X280000D01*
G75*
G02*
X288500I4250J0D01*
G01*
X290000D01*
G75*
G02*
X298500I4250J0D01*
G01*
X305000D01*
G75*
G02*
X313500I4250J0D01*
G01*
X315000D01*
G75*
G02*
X323500I4250J0D01*
G01*
X325000D01*
G75*
G02*
X333500I4250J0D01*
G01*
X340000D01*
G75*
G02*
X348500I4250J0D01*
G01*
X350000D01*
G75*
G02*
X358500I4250J0D01*
G01*
X360000D01*
G75*
G02*
X368500I4250J0D01*
G01*
X375000D01*
G75*
G02*
X383500I4250J0D01*
G01*
X385000D01*
G75*
G02*
X393500I4250J0D01*
G01*
X401000D01*
G75*
G02*
X405250Y224500I4250J0D01*
G01*
G75*
G02*
X409500Y220250I0J-4250D01*
G01*
X425250D01*
Y226947D01*
X422697Y229500D01*
X221250D01*
G75*
G02*
X219000Y230250I-1J3748D01*
G01*
X213500D01*
G75*
G02*
X205000I-4250J0D01*
G01*
X203500D01*
G75*
G02*
X203000Y228250I-4250J0D01*
G01*
G37*
X113553Y239250D02*
G36*
X113553Y239250D02*
X104553Y230250D01*
X165000D01*
G75*
G02*
X173500I4250J0D01*
G01*
X175000D01*
G75*
G02*
X183500I4250J0D01*
G01*
X195000D01*
G75*
G02*
X195500Y232250I4250J0D01*
G01*
Y239250D01*
X113553D01*
G37*
X203000D02*
G36*
X203000Y239250D02*
Y232250D01*
G75*
G02*
X203500Y230250I-3750J-2000D01*
G01*
X205000D01*
G75*
G02*
X213500I4250J0D01*
G01*
X219000D01*
G75*
G02*
X218596Y230600I2250J2998D01*
G01*
X209947Y239250D01*
X203000D01*
G37*
D02*
D11*
X56750Y165250D02*
X54750D01*
X59250Y162750D02*
Y160750D01*
Y167750D02*
Y169750D01*
X61750Y165250D02*
X63750D01*
X72482Y108482D02*
X71068Y107068D01*
X72482Y112018D02*
X71068Y113432D01*
X76018Y108482D02*
X77432Y107068D01*
X76018Y112018D02*
X77432Y113432D01*
X101750Y100250D02*
X99750D01*
X104250Y97750D02*
Y95750D01*
Y102750D02*
Y104750D01*
X106750Y100250D02*
X108750D01*
X146750Y120250D02*
X144750D01*
X149250Y122750D02*
Y124750D01*
X151750Y120250D02*
X153750D01*
X151750Y140250D02*
X149750D01*
X154250Y137750D02*
Y135750D01*
Y142750D02*
Y144750D01*
X156750Y140250D02*
X158750D01*
X216750Y120250D02*
X214750D01*
X216750Y140250D02*
X214750D01*
X219250Y117750D02*
Y115750D01*
Y122750D02*
Y124750D01*
Y137750D02*
Y135750D01*
Y142750D02*
Y144750D01*
X221750Y120250D02*
X223750D01*
X221750Y140250D02*
X223750D01*
X236750D02*
X234750D01*
X239250Y137750D02*
Y135750D01*
Y142750D02*
Y144750D01*
X241750Y140250D02*
X243750D01*
X256750Y80250D02*
X254750D01*
X256750Y94250D02*
X254750D01*
X259250Y82750D02*
Y84750D01*
Y91750D02*
Y89750D01*
Y96750D02*
Y98750D01*
X261750Y80250D02*
X263750D01*
X261750Y94250D02*
X263750D01*
X376750Y170250D02*
X374750D01*
X379250Y167750D02*
Y165750D01*
Y172750D02*
Y174750D01*
X381750Y170250D02*
X383750D01*
D02*
D12*
X49250Y125250D02*
Y180250D01*
X112250Y243250D01*
X197250D01*
X49250Y125250D02*
Y38250D01*
X58250Y29250D01*
X219250D01*
X59250Y75250D02*
X63250D01*
X66250Y78250D01*
Y112250D01*
X63250Y115250D01*
X59250D01*
Y125250D02*
X49250D01*
X199250Y230250D02*
Y189250D01*
X203250Y185250D01*
X209250D01*
X199250Y230250D02*
Y241250D01*
X197250Y243250D01*
X219250Y20250D02*
Y29250D01*
X234250D01*
Y40250D02*
X356250D01*
X366250Y30250D01*
X410250D01*
X429250Y49250D01*
Y68250D01*
Y89758D01*
X419250Y200250D02*
Y170250D01*
Y210250D02*
X429250D01*
Y89758D02*
Y210250D01*
Y228250D01*
X424250Y233250D01*
X221250D01*
X211250Y243250D01*
X197250D01*
D02*
D13*
X234250Y29250D03*
Y40250D03*
D02*
D14*
X59250Y175250D02*
X149250D01*
X179250Y205250D01*
X74250Y75250D02*
Y74250D01*
X65250Y65250D01*
Y61250D01*
X59250Y55250D01*
X74250Y100250D02*
X79250Y95250D01*
Y70250D01*
X74250Y65250D01*
Y120250D02*
Y160250D01*
X59250Y175250D01*
X104250Y75250D02*
X125250D01*
X135250Y65250D01*
X272250D01*
X279250Y58250D01*
X341250D01*
X343250Y60250D01*
Y94250D01*
X349250Y100250D01*
X116250Y165250D02*
X179250D01*
X192250Y152250D01*
Y140250D01*
X116250Y204620D02*
Y195171D01*
X130250Y65250D02*
X104250D01*
X149250Y50250D02*
X164250D01*
X149250Y60250D02*
X164250D01*
X149250Y70250D02*
X164250D01*
X149250Y80250D02*
X164250D01*
X149250Y90250D02*
X164250D01*
X149250Y100250D02*
X164250D01*
X149250Y110250D02*
X164250D01*
X154250Y35250D02*
X130250D01*
X164250Y40250D02*
X150250D01*
X130250Y60250D01*
X119250D01*
X164250Y120250D02*
X159250Y115250D01*
X109250D01*
X104250Y110250D01*
X164250Y120250D02*
X169250Y115250D01*
Y93250D01*
X172250Y90250D01*
X189250D01*
X169250Y230250D02*
X184250Y215250D01*
Y190250D01*
X179250Y185250D01*
X180250Y42250D02*
X224250D01*
X231250Y35250D01*
X257250D01*
X259250Y33250D01*
X212250Y131250D02*
X240250D01*
X249250Y140250D01*
X229250Y75250D02*
X194250D01*
X189250Y70250D01*
X234250Y85250D02*
X194250D01*
X189250Y90250D01*
X234250Y202250D02*
X261250D01*
X264250Y199250D01*
Y145250D01*
X269250Y140250D01*
X239250Y70250D02*
X294250D01*
X299250Y75250D01*
Y80250D01*
X239250Y110250D02*
Y82250D01*
X246250Y75250D01*
X244250Y196250D02*
X251250D01*
X254250Y193250D01*
Y165250D01*
X259250Y160250D01*
Y140250D01*
X246250Y30250D02*
X248250Y28250D01*
X281250D01*
X289250Y20250D01*
X269250Y60250D02*
X234250D01*
X269250Y80250D02*
X268250D01*
X263250Y75250D01*
X246250D01*
X269250Y80250D02*
X279250D01*
X269250Y187250D02*
Y181250D01*
X274250Y176250D01*
X292250D01*
X294250Y174250D01*
Y85250D01*
X289250Y80250D01*
X279250Y50250D02*
X274250Y55250D01*
X212250D01*
X284250Y190250D02*
X294250D01*
X289250Y50250D02*
X284250Y45250D01*
X185250D01*
X175250Y55250D01*
X140250D01*
X130250Y65250D01*
X289250Y50250D02*
X299250D01*
Y20250D02*
Y30250D01*
X296250Y33250D01*
X259250D01*
X299250Y50250D02*
X304250Y55250D01*
X344250D01*
X349250Y60250D01*
X299250Y80250D02*
X309250D01*
Y50250D02*
X314250Y45250D01*
X351250D01*
X369250Y63250D01*
X309250Y190250D02*
X319250D01*
Y80250D02*
Y85250D01*
X314250Y90250D01*
Y165250D01*
X319250Y170250D01*
Y190250D02*
X329250D01*
Y170250D02*
Y157250D01*
X332250Y154250D01*
X336250Y63250D02*
Y93250D01*
X319250Y110250D01*
X339250Y154250D02*
Y170250D01*
X344250Y190250D02*
X354250D01*
X346250Y154250D02*
Y157250D01*
X359250Y170250D01*
X354250Y190250D02*
X364250D01*
X379250D02*
X394250Y175250D01*
Y158250D01*
X404250Y148250D01*
Y99258D01*
X399250Y94258D01*
D02*
D15*
X130250Y35250D03*
X154250D03*
X180250Y42250D03*
X212250Y55250D03*
Y131250D03*
X229250Y75250D03*
X234250Y60250D03*
Y85250D03*
Y202250D03*
X239250Y70250D03*
X244250Y196250D03*
X246250Y30250D03*
Y75250D03*
X259250Y33250D03*
X269250Y60250D03*
Y187250D03*
X332250Y154250D03*
X336250Y63250D03*
X339250Y154250D03*
X346250D03*
X369250Y63250D03*
D02*
D16*
X74250Y65250D03*
Y75250D03*
Y85250D03*
Y100250D03*
Y110250D03*
Y120250D03*
X104250Y65250D03*
Y75250D03*
Y85250D03*
Y100250D03*
Y110250D03*
Y120250D03*
X119250Y50250D03*
Y60250D03*
Y70250D03*
Y80250D03*
Y90250D03*
Y100250D03*
Y110250D03*
X149250Y50250D03*
Y60250D03*
Y70250D03*
Y80250D03*
Y90250D03*
Y100250D03*
Y110250D03*
Y120250D03*
X169250Y230250D03*
X179250Y155250D03*
Y175250D03*
Y185250D03*
Y195250D03*
Y230250D03*
X189250Y50250D03*
Y60250D03*
Y70250D03*
Y80250D03*
Y90250D03*
Y100250D03*
Y110250D03*
X199250Y230250D03*
X209250Y155250D03*
Y175250D03*
Y185250D03*
Y195250D03*
Y205250D03*
Y230250D03*
X219250Y50250D03*
Y60250D03*
Y70250D03*
Y80250D03*
Y90250D03*
Y100250D03*
Y110250D03*
Y120250D03*
X229250Y185250D03*
X239250Y140250D03*
X249250Y110250D03*
Y140250D03*
X259250Y80250D03*
Y110250D03*
Y140250D03*
Y185250D03*
X269250Y50250D03*
Y80250D03*
Y110250D03*
Y140250D03*
X279250Y50250D03*
Y80250D03*
Y110250D03*
Y140250D03*
X284250Y190250D03*
Y220250D03*
X289250Y50250D03*
Y80250D03*
Y110250D03*
Y140250D03*
X294250Y190250D03*
Y220250D03*
X299250Y50250D03*
Y80250D03*
Y110250D03*
Y140250D03*
X309250Y50250D03*
Y80250D03*
Y110250D03*
Y140250D03*
Y190250D03*
Y220250D03*
X319250Y50250D03*
Y80250D03*
Y110250D03*
Y140250D03*
Y190250D03*
Y220250D03*
X329250Y110250D03*
Y140250D03*
Y190250D03*
Y220250D03*
X344250Y190250D03*
Y220250D03*
X354250Y190250D03*
Y220250D03*
X364250Y190250D03*
Y220250D03*
X379250Y190250D03*
Y220250D03*
X389250Y190250D03*
Y220250D03*
X405250Y190250D03*
Y220250D03*
D02*
D17*
X59250Y45250D03*
Y55250D03*
Y65250D03*
Y75250D03*
Y85250D03*
Y95250D03*
Y115250D03*
Y125250D03*
Y165250D03*
Y175250D03*
X119250Y120250D03*
X154250Y140250D03*
X164250Y40250D03*
Y50250D03*
Y60250D03*
Y70250D03*
Y80250D03*
Y90250D03*
Y100250D03*
Y110250D03*
Y120250D03*
Y140250D03*
X179250Y205250D03*
X182250Y140250D03*
X189250Y120250D03*
X192250Y140250D03*
X209250D03*
X219250D03*
X229250Y170250D03*
Y240250D03*
X239250Y110250D03*
Y170250D03*
Y240250D03*
X249250Y94250D03*
Y170250D03*
Y220250D03*
Y240250D03*
X259250Y50250D03*
Y94250D03*
Y170250D03*
Y220250D03*
Y240250D03*
X269250Y170250D03*
Y240250D03*
X279250Y170250D03*
Y240250D03*
X289250Y170250D03*
Y240250D03*
X299250Y170250D03*
Y240250D03*
X309250Y170250D03*
Y240250D03*
X319250Y170250D03*
Y240250D03*
X329250Y170250D03*
Y240250D03*
X339250Y170250D03*
Y240250D03*
X349250Y60250D03*
Y70250D03*
Y90250D03*
Y100250D03*
Y170250D03*
Y240250D03*
X359250Y170250D03*
Y240250D03*
X369250Y170250D03*
Y240250D03*
X379250Y170250D03*
Y240250D03*
X389250Y170250D03*
Y240250D03*
X399250Y170250D03*
Y240250D03*
X409250Y170250D03*
Y240250D03*
X419250Y170250D03*
Y200250D03*
Y210250D03*
Y240250D03*
D02*
D70*
X49250Y20250D03*
X59250D03*
X69250D03*
X79250D03*
X89250D03*
X99250D03*
X109250D03*
X119250D03*
X129250D03*
X139250D03*
X149250D03*
X159250D03*
X169250D03*
X179250D03*
X189250D03*
X199250D03*
X209250D03*
X219250D03*
X229250D03*
X239250D03*
X249250D03*
X259250D03*
X269250D03*
X279250D03*
X289250D03*
X299250D03*
X309250D03*
X319250D03*
X329250D03*
X339250D03*
X349250D03*
X359250D03*
X369250D03*
X379250D03*
X389250D03*
X399250D03*
X409250D03*
X419250D03*
X429250D03*
D02*
D96*
X63981Y145532D03*
D02*
D97*
X379250Y76266D03*
Y85262D03*
Y94258D03*
Y103254D03*
Y112250D03*
X389250Y80762D03*
Y89758D03*
Y98754D03*
Y107750D03*
Y116746D03*
X399250Y76266D03*
Y85262D03*
Y94258D03*
Y103254D03*
Y112250D03*
D02*
D98*
X389250Y46030D03*
Y144494D03*
D02*
D99*
X116250Y165250D03*
Y195171D03*
Y204620D03*
D02*
D104*
X389250Y89758D02*
X429250D01*
D02*
D105*
X409250Y170250D02*
Y186250D01*
X405250Y190250D01*
X419250Y210250D02*
X415250D01*
X405250Y220250D01*
X0Y0D02*
M02*
