G04 DesignSpark PCB Gerber Version 10.0 Build 5299*
G04 #@! TF.Part,Single*
G04 #@! TF.FileFunction,Legend,Top*
G04 #@! TF.FilePolarity,Positive*
%FSLAX35Y35*%
%MOIN*%
%ADD92C,0.00300*%
%ADD93C,0.00394*%
%ADD79C,0.00400*%
%ADD10C,0.00500*%
%ADD84C,0.00600*%
%ADD95C,0.00787*%
%ADD94C,0.00800*%
%ADD11C,0.01000*%
G04 #@! TD.AperFunction*
X0Y0D02*
D02*
D10*
X44250Y15250D02*
X434250D01*
Y25250D01*
X44250D01*
Y15250D01*
X46750Y25250D02*
X51750D01*
Y32250D01*
X48750D01*
X46750Y30250D01*
Y25250D01*
X53250Y34187D02*
Y37937D01*
X55437D01*
X56063Y37625D01*
X56375Y37000D01*
X56063Y36375D01*
X55437Y36063D01*
X53250D01*
X58250Y37937D02*
Y34187D01*
X61375D01*
X63875D02*
X65125D01*
X64500D02*
Y37937D01*
X63875Y37313D01*
X55250Y132813D02*
X55563Y132500D01*
X56187Y132187D01*
X56813Y132500D01*
X57125Y132813D01*
Y135937D01*
X57750D01*
X57125D02*
X55875D01*
X62750Y132187D02*
X60250D01*
X62437Y134375D01*
X62750Y135000D01*
X62437Y135625D01*
X61813Y135937D01*
X60875D01*
X60250Y135625D01*
X56250Y182813D02*
X56563Y182500D01*
X57187Y182187D01*
X57813Y182500D01*
X58125Y182813D01*
Y185937D01*
X58750D01*
X58125D02*
X56875D01*
X61875Y182187D02*
X63125D01*
X62500D02*
Y185937D01*
X61875Y185313D01*
X81750Y65250D02*
X79250D01*
X81750Y75250D02*
X79250D01*
X81750Y85250D02*
X79250D01*
X81750Y100250D02*
X79250D01*
X81750Y110250D02*
X79250D01*
X81750Y120250D02*
X79250D01*
X86250Y63187D02*
Y66937D01*
X88437D01*
X89063Y66625D01*
X89375Y66000D01*
X89063Y65375D01*
X88437Y65063D01*
X86250D01*
X88437D02*
X89375Y63187D01*
X91250Y64125D02*
X91563Y64750D01*
X92187Y65063D01*
X92813D01*
X93437Y64750D01*
X93750Y64125D01*
X93437Y63500D01*
X92813Y63187D01*
X92187D01*
X91563Y63500D01*
X91250Y64125D01*
Y65063D01*
X91563Y66000D01*
X92187Y66625D01*
X92813Y66937D01*
X86250Y73187D02*
Y76937D01*
X88437D01*
X89063Y76625D01*
X89375Y76000D01*
X89063Y75375D01*
X88437Y75063D01*
X86250D01*
X88437D02*
X89375Y73187D01*
X91250Y73500D02*
X91875Y73187D01*
X92813D01*
X93437Y73500D01*
X93750Y74125D01*
Y74437D01*
X93437Y75063D01*
X92813Y75375D01*
X91250D01*
Y76937D01*
X93750D01*
X86250Y83187D02*
Y86937D01*
X88437D01*
X89063Y86625D01*
X89375Y86000D01*
X89063Y85375D01*
X88437Y85063D01*
X86250D01*
X88437D02*
X89375Y83187D01*
X92813D02*
Y86937D01*
X91250Y84437D01*
X93750D01*
X86250Y98187D02*
Y101937D01*
X88437D01*
X89063Y101625D01*
X89375Y101000D01*
X89063Y100375D01*
X88437Y100063D01*
X86250D01*
X88437D02*
X89375Y98187D01*
X91563Y98500D02*
X92187Y98187D01*
X92813D01*
X93437Y98500D01*
X93750Y99125D01*
X93437Y99750D01*
X92813Y100063D01*
X92187D01*
X92813D02*
X93437Y100375D01*
X93750Y101000D01*
X93437Y101625D01*
X92813Y101937D01*
X92187D01*
X91563Y101625D01*
X86250Y108187D02*
Y111937D01*
X88437D01*
X89063Y111625D01*
X89375Y111000D01*
X89063Y110375D01*
X88437Y110063D01*
X86250D01*
X88437D02*
X89375Y108187D01*
X93750D02*
X91250D01*
X93437Y110375D01*
X93750Y111000D01*
X93437Y111625D01*
X92813Y111937D01*
X91875D01*
X91250Y111625D01*
X86250Y118187D02*
Y121937D01*
X88437D01*
X89063Y121625D01*
X89375Y121000D01*
X89063Y120375D01*
X88437Y120063D01*
X86250D01*
X88437D02*
X89375Y118187D01*
X91875D02*
X93125D01*
X92500D02*
Y121937D01*
X91875Y121313D01*
X96750Y67750D02*
Y62750D01*
X81750D01*
Y67750D01*
X96750D01*
Y77750D02*
Y72750D01*
X81750D01*
Y77750D01*
X96750D01*
Y87750D02*
Y82750D01*
X81750D01*
Y87750D01*
X96750D01*
Y102750D02*
Y97750D01*
X81750D01*
Y102750D01*
X96750D01*
Y112750D02*
Y107750D01*
X81750D01*
Y112750D01*
X96750D01*
Y122750D02*
Y117750D01*
X81750D01*
Y122750D01*
X96750D01*
X99250Y65250D02*
X96750D01*
X99250Y75250D02*
X96750D01*
X99250Y85250D02*
X96750D01*
X99250Y100250D02*
X96750D01*
X99250Y110250D02*
X96750D01*
X99250Y120250D02*
X96750D01*
X110250Y231937D02*
Y228187D01*
X113375D01*
X115250Y229125D02*
X115563Y228500D01*
X116187Y228187D01*
X117437D01*
X118063Y228500D01*
X118375Y229125D01*
X118063Y229750D01*
X117437Y230063D01*
X116187D01*
X115563Y230375D01*
X115250Y231000D01*
X115563Y231625D01*
X116187Y231937D01*
X117437D01*
X118063Y231625D01*
X118375Y231000D01*
X120875Y228187D02*
X122125D01*
X121500D02*
Y231937D01*
X120875Y231313D01*
X131250Y40937D02*
Y38125D01*
X131563Y37500D01*
X132187Y37187D01*
X133437D01*
X134063Y37500D01*
X134375Y38125D01*
Y40937D01*
X136875Y37187D02*
X138125D01*
X137500D02*
Y40937D01*
X136875Y40313D01*
X159375Y147813D02*
X159063Y147500D01*
X158437Y147187D01*
X157500D01*
X156875Y147500D01*
X156563Y147813D01*
X156250Y148437D01*
Y149687D01*
X156563Y150313D01*
X156875Y150625D01*
X157500Y150937D01*
X158437D01*
X159063Y150625D01*
X159375Y150313D01*
X161875Y147187D02*
X163125D01*
X162500D02*
Y150937D01*
X161875Y150313D01*
X158250Y29187D02*
Y32937D01*
X160437D01*
X161063Y32625D01*
X161375Y32000D01*
X161063Y31375D01*
X160437Y31063D01*
X158250D01*
X163250Y32937D02*
Y29187D01*
X166375D01*
X170750D02*
X168250D01*
X170437Y31375D01*
X170750Y32000D01*
X170437Y32625D01*
X169813Y32937D01*
X168875D01*
X168250Y32625D01*
X161750Y239937D02*
X164250D01*
X163000Y238687D02*
Y241187D01*
X164250Y230250D02*
G75*
G02*
X174250Y240250I10000J0D01*
G01*
G75*
G02*
X184250Y230250I0J-10000D01*
G01*
G75*
G02*
X174250Y220250I-10000J0D01*
G01*
G75*
G02*
X164250Y230250I0J10000D01*
G01*
X173375Y241813D02*
X173063Y241500D01*
X172437Y241187D01*
X171500D01*
X170875Y241500D01*
X170563Y241813D01*
X170250Y242437D01*
Y243687D01*
X170563Y244313D01*
X170875Y244625D01*
X171500Y244937D01*
X172437D01*
X173063Y244625D01*
X173375Y244313D01*
X177750Y241187D02*
X175250D01*
X177437Y243375D01*
X177750Y244000D01*
X177437Y244625D01*
X176813Y244937D01*
X175875D01*
X175250Y244625D01*
X187375Y147813D02*
X187063Y147500D01*
X186437Y147187D01*
X185500D01*
X184875Y147500D01*
X184563Y147813D01*
X184250Y148437D01*
Y149687D01*
X184563Y150313D01*
X184875Y150625D01*
X185500Y150937D01*
X186437D01*
X187063Y150625D01*
X187375Y150313D01*
X189563Y147500D02*
X190187Y147187D01*
X190813D01*
X191437Y147500D01*
X191750Y148125D01*
X191437Y148750D01*
X190813Y149063D01*
X190187D01*
X190813D02*
X191437Y149375D01*
X191750Y150000D01*
X191437Y150625D01*
X190813Y150937D01*
X190187D01*
X189563Y150625D01*
X184250Y155250D02*
X186750D01*
Y152750D02*
Y157750D01*
X201750D01*
Y152750D01*
X186750D01*
X191250Y159187D02*
Y162937D01*
X193437D01*
X194063Y162625D01*
X194375Y162000D01*
X194063Y161375D01*
X193437Y161063D01*
X191250D01*
X193437D02*
X194375Y159187D01*
X196250D02*
X198750Y162937D01*
X196250D01*
X191750Y239937D02*
X194250D01*
X193000Y238687D02*
Y241187D01*
X194250Y230250D02*
G75*
G02*
X204250Y240250I10000J0D01*
G01*
G75*
G02*
X214250Y230250I0J-10000D01*
G01*
G75*
G02*
X204250Y220250I-10000J0D01*
G01*
G75*
G02*
X194250Y230250I0J10000D01*
G01*
X200250Y39937D02*
Y37125D01*
X200563Y36500D01*
X201187Y36187D01*
X202437D01*
X203063Y36500D01*
X203375Y37125D01*
Y39937D01*
X205563Y36500D02*
X206187Y36187D01*
X206813D01*
X207437Y36500D01*
X207750Y37125D01*
X207437Y37750D01*
X206813Y38063D01*
X206187D01*
X206813D02*
X207437Y38375D01*
X207750Y39000D01*
X207437Y39625D01*
X206813Y39937D01*
X206187D01*
X205563Y39625D01*
X203375Y241813D02*
X203063Y241500D01*
X202437Y241187D01*
X201500D01*
X200875Y241500D01*
X200563Y241813D01*
X200250Y242437D01*
Y243687D01*
X200563Y244313D01*
X200875Y244625D01*
X201500Y244937D01*
X202437D01*
X203063Y244625D01*
X203375Y244313D01*
X206813Y241187D02*
Y244937D01*
X205250Y242437D01*
X207750D01*
X201750Y155250D02*
X204250D01*
X213375Y147813D02*
X213063Y147500D01*
X212437Y147187D01*
X211500D01*
X210875Y147500D01*
X210563Y147813D01*
X210250Y148437D01*
Y149687D01*
X210563Y150313D01*
X210875Y150625D01*
X211500Y150937D01*
X212437D01*
X213063Y150625D01*
X213375Y150313D01*
X215250Y147500D02*
X215875Y147187D01*
X216813D01*
X217437Y147500D01*
X217750Y148125D01*
Y148437D01*
X217437Y149063D01*
X216813Y149375D01*
X215250D01*
Y150937D01*
X217750D01*
X236750Y185250D02*
X234250D01*
X241250Y189187D02*
Y192937D01*
X243437D01*
X244063Y192625D01*
X244375Y192000D01*
X244063Y191375D01*
X243437Y191063D01*
X241250D01*
X243437D02*
X244375Y189187D01*
X247187Y191063D02*
X247813D01*
X248437Y191375D01*
X248750Y192000D01*
X248437Y192625D01*
X247813Y192937D01*
X247187D01*
X246563Y192625D01*
X246250Y192000D01*
X246563Y191375D01*
X247187Y191063D01*
X246563Y190750D01*
X246250Y190125D01*
X246563Y189500D01*
X247187Y189187D01*
X247813D01*
X248437Y189500D01*
X248750Y190125D01*
X248437Y190750D01*
X247813Y191063D01*
X253375Y209813D02*
X253063Y209500D01*
X252437Y209187D01*
X251500D01*
X250875Y209500D01*
X250563Y209813D01*
X250250Y210437D01*
Y211687D01*
X250563Y212313D01*
X250875Y212625D01*
X251500Y212937D01*
X252437D01*
X253063Y212625D01*
X253375Y212313D01*
X255250Y210125D02*
X255563Y210750D01*
X256187Y211063D01*
X256813D01*
X257437Y210750D01*
X257750Y210125D01*
X257437Y209500D01*
X256813Y209187D01*
X256187D01*
X255563Y209500D01*
X255250Y210125D01*
Y211063D01*
X255563Y212000D01*
X256187Y212625D01*
X256813Y212937D01*
X251750Y187750D02*
Y182750D01*
X236750D01*
Y187750D01*
X251750D01*
X254250Y185250D02*
X251750D01*
X269375Y92813D02*
X269063Y92500D01*
X268437Y92187D01*
X267500D01*
X266875Y92500D01*
X266563Y92813D01*
X266250Y93437D01*
Y94687D01*
X266563Y95313D01*
X266875Y95625D01*
X267500Y95937D01*
X268437D01*
X269063Y95625D01*
X269375Y95313D01*
X271250Y92187D02*
X273750Y95937D01*
X271250D01*
X279250Y185250D02*
X299250D01*
Y230250D01*
X279250D01*
Y185250D01*
X282187Y209250D02*
X285937D01*
Y207063D01*
X285625Y206437D01*
X285000Y206125D01*
X284375Y206437D01*
X284063Y207063D01*
Y209250D01*
Y207063D02*
X282187Y206125D01*
Y203313D02*
X282500Y202687D01*
X283125Y202063D01*
X284063Y201750D01*
X285000D01*
X285625Y202063D01*
X285937Y202687D01*
Y203313D01*
X285625Y203937D01*
X285000Y204250D01*
X284375Y203937D01*
X284063Y203313D01*
Y202687D01*
X284375Y202063D01*
X285000Y201750D01*
X281750Y212750D02*
X286750D01*
Y197750D01*
X281750D01*
Y212750D01*
X282250Y148937D02*
Y146125D01*
X282563Y145500D01*
X283187Y145187D01*
X284437D01*
X285063Y145500D01*
X285375Y146125D01*
Y148937D01*
X288813Y145187D02*
Y148937D01*
X287250Y146437D01*
X289750D01*
X284250Y197750D02*
Y195250D01*
Y215250D02*
Y212750D01*
X292187Y211250D02*
X295937D01*
Y209063D01*
X295625Y208437D01*
X295000Y208125D01*
X294375Y208437D01*
X294063Y209063D01*
Y211250D01*
Y209063D02*
X292187Y208125D01*
Y205625D02*
Y204375D01*
Y205000D02*
X295937D01*
X295313Y205625D01*
X292500Y200937D02*
X292187Y200313D01*
Y199687D01*
X292500Y199063D01*
X293125Y198750D01*
X295000D01*
X295625Y199063D01*
X295937Y199687D01*
Y200313D01*
X295625Y200937D01*
X295000Y201250D01*
X293125D01*
X292500Y200937D01*
X295625Y199063D01*
X291750Y212750D02*
X296750D01*
Y197750D01*
X291750D01*
Y212750D01*
X294250Y197750D02*
Y195250D01*
Y215250D02*
Y212750D01*
X304250Y185250D02*
X334250D01*
Y230250D01*
X304250D01*
Y185250D01*
X307187Y211250D02*
X310937D01*
Y209063D01*
X310625Y208437D01*
X310000Y208125D01*
X309375Y208437D01*
X309063Y209063D01*
Y211250D01*
Y209063D02*
X307187Y208125D01*
Y205625D02*
Y204375D01*
Y205000D02*
X310937D01*
X310313Y205625D01*
X307187Y200625D02*
Y199375D01*
Y200000D02*
X310937D01*
X310313Y200625D01*
X306750Y212750D02*
X311750D01*
Y197750D01*
X306750D01*
Y212750D01*
X309250Y197750D02*
Y195250D01*
Y215250D02*
Y212750D01*
X317187Y211250D02*
X320937D01*
Y209063D01*
X320625Y208437D01*
X320000Y208125D01*
X319375Y208437D01*
X319063Y209063D01*
Y211250D01*
Y209063D02*
X317187Y208125D01*
Y205625D02*
Y204375D01*
Y205000D02*
X320937D01*
X320313Y205625D01*
X317187Y198750D02*
Y201250D01*
X319375Y199063D01*
X320000Y198750D01*
X320625Y199063D01*
X320937Y199687D01*
Y200625D01*
X320625Y201250D01*
X316750Y212750D02*
X321750D01*
Y197750D01*
X316750D01*
Y212750D01*
X319250Y197750D02*
Y195250D01*
Y215250D02*
Y212750D01*
X321250Y161937D02*
Y159125D01*
X321563Y158500D01*
X322187Y158187D01*
X323437D01*
X324063Y158500D01*
X324375Y159125D01*
Y161937D01*
X326250Y159125D02*
X326563Y159750D01*
X327187Y160063D01*
X327813D01*
X328437Y159750D01*
X328750Y159125D01*
X328437Y158500D01*
X327813Y158187D01*
X327187D01*
X326563Y158500D01*
X326250Y159125D01*
Y160063D01*
X326563Y161000D01*
X327187Y161625D01*
X327813Y161937D01*
X327187Y211250D02*
X330937D01*
Y209063D01*
X330625Y208437D01*
X330000Y208125D01*
X329375Y208437D01*
X329063Y209063D01*
Y211250D01*
Y209063D02*
X327187Y208125D01*
Y205625D02*
Y204375D01*
Y205000D02*
X330937D01*
X330313Y205625D01*
X327500Y200937D02*
X327187Y200313D01*
Y199687D01*
X327500Y199063D01*
X328125Y198750D01*
X328750Y199063D01*
X329063Y199687D01*
Y200313D01*
Y199687D02*
X329375Y199063D01*
X330000Y198750D01*
X330625Y199063D01*
X330937Y199687D01*
Y200313D01*
X330625Y200937D01*
X326750Y212750D02*
X331750D01*
Y197750D01*
X326750D01*
Y212750D01*
X329250Y197750D02*
Y195250D01*
Y215250D02*
Y212750D01*
X339250Y185250D02*
X369250D01*
Y230250D01*
X339250D01*
Y185250D01*
X342187Y211250D02*
X345937D01*
Y209063D01*
X345625Y208437D01*
X345000Y208125D01*
X344375Y208437D01*
X344063Y209063D01*
Y211250D01*
Y209063D02*
X342187Y208125D01*
Y205625D02*
Y204375D01*
Y205000D02*
X345937D01*
X345313Y205625D01*
X342187Y199687D02*
X345937D01*
X343437Y201250D01*
Y198750D01*
X341750Y212750D02*
X346750D01*
Y197750D01*
X341750D01*
Y212750D01*
X342250Y27187D02*
Y30937D01*
X344437D01*
X345063Y30625D01*
X345375Y30000D01*
X345063Y29375D01*
X344437Y29063D01*
X342250D01*
X347250Y30937D02*
Y27187D01*
X350375D01*
X352563Y27500D02*
X353187Y27187D01*
X353813D01*
X354437Y27500D01*
X354750Y28125D01*
X354437Y28750D01*
X353813Y29063D01*
X353187D01*
X353813D02*
X354437Y29375D01*
X354750Y30000D01*
X354437Y30625D01*
X353813Y30937D01*
X353187D01*
X352563Y30625D01*
X344250Y197750D02*
Y195250D01*
Y215250D02*
Y212750D01*
X345250Y49813D02*
X345563Y49500D01*
X346187Y49187D01*
X346813Y49500D01*
X347125Y49813D01*
Y52937D01*
X347750D01*
X347125D02*
X345875D01*
X350563Y49500D02*
X351187Y49187D01*
X351813D01*
X352437Y49500D01*
X352750Y50125D01*
X352437Y50750D01*
X351813Y51063D01*
X351187D01*
X351813D02*
X352437Y51375D01*
X352750Y52000D01*
X352437Y52625D01*
X351813Y52937D01*
X351187D01*
X350563Y52625D01*
X345250Y107813D02*
X345563Y107500D01*
X346187Y107187D01*
X346813Y107500D01*
X347125Y107813D01*
Y110937D01*
X347750D01*
X347125D02*
X345875D01*
X351813Y107187D02*
Y110937D01*
X350250Y108437D01*
X352750D01*
X352187Y211250D02*
X355937D01*
Y209063D01*
X355625Y208437D01*
X355000Y208125D01*
X354375Y208437D01*
X354063Y209063D01*
Y211250D01*
Y209063D02*
X352187Y208125D01*
Y205625D02*
Y204375D01*
Y205000D02*
X355937D01*
X355313Y205625D01*
X352500Y201250D02*
X352187Y200625D01*
Y199687D01*
X352500Y199063D01*
X353125Y198750D01*
X353437D01*
X354063Y199063D01*
X354375Y199687D01*
Y201250D01*
X355937D01*
Y198750D01*
X351750Y212750D02*
X356750D01*
Y197750D01*
X351750D01*
Y212750D01*
X354250Y197750D02*
Y195250D01*
Y215250D02*
Y212750D01*
X362187Y211250D02*
X365937D01*
Y209063D01*
X365625Y208437D01*
X365000Y208125D01*
X364375Y208437D01*
X364063Y209063D01*
Y211250D01*
Y209063D02*
X362187Y208125D01*
Y205625D02*
Y204375D01*
Y205000D02*
X365937D01*
X365313Y205625D01*
X363125Y201250D02*
X363750Y200937D01*
X364063Y200313D01*
Y199687D01*
X363750Y199063D01*
X363125Y198750D01*
X362500Y199063D01*
X362187Y199687D01*
Y200313D01*
X362500Y200937D01*
X363125Y201250D01*
X364063D01*
X365000Y200937D01*
X365625Y200313D01*
X365937Y199687D01*
X361750Y212750D02*
X366750D01*
Y197750D01*
X361750D01*
Y212750D01*
X364250Y197750D02*
Y195250D01*
Y215250D02*
Y212750D01*
X377187Y211250D02*
X380937D01*
Y209063D01*
X380625Y208437D01*
X380000Y208125D01*
X379375Y208437D01*
X379063Y209063D01*
Y211250D01*
Y209063D02*
X377187Y208125D01*
Y205625D02*
Y204375D01*
Y205000D02*
X380937D01*
X380313Y205625D01*
X377187Y201250D02*
X380937Y198750D01*
Y201250D01*
X376750Y212750D02*
X381750D01*
Y197750D01*
X376750D01*
Y212750D01*
X379250Y197750D02*
Y195250D01*
Y215250D02*
Y212750D01*
X387187Y211250D02*
X390937D01*
Y209063D01*
X390625Y208437D01*
X390000Y208125D01*
X389375Y208437D01*
X389063Y209063D01*
Y211250D01*
Y209063D02*
X387187Y208125D01*
Y205625D02*
Y204375D01*
Y205000D02*
X390937D01*
X390313Y205625D01*
X389063Y200313D02*
Y199687D01*
X389375Y199063D01*
X390000Y198750D01*
X390625Y199063D01*
X390937Y199687D01*
Y200313D01*
X390625Y200937D01*
X390000Y201250D01*
X389375Y200937D01*
X389063Y200313D01*
X388750Y200937D01*
X388125Y201250D01*
X387500Y200937D01*
X387187Y200313D01*
Y199687D01*
X387500Y199063D01*
X388125Y198750D01*
X388750Y199063D01*
X389063Y199687D01*
X386750Y212750D02*
X391750D01*
Y197750D01*
X386750D01*
Y212750D01*
X389250Y197750D02*
Y195250D01*
Y215250D02*
Y212750D01*
X398375Y124813D02*
X398063Y124500D01*
X397437Y124187D01*
X396500D01*
X395875Y124500D01*
X395563Y124813D01*
X395250Y125437D01*
Y126687D01*
X395563Y127313D01*
X395875Y127625D01*
X396500Y127937D01*
X397437D01*
X398063Y127625D01*
X398375Y127313D01*
X400250Y125437D02*
Y126687D01*
X400563Y127313D01*
X400875Y127625D01*
X401500Y127937D01*
X402125D01*
X402750Y127625D01*
X403063Y127313D01*
X403375Y126687D01*
Y125437D01*
X403063Y124813D01*
X402750Y124500D01*
X402125Y124187D01*
X401500D01*
X400875Y124500D01*
X400563Y124813D01*
X400250Y125437D01*
X405250Y124187D02*
Y127937D01*
X408375Y124187D01*
Y127937D01*
X410250Y124187D02*
Y127937D01*
X413375Y124187D01*
Y127937D01*
X415875Y124187D02*
X417125D01*
X416500D02*
Y127937D01*
X415875Y127313D01*
X402750Y202750D02*
X407750D01*
Y197750D01*
X402750D01*
Y202750D01*
Y212750D02*
X407750D01*
Y197750D01*
X402750D01*
Y212750D01*
X403250Y226187D02*
Y229937D01*
X405125D01*
X405750Y229625D01*
X406063Y229313D01*
X406375Y228687D01*
Y227437D01*
X406063Y226813D01*
X405750Y226500D01*
X405125Y226187D01*
X403250D01*
X408875D02*
X410125D01*
X409500D02*
Y229937D01*
X408875Y229313D01*
X405250Y197750D02*
Y195250D01*
Y215250D02*
Y212750D01*
X413250Y189813D02*
X413563Y189500D01*
X414187Y189187D01*
X414813Y189500D01*
X415125Y189813D01*
Y192937D01*
X415750D01*
X415125D02*
X413875D01*
X418250Y189500D02*
X418875Y189187D01*
X419813D01*
X420437Y189500D01*
X420750Y190125D01*
Y190437D01*
X420437Y191063D01*
X419813Y191375D01*
X418250D01*
Y192937D01*
X420750D01*
X426250Y240437D02*
X428750D01*
X426875Y239187D02*
X428125Y241687D01*
X426875D02*
X428125Y239187D01*
D02*
D11*
X169250Y145250D02*
X149250D01*
Y135250D01*
X169250D01*
Y145250D01*
X197250D02*
X177250D01*
Y135250D01*
X197250D01*
Y145250D01*
X204250Y135250D02*
X224250D01*
Y145250D01*
X204250D01*
Y135250D01*
X244250Y89250D02*
X264250D01*
Y99250D01*
X244250D01*
Y89250D01*
Y215250D02*
X264250D01*
Y225250D01*
X244250D01*
Y215250D01*
D02*
D79*
X48750Y27000D02*
X49750D01*
X49250D02*
Y30000D01*
X48750Y29500D01*
X49500Y45750D02*
X49250Y46000D01*
X49000Y46500D01*
Y47250D01*
X49250Y47750D01*
X49500Y48000D01*
X50000Y48250D01*
X51000D01*
X51500Y48000D01*
X51750Y47750D01*
X52000Y47250D01*
Y46500D01*
X51750Y46000D01*
X51500Y45750D01*
X49250Y44250D02*
X49000Y43750D01*
Y42750D01*
X49250Y42250D01*
X49750D01*
X50000Y42750D01*
Y43750D01*
X50250Y44250D01*
X50750D01*
X51000Y43750D01*
Y42750D01*
X50750Y42250D01*
X49000Y57000D02*
X52000D01*
Y58250D02*
Y55750D01*
X49000Y54250D02*
X51000Y52250D01*
X49000D02*
X51000Y54250D01*
X49000Y68250D02*
X52000D01*
Y66500D01*
X51750Y66000D01*
X51250Y65750D01*
X50750Y66000D01*
X50500Y66500D01*
Y68250D01*
Y66500D02*
X49000Y65750D01*
Y64250D02*
X51000Y62250D01*
X49000D02*
X51000Y64250D01*
X49250Y78250D02*
X49000Y77750D01*
Y77000D01*
X49250Y76500D01*
X49750Y76250D01*
X50000D01*
X50500Y76500D01*
X50750Y77000D01*
Y78250D01*
X52000D01*
Y76250D01*
Y74250D02*
X49000Y73000D01*
X52000Y71750D01*
X49000Y88250D02*
X52000D01*
Y86500D01*
X51750Y86000D01*
X51250Y85750D01*
X50750Y86000D01*
X50500Y86500D01*
Y88250D01*
Y86500D02*
X49000Y85750D01*
X49250Y84250D02*
X49000Y83750D01*
Y82750D01*
X49250Y82250D01*
X49750D01*
X50000Y82750D01*
Y83750D01*
X50250Y84250D01*
X50750D01*
X51000Y83750D01*
Y82750D01*
X50750Y82250D01*
X49250Y98000D02*
X49000Y97500D01*
Y97000D01*
X49250Y96500D01*
X49750Y96250D01*
X51250D01*
X51750Y96500D01*
X52000Y97000D01*
Y97500D01*
X51750Y98000D01*
X51250Y98250D01*
X49750D01*
X49250Y98000D01*
X51750Y96500D01*
X52000Y94250D02*
X49000Y93000D01*
X52000Y91750D01*
X49750Y127250D02*
X49250Y127000D01*
X49000Y126500D01*
Y125500D01*
X49250Y125000D01*
X49750Y124750D01*
X50250Y125000D01*
X50500Y125500D01*
Y126500D01*
X50750Y127000D01*
X51250Y127250D01*
X51750Y127000D01*
X52000Y126500D01*
Y125500D01*
X51750Y125000D01*
X51250Y124750D01*
X49000Y123250D02*
X52000D01*
Y121500D01*
X51750Y121000D01*
X51250Y120750D01*
X50750Y121000D01*
X50500Y121500D01*
Y123250D01*
X52000Y119250D02*
X49000Y119000D01*
X50500Y118000D01*
X49000Y117000D01*
X52000Y116750D01*
X49000Y115250D02*
X52000D01*
Y113500D01*
X51750Y113000D01*
X51250Y112750D01*
X50750Y113000D01*
X50500Y113500D01*
Y115250D01*
Y113500D02*
X49000Y112750D01*
Y177250D02*
X52000D01*
X50500Y176000D01*
X52000Y174750D01*
X49000D01*
X52000Y173250D02*
X49750D01*
X49250Y173000D01*
X49000Y172500D01*
Y171500D01*
X49250Y171000D01*
X49750Y170750D01*
X52000D01*
X49000Y168000D02*
X52000D01*
Y169250D02*
Y166750D01*
X49000Y165250D02*
X52000D01*
Y162750D01*
X50500Y163250D02*
Y165250D01*
X49000D02*
Y162750D01*
X172000Y39000D02*
X172500Y39250D01*
X173000Y39750D01*
X173250Y40500D01*
Y41250D01*
X173000Y41750D01*
X172500Y42000D01*
X172000D01*
X171500Y41750D01*
X171250Y41250D01*
X171500Y40750D01*
X172000Y40500D01*
X172500D01*
X173000Y40750D01*
X173250Y41250D01*
X172000Y50500D02*
X172500D01*
X173000Y50750D01*
X173250Y51250D01*
X173000Y51750D01*
X172500Y52000D01*
X172000D01*
X171500Y51750D01*
X171250Y51250D01*
X171500Y50750D01*
X172000Y50500D01*
X171500Y50250D01*
X171250Y49750D01*
X171500Y49250D01*
X172000Y49000D01*
X172500D01*
X173000Y49250D01*
X173250Y49750D01*
X173000Y50250D01*
X172500Y50500D01*
X171250Y59000D02*
X173250Y62000D01*
X171250D01*
Y69750D02*
X171500Y70250D01*
X172000Y70500D01*
X172500D01*
X173000Y70250D01*
X173250Y69750D01*
X173000Y69250D01*
X172500Y69000D01*
X172000D01*
X171500Y69250D01*
X171250Y69750D01*
Y70500D01*
X171500Y71250D01*
X172000Y71750D01*
X172500Y72000D01*
X171250Y79250D02*
X171750Y79000D01*
X172500D01*
X173000Y79250D01*
X173250Y79750D01*
Y80000D01*
X173000Y80500D01*
X172500Y80750D01*
X171250D01*
Y82000D01*
X173250D01*
X172500Y89000D02*
Y92000D01*
X171250Y90000D01*
X173250D01*
X171500Y99250D02*
X172000Y99000D01*
X172500D01*
X173000Y99250D01*
X173250Y99750D01*
X173000Y100250D01*
X172500Y100500D01*
X172000D01*
X172500D02*
X173000Y100750D01*
X173250Y101250D01*
X173000Y101750D01*
X172500Y102000D01*
X172000D01*
X171500Y101750D01*
X173250Y109000D02*
X171250D01*
X173000Y110750D01*
X173250Y111250D01*
X173000Y111750D01*
X172500Y112000D01*
X171750D01*
X171250Y111750D01*
X171750Y119000D02*
X172750D01*
X172250D02*
Y122000D01*
X171750Y121500D01*
X284000Y227500D02*
X284500Y227250D01*
X284750Y226750D01*
X284500Y226250D01*
X284000Y226000D01*
X282250D01*
Y229000D01*
X284000D01*
X284500Y228750D01*
X284750Y228250D01*
X284500Y227750D01*
X284000Y227500D01*
X282250D01*
X286250Y229000D02*
Y226000D01*
X288750D01*
X290250Y229000D02*
Y226750D01*
X290500Y226250D01*
X291000Y226000D01*
X292000D01*
X292500Y226250D01*
X292750Y226750D01*
Y229000D01*
X294250Y226000D02*
Y229000D01*
X296750D01*
X296250Y227500D02*
X294250D01*
Y226000D02*
X296750D01*
X312000Y227250D02*
X312750D01*
Y227000D01*
X312500Y226500D01*
X312250Y226250D01*
X311750Y226000D01*
X311250D01*
X310750Y226250D01*
X310500Y226500D01*
X310250Y227000D01*
Y228000D01*
X310500Y228500D01*
X310750Y228750D01*
X311250Y229000D01*
X311750D01*
X312250Y228750D01*
X312500Y228500D01*
X312750Y228000D01*
X314250Y226000D02*
Y229000D01*
X316000D01*
X316500Y228750D01*
X316750Y228250D01*
X316500Y227750D01*
X316000Y227500D01*
X314250D01*
X316000D02*
X316750Y226000D01*
X318250D02*
Y229000D01*
X320750D01*
X320250Y227500D02*
X318250D01*
Y226000D02*
X320750D01*
X322250D02*
Y229000D01*
X324750D01*
X324250Y227500D02*
X322250D01*
Y226000D02*
X324750D01*
X326250D02*
Y229000D01*
X328750Y226000D01*
Y229000D01*
X349250Y226000D02*
Y229000D01*
X351000D01*
X351500Y228750D01*
X351750Y228250D01*
X351500Y227750D01*
X351000Y227500D01*
X349250D01*
X351000D02*
X351750Y226000D01*
X353250D02*
Y229000D01*
X355750D01*
X355250Y227500D02*
X353250D01*
Y226000D02*
X355750D01*
X357250D02*
Y229000D01*
X358750D01*
X359250Y228750D01*
X359500Y228500D01*
X359750Y228000D01*
Y227000D01*
X359500Y226500D01*
X359250Y226250D01*
X358750Y226000D01*
X357250D01*
X377250Y226750D02*
X377500Y226250D01*
X378000Y226000D01*
X379000D01*
X379500Y226250D01*
X379750Y226750D01*
X379500Y227250D01*
X379000Y227500D01*
X378000D01*
X377500Y227750D01*
X377250Y228250D01*
X377500Y228750D01*
X378000Y229000D01*
X379000D01*
X379500Y228750D01*
X379750Y228250D01*
X382500Y226000D02*
Y227500D01*
X381250Y229000D01*
X382500Y227500D02*
X383750Y229000D01*
X385250Y226000D02*
Y229000D01*
X387750Y226000D01*
Y229000D01*
X391750Y226500D02*
X391500Y226250D01*
X391000Y226000D01*
X390250D01*
X389750Y226250D01*
X389500Y226500D01*
X389250Y227000D01*
Y228000D01*
X389500Y228500D01*
X389750Y228750D01*
X390250Y229000D01*
X391000D01*
X391500Y228750D01*
X391750Y228500D01*
X378250Y182000D02*
Y185000D01*
Y183500D02*
X380750D01*
Y182000D02*
Y185000D01*
X388250D02*
X389500Y182000D01*
X390750Y185000D01*
X426500Y191250D02*
X428750D01*
X429250Y191500D01*
X429500Y192000D01*
Y193000D01*
X429250Y193500D01*
X428750Y193750D01*
X426500D01*
X428750Y195250D02*
X429250Y195500D01*
X429500Y196000D01*
Y197000D01*
X429250Y197500D01*
X428750Y197750D01*
X428250Y197500D01*
X428000Y197000D01*
Y196000D01*
X427750Y195500D01*
X427250Y195250D01*
X426750Y195500D01*
X426500Y196000D01*
Y197000D01*
X426750Y197500D01*
X427250Y197750D01*
X428000Y201000D02*
X428250Y201500D01*
X428750Y201750D01*
X429250Y201500D01*
X429500Y201000D01*
Y199250D01*
X426500D01*
Y201000D01*
X426750Y201500D01*
X427250Y201750D01*
X427750Y201500D01*
X428000Y201000D01*
Y199250D01*
X429500Y207250D02*
X426500D01*
Y209000D01*
X426750Y209500D01*
X427250Y209750D01*
X427750Y209500D01*
X428000Y209000D01*
Y207250D01*
X426500Y211250D02*
X429500Y211500D01*
X428000Y212500D01*
X429500Y213500D01*
X426500Y213750D01*
X429500Y215250D02*
X426500D01*
Y217000D01*
X426750Y217500D01*
X427250Y217750D01*
X427750Y217500D01*
X428000Y217000D01*
Y215250D01*
Y217000D02*
X429500Y217750D01*
D02*
D84*
X123250Y58645D02*
Y51855D01*
Y68645D02*
Y61855D01*
Y78645D02*
Y71855D01*
Y88645D02*
Y81855D01*
Y98645D02*
Y91855D01*
Y108645D02*
Y101855D01*
Y116404D02*
Y111855D01*
Y124096D02*
Y127750D01*
X145250D01*
Y121855D01*
X133050Y127750D02*
G75*
G03*
X135450I1200J0D01*
G01*
X145250Y48645D02*
Y42750D01*
X123250D01*
Y48645D01*
X145250Y51855D02*
Y58645D01*
Y61855D02*
Y68645D01*
Y71855D02*
Y78645D01*
Y81855D02*
Y88645D01*
Y91855D02*
Y98645D01*
Y101855D02*
Y108645D01*
Y111855D02*
Y118645D01*
X182750Y182735D02*
Y177765D01*
Y192735D02*
Y187765D01*
Y201039D02*
Y197765D01*
Y209461D02*
Y213250D01*
X205750D01*
Y207765D01*
X193250Y58645D02*
Y51855D01*
Y68645D02*
Y61855D01*
Y78645D02*
Y71855D01*
Y88645D02*
Y81855D01*
Y98645D02*
Y91855D01*
Y108645D02*
Y101855D01*
Y116404D02*
Y111855D01*
Y124096D02*
Y127750D01*
X215250D01*
Y121855D01*
X203050Y127750D02*
G75*
G03*
X205450I1200J0D01*
G01*
X205750Y172735D02*
Y167250D01*
X182750D01*
Y172735D01*
X205750Y177765D02*
Y182735D01*
Y187765D02*
Y192735D01*
Y197765D02*
Y202735D01*
X215250Y48645D02*
Y42750D01*
X193250D01*
Y48645D01*
X215250Y51855D02*
Y58645D01*
Y61855D02*
Y68645D01*
Y71855D02*
Y78645D01*
Y81855D02*
Y88645D01*
Y91855D02*
Y98645D01*
Y101855D02*
Y108645D01*
Y111855D02*
Y118645D01*
X231750Y124050D02*
G75*
G03*
Y126450I0J1200D01*
G01*
X235404Y114250D02*
X231750D01*
Y136250D01*
X237645D01*
X243096Y114250D02*
X247645D01*
Y136250D02*
X240855D01*
X250855Y114250D02*
X257645D01*
X255039Y53750D02*
X251250D01*
Y76750D01*
X256735D01*
X257645Y136250D02*
X250855D01*
X260855Y114250D02*
X267645D01*
X263461Y53750D02*
X266735D01*
Y76750D02*
X261765D01*
X267645Y136250D02*
X260855D01*
X270855Y114250D02*
X277645D01*
X271765Y53750D02*
X276735D01*
Y76750D02*
X271765D01*
X277645Y136250D02*
X270855D01*
X280855Y114250D02*
X287645D01*
X281765Y53750D02*
X286735D01*
Y76750D02*
X281765D01*
X287645Y136250D02*
X280855D01*
X290855Y114250D02*
X297645D01*
X291765Y53750D02*
X296735D01*
Y76750D02*
X291765D01*
X297645Y136250D02*
X290855D01*
X300855Y114250D02*
X307645D01*
X301765Y53750D02*
X306735D01*
Y76750D02*
X301765D01*
X307645Y136250D02*
X300855D01*
X310855Y114250D02*
X317645D01*
X311765Y53750D02*
X316735D01*
Y76750D02*
X311765D01*
X317645Y136250D02*
X310855D01*
X320855Y114250D02*
X327645D01*
X321765Y76750D02*
X327250D01*
Y53750D01*
X321765D01*
X327645Y136250D02*
X320855D01*
X330855D02*
X336750D01*
Y114250D01*
X330855D01*
D02*
D92*
X119250Y128437D02*
X121750D01*
X119875Y127187D02*
X121125Y129687D01*
X119875D02*
X121125Y127187D01*
X179250Y213437D02*
X181750D01*
X179875Y212187D02*
X181125Y214687D01*
X179875D02*
X181125Y212187D01*
X189250Y128437D02*
X191750D01*
X189875Y127187D02*
X191125Y129687D01*
X189875D02*
X191125Y127187D01*
X190250Y218937D02*
Y216125D01*
X190563Y215500D01*
X191187Y215187D01*
X192437D01*
X193063Y215500D01*
X193375Y216125D01*
Y218937D01*
X197750Y215187D02*
X195250D01*
X197437Y217375D01*
X197750Y218000D01*
X197437Y218625D01*
X196813Y218937D01*
X195875D01*
X195250Y218625D01*
X231063Y110250D02*
Y112750D01*
X232313Y110875D02*
X229813Y112125D01*
Y110875D02*
X232313Y112125D01*
X251063Y50250D02*
Y52750D01*
X252313Y50875D02*
X249813Y52125D01*
Y50875D02*
X252313Y52125D01*
X284250Y44937D02*
Y42125D01*
X284563Y41500D01*
X285187Y41187D01*
X286437D01*
X287063Y41500D01*
X287375Y42125D01*
Y44937D01*
X289250Y41500D02*
X289875Y41187D01*
X290813D01*
X291437Y41500D01*
X291750Y42125D01*
Y42437D01*
X291437Y43063D01*
X290813Y43375D01*
X289250D01*
Y44937D01*
X291750D01*
D02*
D93*
X373108Y34612D02*
Y155911D01*
X434250D01*
Y34612D01*
X373108D01*
D02*
D94*
X54250Y100250D02*
Y40250D01*
X64250D01*
Y100250D01*
X54250D01*
X64250Y110250D02*
Y130250D01*
X54250D01*
Y110250D01*
X64250D01*
Y160250D02*
Y180250D01*
X54250D01*
Y160250D01*
X64250D01*
X159250Y125250D02*
Y35250D01*
X169250D01*
Y125250D01*
X159250D01*
X344250Y75250D02*
Y55250D01*
X354250D01*
Y75250D01*
X344250D01*
X354250Y85250D02*
Y105250D01*
X344250D01*
Y85250D01*
X354250D01*
X414250Y215250D02*
Y195250D01*
X424250D01*
Y215250D01*
X414250D01*
X424250Y175250D02*
X224250D01*
Y165250D01*
X424250D01*
Y175250D01*
Y245250D02*
X224250D01*
Y235250D01*
X424250D01*
Y245250D01*
D02*
D95*
X70974Y184935D02*
X116250Y137297D02*
G75*
G03*
Y137691I0J197D01*
G01*
Y137297D02*
G75*
G02*
Y137691I0J197D01*
G01*
Y137297D02*
Y137691D02*
G75*
G02*
Y137297I0J-197D01*
G01*
X161526Y180604D02*
G75*
G03*
X70974I-45276J0D01*
G01*
X161526D02*
G75*
G02*
X70974I-45276J0D01*
G01*
X161526Y184935D02*
X0Y0D02*
M02*
