G04 DesignSpark PCB Gerber Version 10.0 Build 5299*
G04 #@! TF.Part,Single*
G04 #@! TF.FileFunction,Soldermask,Bot*
G04 #@! TF.FilePolarity,Negative*
%FSLAX35Y35*%
%MOIN*%
G04 #@! TA.AperFunction,ComponentPad*
%ADD28R,0.06600X0.06600*%
%ADD73R,0.07100X0.07100*%
%ADD101C,0.06112*%
%ADD103C,0.06506*%
%ADD27C,0.06600*%
G04 #@! TA.AperFunction,WasherPad*
%ADD100C,0.15600*%
G04 #@! TA.AperFunction,ComponentPad*
%ADD102C,0.19498*%
G04 #@! TD.AperFunction*
X0Y0D02*
D02*
D27*
X74250Y65250D03*
Y75250D03*
Y85250D03*
Y100250D03*
Y110250D03*
Y120250D03*
X104250Y65250D03*
Y75250D03*
Y85250D03*
Y100250D03*
Y110250D03*
Y120250D03*
X119250Y50250D03*
Y60250D03*
Y70250D03*
Y80250D03*
Y90250D03*
Y100250D03*
Y110250D03*
X149250Y50250D03*
Y60250D03*
Y70250D03*
Y80250D03*
Y90250D03*
Y100250D03*
Y110250D03*
Y120250D03*
X169250Y230250D03*
X179250Y155250D03*
Y175250D03*
Y185250D03*
Y195250D03*
Y230250D03*
X189250Y50250D03*
Y60250D03*
Y70250D03*
Y80250D03*
Y90250D03*
Y100250D03*
Y110250D03*
X199250Y230250D03*
X209250Y155250D03*
Y175250D03*
Y185250D03*
Y195250D03*
Y205250D03*
Y230250D03*
X219250Y50250D03*
Y60250D03*
Y70250D03*
Y80250D03*
Y90250D03*
Y100250D03*
Y110250D03*
Y120250D03*
X229250Y185250D03*
X239250Y140250D03*
X249250Y110250D03*
Y140250D03*
X259250Y80250D03*
Y110250D03*
Y140250D03*
Y185250D03*
X269250Y50250D03*
Y80250D03*
Y110250D03*
Y140250D03*
X279250Y50250D03*
Y80250D03*
Y110250D03*
Y140250D03*
X284250Y190250D03*
Y220250D03*
X289250Y50250D03*
Y80250D03*
Y110250D03*
Y140250D03*
X294250Y190250D03*
Y220250D03*
X299250Y50250D03*
Y80250D03*
Y110250D03*
Y140250D03*
X309250Y50250D03*
Y80250D03*
Y110250D03*
Y140250D03*
Y190250D03*
Y220250D03*
X319250Y50250D03*
Y80250D03*
Y110250D03*
Y140250D03*
Y190250D03*
Y220250D03*
X329250Y110250D03*
Y140250D03*
Y190250D03*
Y220250D03*
X344250Y190250D03*
Y220250D03*
X354250Y190250D03*
Y220250D03*
X364250Y190250D03*
Y220250D03*
X379250Y190250D03*
Y220250D03*
X389250Y190250D03*
Y220250D03*
X405250Y190250D03*
Y220250D03*
D02*
D28*
X59250Y45250D03*
Y55250D03*
Y65250D03*
Y75250D03*
Y85250D03*
Y95250D03*
Y115250D03*
Y125250D03*
Y165250D03*
Y175250D03*
X119250Y120250D03*
X154250Y140250D03*
X164250Y40250D03*
Y50250D03*
Y60250D03*
Y70250D03*
Y80250D03*
Y90250D03*
Y100250D03*
Y110250D03*
Y120250D03*
Y140250D03*
X179250Y205250D03*
X182250Y140250D03*
X189250Y120250D03*
X192250Y140250D03*
X209250D03*
X219250D03*
X229250Y170250D03*
Y240250D03*
X239250Y110250D03*
Y170250D03*
Y240250D03*
X249250Y94250D03*
Y170250D03*
Y220250D03*
Y240250D03*
X259250Y50250D03*
Y94250D03*
Y170250D03*
Y220250D03*
Y240250D03*
X269250Y170250D03*
Y240250D03*
X279250Y170250D03*
Y240250D03*
X289250Y170250D03*
Y240250D03*
X299250Y170250D03*
Y240250D03*
X309250Y170250D03*
Y240250D03*
X319250Y170250D03*
Y240250D03*
X329250Y170250D03*
Y240250D03*
X339250Y170250D03*
Y240250D03*
X349250Y60250D03*
Y70250D03*
Y90250D03*
Y100250D03*
Y170250D03*
Y240250D03*
X359250Y170250D03*
Y240250D03*
X369250Y170250D03*
Y240250D03*
X379250Y170250D03*
Y240250D03*
X389250Y170250D03*
Y240250D03*
X399250Y170250D03*
Y240250D03*
X409250Y170250D03*
Y240250D03*
X419250Y170250D03*
Y200250D03*
Y210250D03*
Y240250D03*
D02*
D73*
X49250Y20250D03*
X59250D03*
X69250D03*
X79250D03*
X89250D03*
X99250D03*
X109250D03*
X119250D03*
X129250D03*
X139250D03*
X149250D03*
X159250D03*
X169250D03*
X179250D03*
X189250D03*
X199250D03*
X209250D03*
X219250D03*
X229250D03*
X239250D03*
X249250D03*
X259250D03*
X269250D03*
X279250D03*
X289250D03*
X299250D03*
X309250D03*
X319250D03*
X329250D03*
X339250D03*
X349250D03*
X359250D03*
X369250D03*
X379250D03*
X389250D03*
X399250D03*
X409250D03*
X419250D03*
X429250D03*
D02*
D100*
X63981Y145532D03*
D02*
D101*
X379250Y76266D03*
Y85262D03*
Y94258D03*
Y103254D03*
Y112250D03*
X389250Y80762D03*
Y89758D03*
Y98754D03*
Y107750D03*
Y116746D03*
X399250Y76266D03*
Y85262D03*
Y94258D03*
Y103254D03*
Y112250D03*
D02*
D102*
X389250Y46030D03*
Y144494D03*
D02*
D103*
X116250Y165250D03*
Y195171D03*
Y204620D03*
X0Y0D02*
M02*
