G04 DesignSpark PCB Gerber Version 10.0 Build 5299*
G04 #@! TF.Part,Single*
G04 #@! TF.FileFunction,Drillmap*
G04 #@! TF.FilePolarity,Positive*
%FSLAX35Y35*%
%MOIN*%
%ADD10C,0.00500*%
G04 #@! TA.AperFunction,ViaPad*
%ADD110C,0.10000*%
G04 #@! TD.AperFunction*
X0Y0D02*
D02*
D10*
X59250Y26187D02*
Y29937D01*
X62375D01*
X61750Y28063D02*
X59250D01*
Y26187D02*
X62375D01*
X69250D02*
Y29937D01*
X72375D01*
X71750Y28063D02*
X69250D01*
Y26187D02*
X72375D01*
Y51813D02*
X72063Y51500D01*
X71437Y51187D01*
X70500D01*
X69875Y51500D01*
X69563Y51813D01*
X69250Y52437D01*
Y53687D01*
X69563Y54313D01*
X69875Y54625D01*
X70500Y54937D01*
X71437D01*
X72063Y54625D01*
X72375Y54313D01*
Y61813D02*
X72063Y61500D01*
X71437Y61187D01*
X70500D01*
X69875Y61500D01*
X69563Y61813D01*
X69250Y62437D01*
Y63687D01*
X69563Y64313D01*
X69875Y64625D01*
X70500Y64937D01*
X71437D01*
X72063Y64625D01*
X72375Y64313D01*
Y71813D02*
X72063Y71500D01*
X71437Y71187D01*
X70500D01*
X69875Y71500D01*
X69563Y71813D01*
X69250Y72437D01*
Y73687D01*
X69563Y74313D01*
X69875Y74625D01*
X70500Y74937D01*
X71437D01*
X72063Y74625D01*
X72375Y74313D01*
Y81813D02*
X72063Y81500D01*
X71437Y81187D01*
X70500D01*
X69875Y81500D01*
X69563Y81813D01*
X69250Y82437D01*
Y83687D01*
X69563Y84313D01*
X69875Y84625D01*
X70500Y84937D01*
X71437D01*
X72063Y84625D01*
X72375Y84313D01*
Y91813D02*
X72063Y91500D01*
X71437Y91187D01*
X70500D01*
X69875Y91500D01*
X69563Y91813D01*
X69250Y92437D01*
Y93687D01*
X69563Y94313D01*
X69875Y94625D01*
X70500Y94937D01*
X71437D01*
X72063Y94625D01*
X72375Y94313D01*
Y101813D02*
X72063Y101500D01*
X71437Y101187D01*
X70500D01*
X69875Y101500D01*
X69563Y101813D01*
X69250Y102437D01*
Y103687D01*
X69563Y104313D01*
X69875Y104625D01*
X70500Y104937D01*
X71437D01*
X72063Y104625D01*
X72375Y104313D01*
Y121813D02*
X72063Y121500D01*
X71437Y121187D01*
X70500D01*
X69875Y121500D01*
X69563Y121813D01*
X69250Y122437D01*
Y123687D01*
X69563Y124313D01*
X69875Y124625D01*
X70500Y124937D01*
X71437D01*
X72063Y124625D01*
X72375Y124313D01*
Y131813D02*
X72063Y131500D01*
X71437Y131187D01*
X70500D01*
X69875Y131500D01*
X69563Y131813D01*
X69250Y132437D01*
Y133687D01*
X69563Y134313D01*
X69875Y134625D01*
X70500Y134937D01*
X71437D01*
X72063Y134625D01*
X72375Y134313D01*
Y171813D02*
X72063Y171500D01*
X71437Y171187D01*
X70500D01*
X69875Y171500D01*
X69563Y171813D01*
X69250Y172437D01*
Y173687D01*
X69563Y174313D01*
X69875Y174625D01*
X70500Y174937D01*
X71437D01*
X72063Y174625D01*
X72375Y174313D01*
Y181813D02*
X72063Y181500D01*
X71437Y181187D01*
X70500D01*
X69875Y181500D01*
X69563Y181813D01*
X69250Y182437D01*
Y183687D01*
X69563Y184313D01*
X69875Y184625D01*
X70500Y184937D01*
X71437D01*
X72063Y184625D01*
X72375Y184313D01*
X73981Y151469D02*
Y155219D01*
X77106D01*
X76481Y153344D02*
X73981D01*
X79250Y26187D02*
Y29937D01*
X82375D01*
X81750Y28063D02*
X79250D01*
Y26187D02*
X82375D01*
X84250Y71187D02*
X85813Y74937D01*
X87375Y71187D01*
X84875Y72750D02*
X86750D01*
X84250Y81187D02*
X85813Y84937D01*
X87375Y81187D01*
X84875Y82750D02*
X86750D01*
X84250Y91187D02*
X85813Y94937D01*
X87375Y91187D01*
X84875Y92750D02*
X86750D01*
X84250Y106187D02*
X85813Y109937D01*
X87375Y106187D01*
X84875Y107750D02*
X86750D01*
X84250Y116187D02*
X85813Y119937D01*
X87375Y116187D01*
X84875Y117750D02*
X86750D01*
X84250Y126187D02*
X85813Y129937D01*
X87375Y126187D01*
X84875Y127750D02*
X86750D01*
X89250Y26187D02*
Y29937D01*
X92375D01*
X91750Y28063D02*
X89250D01*
Y26187D02*
X92375D01*
X99250D02*
Y29937D01*
X102375D01*
X101750Y28063D02*
X99250D01*
Y26187D02*
X102375D01*
X109250D02*
Y29937D01*
X112375D01*
X111750Y28063D02*
X109250D01*
Y26187D02*
X112375D01*
X114250Y71187D02*
X115813Y74937D01*
X117375Y71187D01*
X114875Y72750D02*
X116750D01*
X114250Y81187D02*
X115813Y84937D01*
X117375Y81187D01*
X114875Y82750D02*
X116750D01*
X114250Y91187D02*
X115813Y94937D01*
X117375Y91187D01*
X114875Y92750D02*
X116750D01*
X114250Y106187D02*
X115813Y109937D01*
X117375Y106187D01*
X114875Y107750D02*
X116750D01*
X114250Y116187D02*
X115813Y119937D01*
X117375Y116187D01*
X114875Y117750D02*
X116750D01*
X114250Y126187D02*
X115813Y129937D01*
X117375Y126187D01*
X114875Y127750D02*
X116750D01*
X119250Y26187D02*
Y29937D01*
X122375D01*
X121750Y28063D02*
X119250D01*
Y26187D02*
X122375D01*
X127187Y171187D02*
X128437D01*
X127813D02*
Y174937D01*
X127187D02*
X128437D01*
X127187Y201109D02*
X128437D01*
X127813D02*
Y204859D01*
X127187D02*
X128437D01*
X127187Y210557D02*
X128437D01*
X127813D02*
Y214307D01*
X127187D02*
X128437D01*
X129250Y26187D02*
Y29937D01*
X132375D01*
X131750Y28063D02*
X129250D01*
Y26187D02*
X132375D01*
X129250Y56187D02*
X130813Y59937D01*
X132375Y56187D01*
X129875Y57750D02*
X131750D01*
X129250Y66187D02*
X130813Y69937D01*
X132375Y66187D01*
X129875Y67750D02*
X131750D01*
X129250Y76187D02*
X130813Y79937D01*
X132375Y76187D01*
X129875Y77750D02*
X131750D01*
X129250Y86187D02*
X130813Y89937D01*
X132375Y86187D01*
X129875Y87750D02*
X131750D01*
X129250Y96187D02*
X130813Y99937D01*
X132375Y96187D01*
X129875Y97750D02*
X131750D01*
X129250Y106187D02*
X130813Y109937D01*
X132375Y106187D01*
X129875Y107750D02*
X131750D01*
X129250Y116187D02*
X130813Y119937D01*
X132375Y116187D01*
X129875Y117750D02*
X131750D01*
X129250Y126187D02*
X130813Y129937D01*
X132375Y126187D01*
X129875Y127750D02*
X131750D01*
X139250Y26187D02*
Y29937D01*
X142375D01*
X141750Y28063D02*
X139250D01*
Y26187D02*
X142375D01*
X142437Y43063D02*
X143063Y42750D01*
X143375Y42125D01*
X143063Y41500D01*
X142437Y41187D01*
X140250D01*
Y44937D01*
X142437D01*
X143063Y44625D01*
X143375Y44000D01*
X143063Y43375D01*
X142437Y43063D01*
X140250D01*
X149250Y26187D02*
Y29937D01*
X152375D01*
X151750Y28063D02*
X149250D01*
Y26187D02*
X152375D01*
X159250D02*
Y29937D01*
X162375D01*
X161750Y28063D02*
X159250D01*
Y26187D02*
X162375D01*
X159250Y56187D02*
X160813Y59937D01*
X162375Y56187D01*
X159875Y57750D02*
X161750D01*
X159250Y66187D02*
X160813Y69937D01*
X162375Y66187D01*
X159875Y67750D02*
X161750D01*
X159250Y76187D02*
X160813Y79937D01*
X162375Y76187D01*
X159875Y77750D02*
X161750D01*
X159250Y86187D02*
X160813Y89937D01*
X162375Y86187D01*
X159875Y87750D02*
X161750D01*
X159250Y96187D02*
X160813Y99937D01*
X162375Y96187D01*
X159875Y97750D02*
X161750D01*
X159250Y106187D02*
X160813Y109937D01*
X162375Y106187D01*
X159875Y107750D02*
X161750D01*
X159250Y116187D02*
X160813Y119937D01*
X162375Y116187D01*
X159875Y117750D02*
X161750D01*
X159250Y126187D02*
X160813Y129937D01*
X162375Y126187D01*
X159875Y127750D02*
X161750D01*
X166437Y43063D02*
X167063Y42750D01*
X167375Y42125D01*
X167063Y41500D01*
X166437Y41187D01*
X164250D01*
Y44937D01*
X166437D01*
X167063Y44625D01*
X167375Y44000D01*
X167063Y43375D01*
X166437Y43063D01*
X164250D01*
X167375Y146813D02*
X167063Y146500D01*
X166437Y146187D01*
X165500D01*
X164875Y146500D01*
X164563Y146813D01*
X164250Y147437D01*
Y148687D01*
X164563Y149313D01*
X164875Y149625D01*
X165500Y149937D01*
X166437D01*
X167063Y149625D01*
X167375Y149313D01*
X169250Y26187D02*
Y29937D01*
X172375D01*
X171750Y28063D02*
X169250D01*
Y26187D02*
X172375D01*
X177375Y46813D02*
X177063Y46500D01*
X176437Y46187D01*
X175500D01*
X174875Y46500D01*
X174563Y46813D01*
X174250Y47437D01*
Y48687D01*
X174563Y49313D01*
X174875Y49625D01*
X175500Y49937D01*
X176437D01*
X177063Y49625D01*
X177375Y49313D01*
Y56813D02*
X177063Y56500D01*
X176437Y56187D01*
X175500D01*
X174875Y56500D01*
X174563Y56813D01*
X174250Y57437D01*
Y58687D01*
X174563Y59313D01*
X174875Y59625D01*
X175500Y59937D01*
X176437D01*
X177063Y59625D01*
X177375Y59313D01*
Y66813D02*
X177063Y66500D01*
X176437Y66187D01*
X175500D01*
X174875Y66500D01*
X174563Y66813D01*
X174250Y67437D01*
Y68687D01*
X174563Y69313D01*
X174875Y69625D01*
X175500Y69937D01*
X176437D01*
X177063Y69625D01*
X177375Y69313D01*
Y76813D02*
X177063Y76500D01*
X176437Y76187D01*
X175500D01*
X174875Y76500D01*
X174563Y76813D01*
X174250Y77437D01*
Y78687D01*
X174563Y79313D01*
X174875Y79625D01*
X175500Y79937D01*
X176437D01*
X177063Y79625D01*
X177375Y79313D01*
Y86813D02*
X177063Y86500D01*
X176437Y86187D01*
X175500D01*
X174875Y86500D01*
X174563Y86813D01*
X174250Y87437D01*
Y88687D01*
X174563Y89313D01*
X174875Y89625D01*
X175500Y89937D01*
X176437D01*
X177063Y89625D01*
X177375Y89313D01*
Y96813D02*
X177063Y96500D01*
X176437Y96187D01*
X175500D01*
X174875Y96500D01*
X174563Y96813D01*
X174250Y97437D01*
Y98687D01*
X174563Y99313D01*
X174875Y99625D01*
X175500Y99937D01*
X176437D01*
X177063Y99625D01*
X177375Y99313D01*
Y106813D02*
X177063Y106500D01*
X176437Y106187D01*
X175500D01*
X174875Y106500D01*
X174563Y106813D01*
X174250Y107437D01*
Y108687D01*
X174563Y109313D01*
X174875Y109625D01*
X175500Y109937D01*
X176437D01*
X177063Y109625D01*
X177375Y109313D01*
Y116813D02*
X177063Y116500D01*
X176437Y116187D01*
X175500D01*
X174875Y116500D01*
X174563Y116813D01*
X174250Y117437D01*
Y118687D01*
X174563Y119313D01*
X174875Y119625D01*
X175500Y119937D01*
X176437D01*
X177063Y119625D01*
X177375Y119313D01*
Y126813D02*
X177063Y126500D01*
X176437Y126187D01*
X175500D01*
X174875Y126500D01*
X174563Y126813D01*
X174250Y127437D01*
Y128687D01*
X174563Y129313D01*
X174875Y129625D01*
X175500Y129937D01*
X176437D01*
X177063Y129625D01*
X177375Y129313D01*
Y146813D02*
X177063Y146500D01*
X176437Y146187D01*
X175500D01*
X174875Y146500D01*
X174563Y146813D01*
X174250Y147437D01*
Y148687D01*
X174563Y149313D01*
X174875Y149625D01*
X175500Y149937D01*
X176437D01*
X177063Y149625D01*
X177375Y149313D01*
X179250Y26187D02*
Y29937D01*
X182375D01*
X181750Y28063D02*
X179250D01*
Y26187D02*
X182375D01*
X179250Y236187D02*
X180813Y239937D01*
X182375Y236187D01*
X179875Y237750D02*
X181750D01*
X189250Y26187D02*
Y29937D01*
X192375D01*
X191750Y28063D02*
X189250D01*
Y26187D02*
X192375D01*
X189250Y161187D02*
X190813Y164937D01*
X192375Y161187D01*
X189875Y162750D02*
X191750D01*
X189250Y181187D02*
X190813Y184937D01*
X192375Y181187D01*
X189875Y182750D02*
X191750D01*
X189250Y191187D02*
X190813Y194937D01*
X192375Y191187D01*
X189875Y192750D02*
X191750D01*
X189250Y201187D02*
X190813Y204937D01*
X192375Y201187D01*
X189875Y202750D02*
X191750D01*
X189250Y211187D02*
X190813Y214937D01*
X192375Y211187D01*
X189875Y212750D02*
X191750D01*
X189250Y236187D02*
X190813Y239937D01*
X192375Y236187D01*
X189875Y237750D02*
X191750D01*
X192437Y50063D02*
X193063Y49750D01*
X193375Y49125D01*
X193063Y48500D01*
X192437Y48187D01*
X190250D01*
Y51937D01*
X192437D01*
X193063Y51625D01*
X193375Y51000D01*
X193063Y50375D01*
X192437Y50063D01*
X190250D01*
X195375Y146813D02*
X195063Y146500D01*
X194437Y146187D01*
X193500D01*
X192875Y146500D01*
X192563Y146813D01*
X192250Y147437D01*
Y148687D01*
X192563Y149313D01*
X192875Y149625D01*
X193500Y149937D01*
X194437D01*
X195063Y149625D01*
X195375Y149313D01*
X199250Y26187D02*
Y29937D01*
X202375D01*
X201750Y28063D02*
X199250D01*
Y26187D02*
X202375D01*
X199250Y56187D02*
X200813Y59937D01*
X202375Y56187D01*
X199875Y57750D02*
X201750D01*
X199250Y66187D02*
X200813Y69937D01*
X202375Y66187D01*
X199875Y67750D02*
X201750D01*
X199250Y76187D02*
X200813Y79937D01*
X202375Y76187D01*
X199875Y77750D02*
X201750D01*
X199250Y86187D02*
X200813Y89937D01*
X202375Y86187D01*
X199875Y87750D02*
X201750D01*
X199250Y96187D02*
X200813Y99937D01*
X202375Y96187D01*
X199875Y97750D02*
X201750D01*
X199250Y106187D02*
X200813Y109937D01*
X202375Y106187D01*
X199875Y107750D02*
X201750D01*
X199250Y116187D02*
X200813Y119937D01*
X202375Y116187D01*
X199875Y117750D02*
X201750D01*
X199250Y126187D02*
X200813Y129937D01*
X202375Y126187D01*
X199875Y127750D02*
X201750D01*
X205375Y146813D02*
X205063Y146500D01*
X204437Y146187D01*
X203500D01*
X202875Y146500D01*
X202563Y146813D01*
X202250Y147437D01*
Y148687D01*
X202563Y149313D01*
X202875Y149625D01*
X203500Y149937D01*
X204437D01*
X205063Y149625D01*
X205375Y149313D01*
X209250Y26187D02*
Y29937D01*
X212375D01*
X211750Y28063D02*
X209250D01*
Y26187D02*
X212375D01*
X209250Y236187D02*
X210813Y239937D01*
X212375Y236187D01*
X209875Y237750D02*
X211750D01*
X219250Y26187D02*
Y29937D01*
X222375D01*
X221750Y28063D02*
X219250D01*
Y26187D02*
X222375D01*
Y146813D02*
X222063Y146500D01*
X221437Y146187D01*
X220500D01*
X219875Y146500D01*
X219563Y146813D01*
X219250Y147437D01*
Y148687D01*
X219563Y149313D01*
X219875Y149625D01*
X220500Y149937D01*
X221437D01*
X222063Y149625D01*
X222375Y149313D01*
X219250Y161187D02*
X220813Y164937D01*
X222375Y161187D01*
X219875Y162750D02*
X221750D01*
X219250Y181187D02*
X220813Y184937D01*
X222375Y181187D01*
X219875Y182750D02*
X221750D01*
X219250Y191187D02*
X220813Y194937D01*
X222375Y191187D01*
X219875Y192750D02*
X221750D01*
X219250Y201187D02*
X220813Y204937D01*
X222375Y201187D01*
X219875Y202750D02*
X221750D01*
X219250Y211187D02*
X220813Y214937D01*
X222375Y211187D01*
X219875Y212750D02*
X221750D01*
X219250Y236187D02*
X220813Y239937D01*
X222375Y236187D01*
X219875Y237750D02*
X221750D01*
X224437Y63063D02*
X225063Y62750D01*
X225375Y62125D01*
X225063Y61500D01*
X224437Y61187D01*
X222250D01*
Y64937D01*
X224437D01*
X225063Y64625D01*
X225375Y64000D01*
X225063Y63375D01*
X224437Y63063D01*
X222250D01*
X224437Y139063D02*
X225063Y138750D01*
X225375Y138125D01*
X225063Y137500D01*
X224437Y137187D01*
X222250D01*
Y140937D01*
X224437D01*
X225063Y140625D01*
X225375Y140000D01*
X225063Y139375D01*
X224437Y139063D01*
X222250D01*
X229250Y26187D02*
Y29937D01*
X232375D01*
X231750Y28063D02*
X229250D01*
Y26187D02*
X232375D01*
X229250Y56187D02*
X230813Y59937D01*
X232375Y56187D01*
X229875Y57750D02*
X231750D01*
X229250Y66187D02*
X230813Y69937D01*
X232375Y66187D01*
X229875Y67750D02*
X231750D01*
X229250Y76187D02*
X230813Y79937D01*
X232375Y76187D01*
X229875Y77750D02*
X231750D01*
X229250Y86187D02*
X230813Y89937D01*
X232375Y86187D01*
X229875Y87750D02*
X231750D01*
X229250Y96187D02*
X230813Y99937D01*
X232375Y96187D01*
X229875Y97750D02*
X231750D01*
X229250Y106187D02*
X230813Y109937D01*
X232375Y106187D01*
X229875Y107750D02*
X231750D01*
X229250Y116187D02*
X230813Y119937D01*
X232375Y116187D01*
X229875Y117750D02*
X231750D01*
X229250Y126187D02*
X230813Y129937D01*
X232375Y126187D01*
X229875Y127750D02*
X231750D01*
X232375Y146813D02*
X232063Y146500D01*
X231437Y146187D01*
X230500D01*
X229875Y146500D01*
X229563Y146813D01*
X229250Y147437D01*
Y148687D01*
X229563Y149313D01*
X229875Y149625D01*
X230500Y149937D01*
X231437D01*
X232063Y149625D01*
X232375Y149313D01*
X239250Y26187D02*
Y29937D01*
X242375D01*
X241750Y28063D02*
X239250D01*
Y26187D02*
X242375D01*
X241437Y83063D02*
X242063Y82750D01*
X242375Y82125D01*
X242063Y81500D01*
X241437Y81187D01*
X239250D01*
Y84937D01*
X241437D01*
X242063Y84625D01*
X242375Y84000D01*
X242063Y83375D01*
X241437Y83063D01*
X239250D01*
X242375Y176813D02*
X242063Y176500D01*
X241437Y176187D01*
X240500D01*
X239875Y176500D01*
X239563Y176813D01*
X239250Y177437D01*
Y178687D01*
X239563Y179313D01*
X239875Y179625D01*
X240500Y179937D01*
X241437D01*
X242063Y179625D01*
X242375Y179313D01*
X239250Y191187D02*
X240813Y194937D01*
X242375Y191187D01*
X239875Y192750D02*
X241750D01*
X242375Y246813D02*
X242063Y246500D01*
X241437Y246187D01*
X240500D01*
X239875Y246500D01*
X239563Y246813D01*
X239250Y247437D01*
Y248687D01*
X239563Y249313D01*
X239875Y249625D01*
X240500Y249937D01*
X241437D01*
X242063Y249625D01*
X242375Y249313D01*
X244250Y35187D02*
X245813Y38937D01*
X247375Y35187D01*
X244875Y36750D02*
X246750D01*
X244250Y46187D02*
X245813Y49937D01*
X247375Y46187D01*
X244875Y47750D02*
X246750D01*
X246437Y68063D02*
X247063Y67750D01*
X247375Y67125D01*
X247063Y66500D01*
X246437Y66187D01*
X244250D01*
Y69937D01*
X246437D01*
X247063Y69625D01*
X247375Y69000D01*
X247063Y68375D01*
X246437Y68063D01*
X244250D01*
X246437Y93063D02*
X247063Y92750D01*
X247375Y92125D01*
X247063Y91500D01*
X246437Y91187D01*
X244250D01*
Y94937D01*
X246437D01*
X247063Y94625D01*
X247375Y94000D01*
X247063Y93375D01*
X246437Y93063D01*
X244250D01*
X246437Y210063D02*
X247063Y209750D01*
X247375Y209125D01*
X247063Y208500D01*
X246437Y208187D01*
X244250D01*
Y211937D01*
X246437D01*
X247063Y211625D01*
X247375Y211000D01*
X247063Y210375D01*
X246437Y210063D01*
X244250D01*
X249250Y26187D02*
Y29937D01*
X252375D01*
X251750Y28063D02*
X249250D01*
Y26187D02*
X252375D01*
X251437Y78063D02*
X252063Y77750D01*
X252375Y77125D01*
X252063Y76500D01*
X251437Y76187D01*
X249250D01*
Y79937D01*
X251437D01*
X252063Y79625D01*
X252375Y79000D01*
X252063Y78375D01*
X251437Y78063D01*
X249250D01*
Y116187D02*
X250813Y119937D01*
X252375Y116187D01*
X249875Y117750D02*
X251750D01*
X249250Y146187D02*
X250813Y149937D01*
X252375Y146187D01*
X249875Y147750D02*
X251750D01*
X252375Y176813D02*
X252063Y176500D01*
X251437Y176187D01*
X250500D01*
X249875Y176500D01*
X249563Y176813D01*
X249250Y177437D01*
Y178687D01*
X249563Y179313D01*
X249875Y179625D01*
X250500Y179937D01*
X251437D01*
X252063Y179625D01*
X252375Y179313D01*
Y246813D02*
X252063Y246500D01*
X251437Y246187D01*
X250500D01*
X249875Y246500D01*
X249563Y246813D01*
X249250Y247437D01*
Y248687D01*
X249563Y249313D01*
X249875Y249625D01*
X250500Y249937D01*
X251437D01*
X252063Y249625D01*
X252375Y249313D01*
X256437Y204063D02*
X257063Y203750D01*
X257375Y203125D01*
X257063Y202500D01*
X256437Y202187D01*
X254250D01*
Y205937D01*
X256437D01*
X257063Y205625D01*
X257375Y205000D01*
X257063Y204375D01*
X256437Y204063D01*
X254250D01*
X258437Y38063D02*
X259063Y37750D01*
X259375Y37125D01*
X259063Y36500D01*
X258437Y36187D01*
X256250D01*
Y39937D01*
X258437D01*
X259063Y39625D01*
X259375Y39000D01*
X259063Y38375D01*
X258437Y38063D01*
X256250D01*
X258437Y83063D02*
X259063Y82750D01*
X259375Y82125D01*
X259063Y81500D01*
X258437Y81187D01*
X256250D01*
Y84937D01*
X258437D01*
X259063Y84625D01*
X259375Y84000D01*
X259063Y83375D01*
X258437Y83063D01*
X256250D01*
X259250Y26187D02*
Y29937D01*
X262375D01*
X261750Y28063D02*
X259250D01*
Y26187D02*
X262375D01*
Y100813D02*
X262063Y100500D01*
X261437Y100187D01*
X260500D01*
X259875Y100500D01*
X259563Y100813D01*
X259250Y101437D01*
Y102687D01*
X259563Y103313D01*
X259875Y103625D01*
X260500Y103937D01*
X261437D01*
X262063Y103625D01*
X262375Y103313D01*
X259250Y116187D02*
X260813Y119937D01*
X262375Y116187D01*
X259875Y117750D02*
X261750D01*
X259250Y146187D02*
X260813Y149937D01*
X262375Y146187D01*
X259875Y147750D02*
X261750D01*
X262375Y176813D02*
X262063Y176500D01*
X261437Y176187D01*
X260500D01*
X259875Y176500D01*
X259563Y176813D01*
X259250Y177437D01*
Y178687D01*
X259563Y179313D01*
X259875Y179625D01*
X260500Y179937D01*
X261437D01*
X262063Y179625D01*
X262375Y179313D01*
Y226813D02*
X262063Y226500D01*
X261437Y226187D01*
X260500D01*
X259875Y226500D01*
X259563Y226813D01*
X259250Y227437D01*
Y228687D01*
X259563Y229313D01*
X259875Y229625D01*
X260500Y229937D01*
X261437D01*
X262063Y229625D01*
X262375Y229313D01*
Y246813D02*
X262063Y246500D01*
X261437Y246187D01*
X260500D01*
X259875Y246500D01*
X259563Y246813D01*
X259250Y247437D01*
Y248687D01*
X259563Y249313D01*
X259875Y249625D01*
X260500Y249937D01*
X261437D01*
X262063Y249625D01*
X262375Y249313D01*
X269250Y26187D02*
Y29937D01*
X272375D01*
X271750Y28063D02*
X269250D01*
Y26187D02*
X272375D01*
X271437Y41063D02*
X272063Y40750D01*
X272375Y40125D01*
X272063Y39500D01*
X271437Y39187D01*
X269250D01*
Y42937D01*
X271437D01*
X272063Y42625D01*
X272375Y42000D01*
X272063Y41375D01*
X271437Y41063D01*
X269250D01*
Y56187D02*
X270813Y59937D01*
X272375Y56187D01*
X269875Y57750D02*
X271750D01*
X269250Y86187D02*
X270813Y89937D01*
X272375Y86187D01*
X269875Y87750D02*
X271750D01*
X272375Y100813D02*
X272063Y100500D01*
X271437Y100187D01*
X270500D01*
X269875Y100500D01*
X269563Y100813D01*
X269250Y101437D01*
Y102687D01*
X269563Y103313D01*
X269875Y103625D01*
X270500Y103937D01*
X271437D01*
X272063Y103625D01*
X272375Y103313D01*
X269250Y116187D02*
X270813Y119937D01*
X272375Y116187D01*
X269875Y117750D02*
X271750D01*
X269250Y146187D02*
X270813Y149937D01*
X272375Y146187D01*
X269875Y147750D02*
X271750D01*
X272375Y176813D02*
X272063Y176500D01*
X271437Y176187D01*
X270500D01*
X269875Y176500D01*
X269563Y176813D01*
X269250Y177437D01*
Y178687D01*
X269563Y179313D01*
X269875Y179625D01*
X270500Y179937D01*
X271437D01*
X272063Y179625D01*
X272375Y179313D01*
X269250Y191187D02*
X270813Y194937D01*
X272375Y191187D01*
X269875Y192750D02*
X271750D01*
X272375Y226813D02*
X272063Y226500D01*
X271437Y226187D01*
X270500D01*
X269875Y226500D01*
X269563Y226813D01*
X269250Y227437D01*
Y228687D01*
X269563Y229313D01*
X269875Y229625D01*
X270500Y229937D01*
X271437D01*
X272063Y229625D01*
X272375Y229313D01*
Y246813D02*
X272063Y246500D01*
X271437Y246187D01*
X270500D01*
X269875Y246500D01*
X269563Y246813D01*
X269250Y247437D01*
Y248687D01*
X269563Y249313D01*
X269875Y249625D01*
X270500Y249937D01*
X271437D01*
X272063Y249625D01*
X272375Y249313D01*
X279250Y26187D02*
Y29937D01*
X282375D01*
X281750Y28063D02*
X279250D01*
Y26187D02*
X282375D01*
X279250Y56187D02*
X280813Y59937D01*
X282375Y56187D01*
X279875Y57750D02*
X281750D01*
X281437Y68063D02*
X282063Y67750D01*
X282375Y67125D01*
X282063Y66500D01*
X281437Y66187D01*
X279250D01*
Y69937D01*
X281437D01*
X282063Y69625D01*
X282375Y69000D01*
X282063Y68375D01*
X281437Y68063D01*
X279250D01*
Y86187D02*
X280813Y89937D01*
X282375Y86187D01*
X279875Y87750D02*
X281750D01*
X279250Y116187D02*
X280813Y119937D01*
X282375Y116187D01*
X279875Y117750D02*
X281750D01*
X279250Y146187D02*
X280813Y149937D01*
X282375Y146187D01*
X279875Y147750D02*
X281750D01*
X282375Y176813D02*
X282063Y176500D01*
X281437Y176187D01*
X280500D01*
X279875Y176500D01*
X279563Y176813D01*
X279250Y177437D01*
Y178687D01*
X279563Y179313D01*
X279875Y179625D01*
X280500Y179937D01*
X281437D01*
X282063Y179625D01*
X282375Y179313D01*
X281437Y195063D02*
X282063Y194750D01*
X282375Y194125D01*
X282063Y193500D01*
X281437Y193187D01*
X279250D01*
Y196937D01*
X281437D01*
X282063Y196625D01*
X282375Y196000D01*
X282063Y195375D01*
X281437Y195063D01*
X279250D01*
X282375Y246813D02*
X282063Y246500D01*
X281437Y246187D01*
X280500D01*
X279875Y246500D01*
X279563Y246813D01*
X279250Y247437D01*
Y248687D01*
X279563Y249313D01*
X279875Y249625D01*
X280500Y249937D01*
X281437D01*
X282063Y249625D01*
X282375Y249313D01*
X289250Y26187D02*
Y29937D01*
X292375D01*
X291750Y28063D02*
X289250D01*
Y26187D02*
X292375D01*
X289250Y56187D02*
X290813Y59937D01*
X292375Y56187D01*
X289875Y57750D02*
X291750D01*
X289250Y86187D02*
X290813Y89937D01*
X292375Y86187D01*
X289875Y87750D02*
X291750D01*
X289250Y116187D02*
X290813Y119937D01*
X292375Y116187D01*
X289875Y117750D02*
X291750D01*
X289250Y146187D02*
X290813Y149937D01*
X292375Y146187D01*
X289875Y147750D02*
X291750D01*
X292375Y176813D02*
X292063Y176500D01*
X291437Y176187D01*
X290500D01*
X289875Y176500D01*
X289563Y176813D01*
X289250Y177437D01*
Y178687D01*
X289563Y179313D01*
X289875Y179625D01*
X290500Y179937D01*
X291437D01*
X292063Y179625D01*
X292375Y179313D01*
Y246813D02*
X292063Y246500D01*
X291437Y246187D01*
X290500D01*
X289875Y246500D01*
X289563Y246813D01*
X289250Y247437D01*
Y248687D01*
X289563Y249313D01*
X289875Y249625D01*
X290500Y249937D01*
X291437D01*
X292063Y249625D01*
X292375Y249313D01*
X294250Y196187D02*
X295813Y199937D01*
X297375Y196187D01*
X294875Y197750D02*
X296750D01*
X294250Y226187D02*
X295813Y229937D01*
X297375Y226187D01*
X294875Y227750D02*
X296750D01*
X299250Y26187D02*
Y29937D01*
X302375D01*
X301750Y28063D02*
X299250D01*
Y26187D02*
X302375D01*
X299250Y56187D02*
X300813Y59937D01*
X302375Y56187D01*
X299875Y57750D02*
X301750D01*
X299250Y86187D02*
X300813Y89937D01*
X302375Y86187D01*
X299875Y87750D02*
X301750D01*
X299250Y116187D02*
X300813Y119937D01*
X302375Y116187D01*
X299875Y117750D02*
X301750D01*
X299250Y146187D02*
X300813Y149937D01*
X302375Y146187D01*
X299875Y147750D02*
X301750D01*
X302375Y176813D02*
X302063Y176500D01*
X301437Y176187D01*
X300500D01*
X299875Y176500D01*
X299563Y176813D01*
X299250Y177437D01*
Y178687D01*
X299563Y179313D01*
X299875Y179625D01*
X300500Y179937D01*
X301437D01*
X302063Y179625D01*
X302375Y179313D01*
Y246813D02*
X302063Y246500D01*
X301437Y246187D01*
X300500D01*
X299875Y246500D01*
X299563Y246813D01*
X299250Y247437D01*
Y248687D01*
X299563Y249313D01*
X299875Y249625D01*
X300500Y249937D01*
X301437D01*
X302063Y249625D01*
X302375Y249313D01*
X304250Y196187D02*
X305813Y199937D01*
X307375Y196187D01*
X304875Y197750D02*
X306750D01*
X304250Y226187D02*
X305813Y229937D01*
X307375Y226187D01*
X304875Y227750D02*
X306750D01*
X309250Y26187D02*
Y29937D01*
X312375D01*
X311750Y28063D02*
X309250D01*
Y26187D02*
X312375D01*
X309250Y56187D02*
X310813Y59937D01*
X312375Y56187D01*
X309875Y57750D02*
X311750D01*
X309250Y86187D02*
X310813Y89937D01*
X312375Y86187D01*
X309875Y87750D02*
X311750D01*
X309250Y116187D02*
X310813Y119937D01*
X312375Y116187D01*
X309875Y117750D02*
X311750D01*
X309250Y146187D02*
X310813Y149937D01*
X312375Y146187D01*
X309875Y147750D02*
X311750D01*
X312375Y176813D02*
X312063Y176500D01*
X311437Y176187D01*
X310500D01*
X309875Y176500D01*
X309563Y176813D01*
X309250Y177437D01*
Y178687D01*
X309563Y179313D01*
X309875Y179625D01*
X310500Y179937D01*
X311437D01*
X312063Y179625D01*
X312375Y179313D01*
Y246813D02*
X312063Y246500D01*
X311437Y246187D01*
X310500D01*
X309875Y246500D01*
X309563Y246813D01*
X309250Y247437D01*
Y248687D01*
X309563Y249313D01*
X309875Y249625D01*
X310500Y249937D01*
X311437D01*
X312063Y249625D01*
X312375Y249313D01*
X319250Y26187D02*
Y29937D01*
X322375D01*
X321750Y28063D02*
X319250D01*
Y26187D02*
X322375D01*
X319250Y56187D02*
X320813Y59937D01*
X322375Y56187D01*
X319875Y57750D02*
X321750D01*
X319250Y86187D02*
X320813Y89937D01*
X322375Y86187D01*
X319875Y87750D02*
X321750D01*
X319250Y116187D02*
X320813Y119937D01*
X322375Y116187D01*
X319875Y117750D02*
X321750D01*
X319250Y146187D02*
X320813Y149937D01*
X322375Y146187D01*
X319875Y147750D02*
X321750D01*
X322375Y176813D02*
X322063Y176500D01*
X321437Y176187D01*
X320500D01*
X319875Y176500D01*
X319563Y176813D01*
X319250Y177437D01*
Y178687D01*
X319563Y179313D01*
X319875Y179625D01*
X320500Y179937D01*
X321437D01*
X322063Y179625D01*
X322375Y179313D01*
X319250Y196187D02*
X320813Y199937D01*
X322375Y196187D01*
X319875Y197750D02*
X321750D01*
X319250Y226187D02*
X320813Y229937D01*
X322375Y226187D01*
X319875Y227750D02*
X321750D01*
X322375Y246813D02*
X322063Y246500D01*
X321437Y246187D01*
X320500D01*
X319875Y246500D01*
X319563Y246813D01*
X319250Y247437D01*
Y248687D01*
X319563Y249313D01*
X319875Y249625D01*
X320500Y249937D01*
X321437D01*
X322063Y249625D01*
X322375Y249313D01*
X329250Y26187D02*
Y29937D01*
X332375D01*
X331750Y28063D02*
X329250D01*
Y26187D02*
X332375D01*
X329250Y56187D02*
X330813Y59937D01*
X332375Y56187D01*
X329875Y57750D02*
X331750D01*
X329250Y86187D02*
X330813Y89937D01*
X332375Y86187D01*
X329875Y87750D02*
X331750D01*
X329250Y116187D02*
X330813Y119937D01*
X332375Y116187D01*
X329875Y117750D02*
X331750D01*
X329250Y146187D02*
X330813Y149937D01*
X332375Y146187D01*
X329875Y147750D02*
X331750D01*
X332375Y176813D02*
X332063Y176500D01*
X331437Y176187D01*
X330500D01*
X329875Y176500D01*
X329563Y176813D01*
X329250Y177437D01*
Y178687D01*
X329563Y179313D01*
X329875Y179625D01*
X330500Y179937D01*
X331437D01*
X332063Y179625D01*
X332375Y179313D01*
X329250Y196187D02*
X330813Y199937D01*
X332375Y196187D01*
X329875Y197750D02*
X331750D01*
X329250Y226187D02*
X330813Y229937D01*
X332375Y226187D01*
X329875Y227750D02*
X331750D01*
X332375Y246813D02*
X332063Y246500D01*
X331437Y246187D01*
X330500D01*
X329875Y246500D01*
X329563Y246813D01*
X329250Y247437D01*
Y248687D01*
X329563Y249313D01*
X329875Y249625D01*
X330500Y249937D01*
X331437D01*
X332063Y249625D01*
X332375Y249313D01*
X339250Y26187D02*
Y29937D01*
X342375D01*
X341750Y28063D02*
X339250D01*
Y26187D02*
X342375D01*
X339250Y116187D02*
X340813Y119937D01*
X342375Y116187D01*
X339875Y117750D02*
X341750D01*
X339250Y146187D02*
X340813Y149937D01*
X342375Y146187D01*
X339875Y147750D02*
X341750D01*
X342375Y176813D02*
X342063Y176500D01*
X341437Y176187D01*
X340500D01*
X339875Y176500D01*
X339563Y176813D01*
X339250Y177437D01*
Y178687D01*
X339563Y179313D01*
X339875Y179625D01*
X340500Y179937D01*
X341437D01*
X342063Y179625D01*
X342375Y179313D01*
X339250Y196187D02*
X340813Y199937D01*
X342375Y196187D01*
X339875Y197750D02*
X341750D01*
X339250Y226187D02*
X340813Y229937D01*
X342375Y226187D01*
X339875Y227750D02*
X341750D01*
X342375Y246813D02*
X342063Y246500D01*
X341437Y246187D01*
X340500D01*
X339875Y246500D01*
X339563Y246813D01*
X339250Y247437D01*
Y248687D01*
X339563Y249313D01*
X339875Y249625D01*
X340500Y249937D01*
X341437D01*
X342063Y249625D01*
X342375Y249313D01*
X344437Y162063D02*
X345063Y161750D01*
X345375Y161125D01*
X345063Y160500D01*
X344437Y160187D01*
X342250D01*
Y163937D01*
X344437D01*
X345063Y163625D01*
X345375Y163000D01*
X345063Y162375D01*
X344437Y162063D01*
X342250D01*
X348437Y71063D02*
X349063Y70750D01*
X349375Y70125D01*
X349063Y69500D01*
X348437Y69187D01*
X346250D01*
Y72937D01*
X348437D01*
X349063Y72625D01*
X349375Y72000D01*
X349063Y71375D01*
X348437Y71063D01*
X346250D01*
X349250Y26187D02*
Y29937D01*
X352375D01*
X351750Y28063D02*
X349250D01*
Y26187D02*
X352375D01*
X351437Y162063D02*
X352063Y161750D01*
X352375Y161125D01*
X352063Y160500D01*
X351437Y160187D01*
X349250D01*
Y163937D01*
X351437D01*
X352063Y163625D01*
X352375Y163000D01*
X352063Y162375D01*
X351437Y162063D01*
X349250D01*
X352375Y176813D02*
X352063Y176500D01*
X351437Y176187D01*
X350500D01*
X349875Y176500D01*
X349563Y176813D01*
X349250Y177437D01*
Y178687D01*
X349563Y179313D01*
X349875Y179625D01*
X350500Y179937D01*
X351437D01*
X352063Y179625D01*
X352375Y179313D01*
Y246813D02*
X352063Y246500D01*
X351437Y246187D01*
X350500D01*
X349875Y246500D01*
X349563Y246813D01*
X349250Y247437D01*
Y248687D01*
X349563Y249313D01*
X349875Y249625D01*
X350500Y249937D01*
X351437D01*
X352063Y249625D01*
X352375Y249313D01*
X354250Y196187D02*
X355813Y199937D01*
X357375Y196187D01*
X354875Y197750D02*
X356750D01*
X354250Y226187D02*
X355813Y229937D01*
X357375Y226187D01*
X354875Y227750D02*
X356750D01*
X358437Y162063D02*
X359063Y161750D01*
X359375Y161125D01*
X359063Y160500D01*
X358437Y160187D01*
X356250D01*
Y163937D01*
X358437D01*
X359063Y163625D01*
X359375Y163000D01*
X359063Y162375D01*
X358437Y162063D01*
X356250D01*
X359250Y26187D02*
Y29937D01*
X362375D01*
X361750Y28063D02*
X359250D01*
Y26187D02*
X362375D01*
Y66813D02*
X362063Y66500D01*
X361437Y66187D01*
X360500D01*
X359875Y66500D01*
X359563Y66813D01*
X359250Y67437D01*
Y68687D01*
X359563Y69313D01*
X359875Y69625D01*
X360500Y69937D01*
X361437D01*
X362063Y69625D01*
X362375Y69313D01*
Y76813D02*
X362063Y76500D01*
X361437Y76187D01*
X360500D01*
X359875Y76500D01*
X359563Y76813D01*
X359250Y77437D01*
Y78687D01*
X359563Y79313D01*
X359875Y79625D01*
X360500Y79937D01*
X361437D01*
X362063Y79625D01*
X362375Y79313D01*
Y96813D02*
X362063Y96500D01*
X361437Y96187D01*
X360500D01*
X359875Y96500D01*
X359563Y96813D01*
X359250Y97437D01*
Y98687D01*
X359563Y99313D01*
X359875Y99625D01*
X360500Y99937D01*
X361437D01*
X362063Y99625D01*
X362375Y99313D01*
Y106813D02*
X362063Y106500D01*
X361437Y106187D01*
X360500D01*
X359875Y106500D01*
X359563Y106813D01*
X359250Y107437D01*
Y108687D01*
X359563Y109313D01*
X359875Y109625D01*
X360500Y109937D01*
X361437D01*
X362063Y109625D01*
X362375Y109313D01*
Y176813D02*
X362063Y176500D01*
X361437Y176187D01*
X360500D01*
X359875Y176500D01*
X359563Y176813D01*
X359250Y177437D01*
Y178687D01*
X359563Y179313D01*
X359875Y179625D01*
X360500Y179937D01*
X361437D01*
X362063Y179625D01*
X362375Y179313D01*
Y246813D02*
X362063Y246500D01*
X361437Y246187D01*
X360500D01*
X359875Y246500D01*
X359563Y246813D01*
X359250Y247437D01*
Y248687D01*
X359563Y249313D01*
X359875Y249625D01*
X360500Y249937D01*
X361437D01*
X362063Y249625D01*
X362375Y249313D01*
X364250Y196187D02*
X365813Y199937D01*
X367375Y196187D01*
X364875Y197750D02*
X366750D01*
X364250Y226187D02*
X365813Y229937D01*
X367375Y226187D01*
X364875Y227750D02*
X366750D01*
X369250Y26187D02*
Y29937D01*
X372375D01*
X371750Y28063D02*
X369250D01*
Y26187D02*
X372375D01*
Y176813D02*
X372063Y176500D01*
X371437Y176187D01*
X370500D01*
X369875Y176500D01*
X369563Y176813D01*
X369250Y177437D01*
Y178687D01*
X369563Y179313D01*
X369875Y179625D01*
X370500Y179937D01*
X371437D01*
X372063Y179625D01*
X372375Y179313D01*
Y246813D02*
X372063Y246500D01*
X371437Y246187D01*
X370500D01*
X369875Y246500D01*
X369563Y246813D01*
X369250Y247437D01*
Y248687D01*
X369563Y249313D01*
X369875Y249625D01*
X370500Y249937D01*
X371437D01*
X372063Y249625D01*
X372375Y249313D01*
X374250Y196187D02*
X375813Y199937D01*
X377375Y196187D01*
X374875Y197750D02*
X376750D01*
X374250Y226187D02*
X375813Y229937D01*
X377375Y226187D01*
X374875Y227750D02*
X376750D01*
X379250Y26187D02*
Y29937D01*
X382375D01*
X381750Y28063D02*
X379250D01*
Y26187D02*
X382375D01*
X381437Y71063D02*
X382063Y70750D01*
X382375Y70125D01*
X382063Y69500D01*
X381437Y69187D01*
X379250D01*
Y72937D01*
X381437D01*
X382063Y72625D01*
X382375Y72000D01*
X382063Y71375D01*
X381437Y71063D01*
X379250D01*
X382375Y176813D02*
X382063Y176500D01*
X381437Y176187D01*
X380500D01*
X379875Y176500D01*
X379563Y176813D01*
X379250Y177437D01*
Y178687D01*
X379563Y179313D01*
X379875Y179625D01*
X380500Y179937D01*
X381437D01*
X382063Y179625D01*
X382375Y179313D01*
Y246813D02*
X382063Y246500D01*
X381437Y246187D01*
X380500D01*
X379875Y246500D01*
X379563Y246813D01*
X379250Y247437D01*
Y248687D01*
X379563Y249313D01*
X379875Y249625D01*
X380500Y249937D01*
X381437D01*
X382063Y249625D01*
X382375Y249313D01*
X389250Y26187D02*
Y29937D01*
X392375D01*
X391750Y28063D02*
X389250D01*
Y26187D02*
X392375D01*
X391437Y83766D02*
X392375D01*
Y83453D01*
X392063Y82828D01*
X391750Y82516D01*
X391125Y82203D01*
X390500D01*
X389875Y82516D01*
X389563Y82828D01*
X389250Y83453D01*
Y84703D01*
X389563Y85328D01*
X389875Y85641D01*
X390500Y85953D01*
X391125D01*
X391750Y85641D01*
X392063Y85328D01*
X392375Y84703D01*
X391437Y92762D02*
X392375D01*
Y92449D01*
X392063Y91824D01*
X391750Y91512D01*
X391125Y91199D01*
X390500D01*
X389875Y91512D01*
X389563Y91824D01*
X389250Y92449D01*
Y93699D01*
X389563Y94324D01*
X389875Y94637D01*
X390500Y94949D01*
X391125D01*
X391750Y94637D01*
X392063Y94324D01*
X392375Y93699D01*
X391437Y101758D02*
X392375D01*
Y101445D01*
X392063Y100820D01*
X391750Y100508D01*
X391125Y100195D01*
X390500D01*
X389875Y100508D01*
X389563Y100820D01*
X389250Y101445D01*
Y102695D01*
X389563Y103320D01*
X389875Y103633D01*
X390500Y103945D01*
X391125D01*
X391750Y103633D01*
X392063Y103320D01*
X392375Y102695D01*
X391437Y110754D02*
X392375D01*
Y110441D01*
X392063Y109817D01*
X391750Y109504D01*
X391125Y109191D01*
X390500D01*
X389875Y109504D01*
X389563Y109817D01*
X389250Y110441D01*
Y111691D01*
X389563Y112317D01*
X389875Y112629D01*
X390500Y112941D01*
X391125D01*
X391750Y112629D01*
X392063Y112317D01*
X392375Y111691D01*
X391437Y119750D02*
X392375D01*
Y119437D01*
X392063Y118813D01*
X391750Y118500D01*
X391125Y118187D01*
X390500D01*
X389875Y118500D01*
X389563Y118813D01*
X389250Y119437D01*
Y120687D01*
X389563Y121313D01*
X389875Y121625D01*
X390500Y121937D01*
X391125D01*
X391750Y121625D01*
X392063Y121313D01*
X392375Y120687D01*
Y176813D02*
X392063Y176500D01*
X391437Y176187D01*
X390500D01*
X389875Y176500D01*
X389563Y176813D01*
X389250Y177437D01*
Y178687D01*
X389563Y179313D01*
X389875Y179625D01*
X390500Y179937D01*
X391437D01*
X392063Y179625D01*
X392375Y179313D01*
X389250Y196187D02*
X390813Y199937D01*
X392375Y196187D01*
X389875Y197750D02*
X391750D01*
X389250Y226187D02*
X390813Y229937D01*
X392375Y226187D01*
X389875Y227750D02*
X391750D01*
X392375Y246813D02*
X392063Y246500D01*
X391437Y246187D01*
X390500D01*
X389875Y246500D01*
X389563Y246813D01*
X389250Y247437D01*
Y248687D01*
X389563Y249313D01*
X389875Y249625D01*
X390500Y249937D01*
X391437D01*
X392063Y249625D01*
X392375Y249313D01*
X399250Y26187D02*
Y29937D01*
X402375D01*
X401750Y28063D02*
X399250D01*
Y26187D02*
X402375D01*
X399250Y51967D02*
Y55717D01*
Y53842D02*
X402375D01*
Y51967D02*
Y55717D01*
X401437Y88262D02*
X402375D01*
Y87949D01*
X402063Y87324D01*
X401750Y87012D01*
X401125Y86699D01*
X400500D01*
X399875Y87012D01*
X399563Y87324D01*
X399250Y87949D01*
Y89199D01*
X399563Y89824D01*
X399875Y90137D01*
X400500Y90449D01*
X401125D01*
X401750Y90137D01*
X402063Y89824D01*
X402375Y89199D01*
X401437Y97258D02*
X402375D01*
Y96945D01*
X402063Y96320D01*
X401750Y96008D01*
X401125Y95695D01*
X400500D01*
X399875Y96008D01*
X399563Y96320D01*
X399250Y96945D01*
Y98195D01*
X399563Y98820D01*
X399875Y99133D01*
X400500Y99445D01*
X401125D01*
X401750Y99133D01*
X402063Y98820D01*
X402375Y98195D01*
X401437Y106254D02*
X402375D01*
Y105941D01*
X402063Y105317D01*
X401750Y105004D01*
X401125Y104691D01*
X400500D01*
X399875Y105004D01*
X399563Y105317D01*
X399250Y105941D01*
Y107191D01*
X399563Y107817D01*
X399875Y108129D01*
X400500Y108441D01*
X401125D01*
X401750Y108129D01*
X402063Y107817D01*
X402375Y107191D01*
X401437Y115250D02*
X402375D01*
Y114937D01*
X402063Y114313D01*
X401750Y114000D01*
X401125Y113687D01*
X400500D01*
X399875Y114000D01*
X399563Y114313D01*
X399250Y114937D01*
Y116187D01*
X399563Y116813D01*
X399875Y117125D01*
X400500Y117437D01*
X401125D01*
X401750Y117125D01*
X402063Y116813D01*
X402375Y116187D01*
X401437Y124246D02*
X402375D01*
Y123933D01*
X402063Y123309D01*
X401750Y122996D01*
X401125Y122683D01*
X400500D01*
X399875Y122996D01*
X399563Y123309D01*
X399250Y123933D01*
Y125183D01*
X399563Y125809D01*
X399875Y126121D01*
X400500Y126433D01*
X401125D01*
X401750Y126121D01*
X402063Y125809D01*
X402375Y125183D01*
X399250Y150431D02*
Y154181D01*
Y152307D02*
X402375D01*
Y150431D02*
Y154181D01*
Y176813D02*
X402063Y176500D01*
X401437Y176187D01*
X400500D01*
X399875Y176500D01*
X399563Y176813D01*
X399250Y177437D01*
Y178687D01*
X399563Y179313D01*
X399875Y179625D01*
X400500Y179937D01*
X401437D01*
X402063Y179625D01*
X402375Y179313D01*
X399250Y196187D02*
X400813Y199937D01*
X402375Y196187D01*
X399875Y197750D02*
X401750D01*
X399250Y226187D02*
X400813Y229937D01*
X402375Y226187D01*
X399875Y227750D02*
X401750D01*
X402375Y246813D02*
X402063Y246500D01*
X401437Y246187D01*
X400500D01*
X399875Y246500D01*
X399563Y246813D01*
X399250Y247437D01*
Y248687D01*
X399563Y249313D01*
X399875Y249625D01*
X400500Y249937D01*
X401437D01*
X402063Y249625D01*
X402375Y249313D01*
X409250Y26187D02*
Y29937D01*
X412375D01*
X411750Y28063D02*
X409250D01*
Y26187D02*
X412375D01*
X411437Y83766D02*
X412375D01*
Y83453D01*
X412063Y82828D01*
X411750Y82516D01*
X411125Y82203D01*
X410500D01*
X409875Y82516D01*
X409563Y82828D01*
X409250Y83453D01*
Y84703D01*
X409563Y85328D01*
X409875Y85641D01*
X410500Y85953D01*
X411125D01*
X411750Y85641D01*
X412063Y85328D01*
X412375Y84703D01*
X411437Y92762D02*
X412375D01*
Y92449D01*
X412063Y91824D01*
X411750Y91512D01*
X411125Y91199D01*
X410500D01*
X409875Y91512D01*
X409563Y91824D01*
X409250Y92449D01*
Y93699D01*
X409563Y94324D01*
X409875Y94637D01*
X410500Y94949D01*
X411125D01*
X411750Y94637D01*
X412063Y94324D01*
X412375Y93699D01*
X411437Y101758D02*
X412375D01*
Y101445D01*
X412063Y100820D01*
X411750Y100508D01*
X411125Y100195D01*
X410500D01*
X409875Y100508D01*
X409563Y100820D01*
X409250Y101445D01*
Y102695D01*
X409563Y103320D01*
X409875Y103633D01*
X410500Y103945D01*
X411125D01*
X411750Y103633D01*
X412063Y103320D01*
X412375Y102695D01*
X411437Y110754D02*
X412375D01*
Y110441D01*
X412063Y109817D01*
X411750Y109504D01*
X411125Y109191D01*
X410500D01*
X409875Y109504D01*
X409563Y109817D01*
X409250Y110441D01*
Y111691D01*
X409563Y112317D01*
X409875Y112629D01*
X410500Y112941D01*
X411125D01*
X411750Y112629D01*
X412063Y112317D01*
X412375Y111691D01*
X411437Y119750D02*
X412375D01*
Y119437D01*
X412063Y118813D01*
X411750Y118500D01*
X411125Y118187D01*
X410500D01*
X409875Y118500D01*
X409563Y118813D01*
X409250Y119437D01*
Y120687D01*
X409563Y121313D01*
X409875Y121625D01*
X410500Y121937D01*
X411125D01*
X411750Y121625D01*
X412063Y121313D01*
X412375Y120687D01*
Y176813D02*
X412063Y176500D01*
X411437Y176187D01*
X410500D01*
X409875Y176500D01*
X409563Y176813D01*
X409250Y177437D01*
Y178687D01*
X409563Y179313D01*
X409875Y179625D01*
X410500Y179937D01*
X411437D01*
X412063Y179625D01*
X412375Y179313D01*
Y246813D02*
X412063Y246500D01*
X411437Y246187D01*
X410500D01*
X409875Y246500D01*
X409563Y246813D01*
X409250Y247437D01*
Y248687D01*
X409563Y249313D01*
X409875Y249625D01*
X410500Y249937D01*
X411437D01*
X412063Y249625D01*
X412375Y249313D01*
X415250Y196187D02*
X416813Y199937D01*
X418375Y196187D01*
X415875Y197750D02*
X417750D01*
X415250Y226187D02*
X416813Y229937D01*
X418375Y226187D01*
X415875Y227750D02*
X417750D01*
X419250Y26187D02*
Y29937D01*
X422375D01*
X421750Y28063D02*
X419250D01*
Y26187D02*
X422375D01*
Y176813D02*
X422063Y176500D01*
X421437Y176187D01*
X420500D01*
X419875Y176500D01*
X419563Y176813D01*
X419250Y177437D01*
Y178687D01*
X419563Y179313D01*
X419875Y179625D01*
X420500Y179937D01*
X421437D01*
X422063Y179625D01*
X422375Y179313D01*
Y246813D02*
X422063Y246500D01*
X421437Y246187D01*
X420500D01*
X419875Y246500D01*
X419563Y246813D01*
X419250Y247437D01*
Y248687D01*
X419563Y249313D01*
X419875Y249625D01*
X420500Y249937D01*
X421437D01*
X422063Y249625D01*
X422375Y249313D01*
X429250Y26187D02*
Y29937D01*
X432375D01*
X431750Y28063D02*
X429250D01*
Y26187D02*
X432375D01*
Y176813D02*
X432063Y176500D01*
X431437Y176187D01*
X430500D01*
X429875Y176500D01*
X429563Y176813D01*
X429250Y177437D01*
Y178687D01*
X429563Y179313D01*
X429875Y179625D01*
X430500Y179937D01*
X431437D01*
X432063Y179625D01*
X432375Y179313D01*
Y206813D02*
X432063Y206500D01*
X431437Y206187D01*
X430500D01*
X429875Y206500D01*
X429563Y206813D01*
X429250Y207437D01*
Y208687D01*
X429563Y209313D01*
X429875Y209625D01*
X430500Y209937D01*
X431437D01*
X432063Y209625D01*
X432375Y209313D01*
Y216813D02*
X432063Y216500D01*
X431437Y216187D01*
X430500D01*
X429875Y216500D01*
X429563Y216813D01*
X429250Y217437D01*
Y218687D01*
X429563Y219313D01*
X429875Y219625D01*
X430500Y219937D01*
X431437D01*
X432063Y219625D01*
X432375Y219313D01*
Y246813D02*
X432063Y246500D01*
X431437Y246187D01*
X430500D01*
X429875Y246500D01*
X429563Y246813D01*
X429250Y247437D01*
Y248687D01*
X429563Y249313D01*
X429875Y249625D01*
X430500Y249937D01*
X431437D01*
X432063Y249625D01*
X432375Y249313D01*
X439250Y26187D02*
Y29937D01*
X442375D01*
X441750Y28063D02*
X439250D01*
Y26187D02*
X442375D01*
D02*
D110*
X49250Y20250D03*
X59250D03*
Y45250D03*
Y55250D03*
Y65250D03*
Y75250D03*
Y85250D03*
Y95250D03*
Y115250D03*
Y125250D03*
Y165250D03*
Y175250D03*
X63981Y145532D03*
X69250Y20250D03*
X74250Y65250D03*
Y75250D03*
Y85250D03*
Y100250D03*
Y110250D03*
Y120250D03*
X79250Y20250D03*
X89250D03*
X99250D03*
X104250Y65250D03*
Y75250D03*
Y85250D03*
Y100250D03*
Y110250D03*
Y120250D03*
X109250Y20250D03*
X116250Y165250D03*
Y195171D03*
Y204620D03*
X119250Y20250D03*
Y50250D03*
Y60250D03*
Y70250D03*
Y80250D03*
Y90250D03*
Y100250D03*
Y110250D03*
Y120250D03*
X129250Y20250D03*
X130250Y35250D03*
X139250Y20250D03*
X149250D03*
Y50250D03*
Y60250D03*
Y70250D03*
Y80250D03*
Y90250D03*
Y100250D03*
Y110250D03*
Y120250D03*
X154250Y35250D03*
Y140250D03*
X159250Y20250D03*
X164250Y40250D03*
Y50250D03*
Y60250D03*
Y70250D03*
Y80250D03*
Y90250D03*
Y100250D03*
Y110250D03*
Y120250D03*
Y140250D03*
X169250Y20250D03*
Y230250D03*
X179250Y20250D03*
Y155250D03*
Y175250D03*
Y185250D03*
Y195250D03*
Y205250D03*
Y230250D03*
X180250Y42250D03*
X182250Y140250D03*
X189250Y20250D03*
Y50250D03*
Y60250D03*
Y70250D03*
Y80250D03*
Y90250D03*
Y100250D03*
Y110250D03*
Y120250D03*
X192250Y140250D03*
X199250Y20250D03*
Y230250D03*
X209250Y20250D03*
Y140250D03*
Y155250D03*
Y175250D03*
Y185250D03*
Y195250D03*
Y205250D03*
Y230250D03*
X212250Y55250D03*
Y131250D03*
X219250Y20250D03*
Y50250D03*
Y60250D03*
Y70250D03*
Y80250D03*
Y90250D03*
Y100250D03*
Y110250D03*
Y120250D03*
Y140250D03*
X229250Y20250D03*
Y75250D03*
Y170250D03*
Y185250D03*
Y240250D03*
X234250Y29250D03*
Y40250D03*
Y60250D03*
Y85250D03*
Y202250D03*
X239250Y20250D03*
Y70250D03*
Y110250D03*
Y140250D03*
Y170250D03*
Y240250D03*
X244250Y196250D03*
X246250Y30250D03*
Y75250D03*
X249250Y20250D03*
Y94250D03*
Y110250D03*
Y140250D03*
Y170250D03*
Y220250D03*
Y240250D03*
X259250Y20250D03*
Y33250D03*
Y50250D03*
Y80250D03*
Y94250D03*
Y110250D03*
Y140250D03*
Y170250D03*
Y185250D03*
Y220250D03*
Y240250D03*
X269250Y20250D03*
Y50250D03*
Y60250D03*
Y80250D03*
Y110250D03*
Y140250D03*
Y170250D03*
Y187250D03*
Y240250D03*
X279250Y20250D03*
Y50250D03*
Y80250D03*
Y110250D03*
Y140250D03*
Y170250D03*
Y240250D03*
X284250Y190250D03*
Y220250D03*
X289250Y20250D03*
Y50250D03*
Y80250D03*
Y110250D03*
Y140250D03*
Y170250D03*
Y240250D03*
X294250Y190250D03*
Y220250D03*
X299250Y20250D03*
Y50250D03*
Y80250D03*
Y110250D03*
Y140250D03*
Y170250D03*
Y240250D03*
X309250Y20250D03*
Y50250D03*
Y80250D03*
Y110250D03*
Y140250D03*
Y170250D03*
Y190250D03*
Y220250D03*
Y240250D03*
X319250Y20250D03*
Y50250D03*
Y80250D03*
Y110250D03*
Y140250D03*
Y170250D03*
Y190250D03*
Y220250D03*
Y240250D03*
X329250Y20250D03*
Y110250D03*
Y140250D03*
Y170250D03*
Y190250D03*
Y220250D03*
Y240250D03*
X332250Y154250D03*
X336250Y63250D03*
X339250Y20250D03*
Y154250D03*
Y170250D03*
Y240250D03*
X344250Y190250D03*
Y220250D03*
X346250Y154250D03*
X349250Y20250D03*
Y60250D03*
Y70250D03*
Y90250D03*
Y100250D03*
Y170250D03*
Y240250D03*
X354250Y190250D03*
Y220250D03*
X359250Y20250D03*
Y170250D03*
Y240250D03*
X364250Y190250D03*
Y220250D03*
X369250Y20250D03*
Y63250D03*
Y170250D03*
Y240250D03*
X379250Y20250D03*
Y76266D03*
Y85262D03*
Y94258D03*
Y103254D03*
Y112250D03*
Y170250D03*
Y190250D03*
Y220250D03*
Y240250D03*
X389250Y20250D03*
Y46030D03*
Y80762D03*
Y89758D03*
Y98754D03*
Y107750D03*
Y116746D03*
Y144494D03*
Y170250D03*
Y190250D03*
Y220250D03*
Y240250D03*
X399250Y20250D03*
Y76266D03*
Y85262D03*
Y94258D03*
Y103254D03*
Y112250D03*
Y170250D03*
Y240250D03*
X405250Y190250D03*
Y220250D03*
X409250Y20250D03*
Y170250D03*
Y240250D03*
X419250Y20250D03*
Y170250D03*
Y200250D03*
Y210250D03*
Y240250D03*
X429250Y20250D03*
X0Y0D02*
M02*
